Hack-BoldItalic-PS.ufo
<glyph name="ampersand" format="1">
  <advance width="1233"/>
  <unicode hex="0026"/>
  <outline>
    <contour>
      <point x="387" y="-29" type="curve" smooth="yes" name="dv01"/>
      <point x="264" y="-29"/>
      <point x="157" y="5" name="sh01"/>
      <point x="80" y="77" type="curve" smooth="yes"/>
      <point x="1" y="150"/>
      <point x="-33" y="251" name="sh02"/>
      <point x="-33" y="362" type="curve" smooth="yes" name="ah02"/>
      <point x="-33" y="469"/>
      <point x="0" y="571" name="at01"/>
      <point x="66" y="666" type="curve" smooth="yes" name="at02"/>
      <point x="134" y="763"/>
      <point x="225" y="842" name="iv01"/>
      <point x="350" y="913" type="curve"/>
      <point x="331" y="954" name="sv01"/>
      <point x="321" y="985"/>
      <point x="312" y="1021" type="curve" smooth="yes" name="sh03"/>
      <point x="304" y="1053"/>
      <point x="299" y="1079"/>
      <point x="299" y="1118" type="curve" smooth="yes" name="iv02"/>
      <point x="299" y="1235"/>
      <point x="343" y="1338"/>
      <point x="432" y="1411" type="curve" smooth="yes"/>
      <point x="520" y="1483"/>
      <point x="645" y="1520"/>
      <point x="794" y="1520" type="curve" smooth="yes" name="ab01"/>
      <point x="843" y="1520"/>
      <point x="888" y="1516"/>
      <point x="933" y="1509" type="curve" smooth="yes" name="ab02"/>
      <point x="977" y="1502"/>
      <point x="1018" y="1492" name="dv02"/>
      <point x="1065" y="1477" type="curve"/>
      <point x="1016" y="1221" type="line"/>
      <point x="980" y="1244"/>
      <point x="941" y="1262" name="sh04"/>
      <point x="898" y="1275" type="curve" smooth="yes" name="sh05"/>
      <point x="855" y="1288"/>
      <point x="812" y="1294"/>
      <point x="769" y="1294" type="curve" smooth="yes" name="ah01"/>
      <point x="705" y="1294"/>
      <point x="662" y="1282"/>
      <point x="633" y="1259" type="curve" smooth="yes"/>
      <point x="602" y="1235"/>
      <point x="586" y="1201"/>
      <point x="586" y="1158" type="curve" smooth="yes"/>
      <point x="586" y="1134"/>
      <point x="592" y="1103"/>
      <point x="605" y="1065" type="curve" smooth="yes"/>
      <point x="620" y="1018"/>
      <point x="636" y="981"/>
      <point x="664" y="920" type="curve" smooth="yes"/>
      <point x="885" y="440" type="line"/>
      <point x="913" y="479"/>
      <point x="935" y="524"/>
      <point x="951" y="575" type="curve" smooth="yes"/>
      <point x="966" y="625"/>
      <point x="976" y="682"/>
      <point x="979" y="745" type="curve"/>
      <point x="1214" y="745" type="line"/>
      <point x="1207" y="641"/>
      <point x="1184" y="547"/>
      <point x="1143" y="463" type="curve" smooth="yes"/>
      <point x="1103" y="380"/>
      <point x="1047" y="307"/>
      <point x="975" y="246" type="curve"/>
      <point x="1090" y="0" type="line"/>
      <point x="774" y="0" type="line"/>
      <point x="739" y="72" type="line"/>
      <point x="682" y="39"/>
      <point x="624" y="13"/>
      <point x="564" y="-4" type="curve" smooth="yes"/>
      <point x="505" y="-21"/>
      <point x="446" y="-29"/>
    </contour>
    <contour>
      <point x="473" y="207" type="curve" smooth="yes"/>
      <point x="501" y="207"/>
      <point x="531" y="212"/>
      <point x="562" y="221" type="curve" smooth="yes"/>
      <point x="593" y="230"/>
      <point x="622" y="243"/>
      <point x="653" y="262" type="curve"/>
      <point x="436" y="731" type="line"/>
      <point x="375" y="696"/>
      <point x="330" y="654"/>
      <point x="299" y="605" type="curve" smooth="yes"/>
      <point x="267" y="554"/>
      <point x="252" y="496"/>
      <point x="252" y="440" type="curve" smooth="yes"/>
      <point x="252" y="375"/>
      <point x="272" y="317"/>
      <point x="315" y="273" type="curve" smooth="yes"/>
      <point x="358" y="229"/>
      <point x="413" y="207"/>
    </contour>
  </outline>
</glyph>
<glyph name="parenleft" format="1">
  <advance width="1233"/>
  <unicode hex="0028"/>
  <outline>
    <contour>
      <point x="440" y="-270" type="line" name="av01"/>
      <point x="388" y="-161"/>
      <point x="346" y="-49" name="dh01"/>
      <point x="318" y="67" type="curve" smooth="yes"/>
      <point x="291" y="176" name="at01"/>
      <point x="278" y="284"/>
      <point x="278" y="393" type="curve" smooth="yes"/>
      <point x="278" y="592" name="dh02"/>
      <point x="321" y="779"/>
      <point x="408" y="974" type="curve" smooth="yes" name="av02"/>
      <point x="495" y="1169"/>
      <point x="617" y="1354"/>
      <point x="794" y="1554" type="curve"/>
      <point x="1019" y="1554" type="line"/>
      <point x="863" y="1345"/>
      <point x="746" y="1140"/>
      <point x="669" y="941" type="curve" smooth="yes"/>
      <point x="591" y="740"/>
      <point x="552" y="541"/>
      <point x="552" y="346" type="curve" smooth="yes"/>
      <point x="552" y="251"/>
      <point x="561" y="153"/>
      <point x="580" y="50" type="curve" smooth="yes"/>
      <point x="600" y="-58"/>
      <point x="629" y="-165"/>
      <point x="665" y="-270" type="curve"/>
    </contour>
  </outline>
</glyph>
<glyph name="colon" format="1">
  <advance width="1233"/>
  <unicode hex="003A"/>
  <outline>
    <contour>
      <point x="734" y="747" type="curve" smooth="yes" name="dv01"/>
      <point x="681" y="747"/>
      <point x="644" y="766" name="ih01"/>
      <point x="620" y="793" type="curve" smooth="yes"/>
      <point x="597" y="820" name="dv02"/>
      <point x="581" y="857"/>
      <point x="581" y="904" type="curve" smooth="yes" name="sh01"/>
      <point x="581" y="988"/>
      <point x="631" y="1070"/>
      <point x="716" y="1102" type="curve" smooth="yes"/>
      <point x="739" y="1110" name="ab01"/>
      <point x="761" y="1115"/>
      <point x="788" y="1115" type="curve" smooth="yes" name="dh01"/>
      <point x="837" y="1115"/>
      <point x="876" y="1098" name="sv01"/>
      <point x="903" y="1069" type="curve" smooth="yes"/>
      <point x="931" y="1038" name="dh02"/>
      <point x="941" y="993"/>
      <point x="941" y="954" type="curve" smooth="yes" name="ab02"/>
      <point x="941" y="923"/>
      <point x="935" y="902"/>
      <point x="927" y="882" type="curve" smooth="yes" name="sh02"/>
      <point x="904" y="825"/>
      <point x="862" y="784"/>
      <point x="806" y="761" type="curve" smooth="yes"/>
      <point x="783" y="752"/>
      <point x="759" y="747"/>
    </contour>
    <contour>
      <point x="620" y="35" type="curve" smooth="yes"/>
      <point x="567" y="35"/>
      <point x="530" y="54"/>
      <point x="506" y="81" type="curve" smooth="yes"/>
      <point x="483" y="108"/>
      <point x="467" y="145"/>
      <point x="467" y="192" type="curve" smooth="yes"/>
      <point x="467" y="276"/>
      <point x="517" y="358"/>
      <point x="602" y="390" type="curve" smooth="yes"/>
      <point x="625" y="398"/>
      <point x="647" y="403"/>
      <point x="674" y="403" type="curve" smooth="yes"/>
      <point x="723" y="403"/>
      <point x="762" y="386"/>
      <point x="789" y="357" type="curve" smooth="yes"/>
      <point x="817" y="326"/>
      <point x="827" y="281"/>
      <point x="827" y="242" type="curve" smooth="yes"/>
      <point x="827" y="211"/>
      <point x="821" y="190"/>
      <point x="813" y="170" type="curve" smooth="yes"/>
      <point x="790" y="113"/>
      <point x="748" y="72"/>
      <point x="692" y="49" type="curve" smooth="yes"/>
      <point x="669" y="40"/>
      <point x="645" y="35"/>
    </contour>
  </outline>
</glyph>
<glyph name="a" format="1">
  <advance width="1233"/>
  <unicode hex="0061"/>
  <outline>
    <contour>
      <point x="379" y="-29" type="curve" smooth="yes" name="dv01"/>
      <point x="279" y="-29"/>
      <point x="195" y="-2" name="dh01"/>
      <point x="135" y="58" type="curve" smooth="yes"/>
      <point x="72" y="119"/>
      <point x="47" y="204" name="dv04"/>
      <point x="47" y="300" type="curve" smooth="yes"/>
      <point x="47" y="436"/>
      <point x="99" y="548"/>
      <point x="203" y="624" type="curve" smooth="yes"/>
      <point x="306" y="699" name="sv01"/>
      <point x="456" y="737"/>
      <point x="651" y="737" type="curve" smooth="yes" name="ih01"/>
      <point x="844" y="737" type="line"/>
      <point x="852" y="786" type="line" smooth="yes"/>
      <point x="853" y="793" name="at01"/>
      <point x="854" y="797"/>
      <point x="854" y="798" type="curve"/>
      <point x="854" y="815" type="line" smooth="yes"/>
      <point x="854" y="853"/>
      <point x="837" y="882" name="ab01"/>
      <point x="803" y="902" type="curve" smooth="yes"/>
      <point x="769" y="922" name="iv01"/>
      <point x="720" y="932" name="ab02"/>
      <point x="657" y="932" type="curve" smooth="yes"/>
      <point x="600" y="932" name="dv02"/>
      <point x="538" y="923"/>
      <point x="470" y="904" type="curve" smooth="yes" name="dv03"/>
      <point x="403" y="885"/>
      <point x="335" y="859"/>
      <point x="248" y="819" type="curve" name="dh02"/>
      <point x="295" y="1069" type="line"/>
      <point x="372" y="1096"/>
      <point x="443" y="1115"/>
      <point x="509" y="1128" type="curve" smooth="yes"/>
      <point x="577" y="1141"/>
      <point x="637" y="1147"/>
      <point x="705" y="1147" type="curve" smooth="yes"/>
      <point x="844" y="1147"/>
      <point x="953" y="1122"/>
      <point x="1029" y="1071" type="curve" smooth="yes"/>
      <point x="1109" y="1018"/>
      <point x="1141" y="942"/>
      <point x="1141" y="845" type="curve" smooth="yes"/>
      <point x="1141" y="821"/>
      <point x="1139" y="793"/>
      <point x="1134" y="756" type="curve" smooth="yes"/>
      <point x="1129" y="717"/>
      <point x="1125" y="691"/>
      <point x="1114" y="639" type="curve"/>
      <point x="991" y="0" type="line"/>
      <point x="729" y="0" type="line"/>
      <point x="725" y="125" type="line"/>
      <point x="678" y="72"/>
      <point x="627" y="34"/>
      <point x="572" y="10" type="curve" smooth="yes"/>
      <point x="513" y="-17"/>
      <point x="447" y="-29"/>
    </contour>
    <contour>
      <point x="501" y="172" type="curve" smooth="yes"/>
      <point x="573" y="172"/>
      <point x="641" y="202"/>
      <point x="694" y="265" type="curve" smooth="yes"/>
      <point x="745" y="324"/>
      <point x="784" y="411"/>
      <point x="803" y="530" type="curve"/>
      <point x="690" y="530" type="line" smooth="yes"/>
      <point x="575" y="530"/>
      <point x="490" y="513"/>
      <point x="435" y="478" type="curve" smooth="yes"/>
      <point x="379" y="443"/>
      <point x="352" y="389"/>
      <point x="352" y="321" type="curve" smooth="yes"/>
      <point x="352" y="273"/>
      <point x="366" y="240"/>
      <point x="393" y="213" type="curve" smooth="yes"/>
      <point x="420" y="186"/>
      <point x="452" y="172"/>
    </contour>
  </outline>
</glyph>
<glyph name="d" format="1">
  <advance width="1233"/>
  <unicode hex="0064"/>
  <outline>
    <contour>
      <point x="382" y="-29" type="curve" smooth="yes" name="dv01"/>
      <point x="286" y="-29"/>
      <point x="209" y="8" name="dh01"/>
      <point x="152" y="81" type="curve" smooth="yes"/>
      <point x="95" y="154"/>
      <point x="66" y="251"/>
      <point x="66" y="386" type="curve" smooth="yes" name="dv04"/>
      <point x="66" y="466"/>
      <point x="76" y="552" name="iv01"/>
      <point x="97" y="639" type="curve" smooth="yes" name="at01"/>
      <point x="118" y="726"/>
      <point x="151" y="811" name="ab01"/>
      <point x="184" y="874" type="curve" smooth="yes"/>
      <point x="227" y="955" name="ih01"/>
      <point x="286" y="1025"/>
      <point x="358" y="1076" type="curve" smooth="yes"/>
      <point x="427" y="1125" name="dv02"/>
      <point x="502" y="1149"/>
      <point x="581" y="1149" type="curve" smooth="yes" name="sh01"/>
      <point x="655" y="1149"/>
      <point x="717" y="1128" name="dv03"/>
      <point x="766" y="1086" type="curve" smooth="yes"/>
      <point x="811" y="1047" name="dh02"/>
      <point x="843" y="988"/>
      <point x="854" y="911" type="curve"/>
      <point x="979" y="1556" type="line"/>
      <point x="1272" y="1556" type="line"/>
      <point x="969" y="0" type="line"/>
      <point x="707" y="0" type="line"/>
      <point x="709" y="166" type="line"/>
      <point x="665" y="102"/>
      <point x="616" y="54"/>
      <point x="561" y="21" type="curve" smooth="yes"/>
      <point x="506" y="-12"/>
      <point x="446" y="-29"/>
    </contour>
    <contour>
      <point x="517" y="211" type="curve" smooth="yes"/>
      <point x="593" y="211"/>
      <point x="660" y="257"/>
      <point x="716" y="350" type="curve" smooth="yes"/>
      <point x="772" y="443"/>
      <point x="799" y="557"/>
      <point x="799" y="674" type="curve" smooth="yes"/>
      <point x="799" y="762"/>
      <point x="783" y="811"/>
      <point x="754" y="850" type="curve" smooth="yes"/>
      <point x="724" y="889"/>
      <point x="684" y="909"/>
      <point x="634" y="909" type="curve" smooth="yes"/>
      <point x="559" y="909"/>
      <point x="495" y="862"/>
      <point x="442" y="768" type="curve" smooth="yes"/>
      <point x="389" y="672"/>
      <point x="362" y="553"/>
      <point x="362" y="436" type="curve" smooth="yes"/>
      <point x="362" y="351"/>
      <point x="376" y="304"/>
      <point x="404" y="267" type="curve" smooth="yes"/>
      <point x="432" y="230"/>
      <point x="470" y="211"/>
    </contour>
  </outline>
</glyph>
<glyph name="u" format="1">
  <advance width="1233"/>
  <unicode hex="0075"/>
  <outline>
    <contour>
      <point x="372" y="-29" type="curve" smooth="yes" name="dv01"/>
      <point x="287" y="-29"/>
      <point x="221" y="-5" name="dh01"/>
      <point x="175" y="42" type="curve" smooth="yes" name="sh01"/>
      <point x="129" y="89"/>
      <point x="106" y="156" name="at01"/>
      <point x="106" y="244" type="curve" smooth="yes"/>
      <point x="106" y="263"/>
      <point x="107" y="284"/>
      <point x="110" y="308" type="curve" smooth="yes" name="dh02"/>
      <point x="111" y="312"/>
      <point x="115" y="352" name="dv02"/>
      <point x="123" y="391" type="curve" smooth="yes"/>
      <point x="266" y="1120" type="line"/>
      <point x="557" y="1120" type="line" name="at02"/>
      <point x="426" y="436" type="line" smooth="yes"/>
      <point x="423" y="419" name="ab01"/>
      <point x="422" y="406"/>
      <point x="419" y="383" type="curve" smooth="yes" name="iv01"/>
      <point x="416" y="362"/>
      <point x="416" y="351"/>
      <point x="416" y="336" type="curve" smooth="yes"/>
      <point x="416" y="289"/>
      <point x="426" y="264"/>
      <point x="445" y="243" type="curve" smooth="yes"/>
      <point x="462" y="224"/>
      <point x="486" y="211"/>
      <point x="529" y="211" type="curve" smooth="yes"/>
      <point x="588" y="211"/>
      <point x="632" y="235"/>
      <point x="668" y="282" type="curve" smooth="yes"/>
      <point x="707" y="331"/>
      <point x="735" y="400"/>
      <point x="752" y="489" type="curve" smooth="yes"/>
      <point x="874" y="1120" type="line"/>
      <point x="1165" y="1120" type="line"/>
      <point x="948" y="0" type="line"/>
      <point x="684" y="0" type="line"/>
      <point x="688" y="166" type="line"/>
      <point x="656" y="99"/>
      <point x="612" y="57"/>
      <point x="559" y="24" type="curve" smooth="yes"/>
      <point x="498" y="-15"/>
      <point x="439" y="-29"/>
    </contour>
  </outline>
</glyph>
<glyph name="logicalnot" format="1">
  <advance width="1233"/>
  <unicode hex="00AC"/>
  <outline>
    <contour>
      <point x="907" y="662" type="line" name="dh01"/>
      <point x="88" y="662" type="line"/>
      <point x="88" y="899" type="line"/>
      <point x="1145" y="899" type="line" name="dh02"/>
      <point x="1145" y="362" type="line" name="av01"/>
      <point x="907" y="362" type="line"/>
    </contour>
  </outline>
</glyph>
<glyph name="degree" format="1">
  <advance width="1233"/>
  <unicode hex="00B0"/>
  <outline>
    <contour>
      <point x="613" y="854" type="curve" smooth="yes" name="dv01"/>
      <point x="518" y="854"/>
      <point x="437" y="889" name="sh01"/>
      <point x="378" y="948" type="curve" smooth="yes"/>
      <point x="315" y="1011" name="at01"/>
      <point x="283" y="1093"/>
      <point x="283" y="1185" type="curve" smooth="yes"/>
      <point x="283" y="1277"/>
      <point x="314" y="1360" name="sh02"/>
      <point x="378" y="1424" type="curve" smooth="yes"/>
      <point x="442" y="1488"/>
      <point x="524" y="1520"/>
      <point x="616" y="1520" type="curve" smooth="yes"/>
      <point x="661" y="1520" name="dv02"/>
      <point x="704" y="1512"/>
      <point x="744" y="1495" type="curve" smooth="yes" name="ah02"/>
      <point x="783" y="1479"/>
      <point x="821" y="1453" name="sv01"/>
      <point x="852" y="1422" type="curve" smooth="yes"/>
      <point x="883" y="1391" name="sh03"/>
      <point x="909" y="1350"/>
      <point x="924" y="1313" type="curve" smooth="yes"/>
      <point x="940" y="1274" name="ah01"/>
      <point x="948" y="1232" name="sh04"/>
      <point x="948" y="1188" type="curve" smooth="yes"/>
      <point x="948" y="1142"/>
      <point x="940" y="1099"/>
      <point x="923" y="1059" type="curve" smooth="yes"/>
      <point x="907" y="1020"/>
      <point x="884" y="984"/>
      <point x="852" y="952" type="curve" smooth="yes"/>
      <point x="821" y="921"/>
      <point x="782" y="896"/>
      <point x="743" y="880" type="curve" smooth="yes"/>
      <point x="702" y="863"/>
      <point x="660" y="854"/>
    </contour>
    <contour>
      <point x="614" y="1016" type="curve" smooth="yes"/>
      <point x="662" y="1016"/>
      <point x="703" y="1033"/>
      <point x="736" y="1066" type="curve" smooth="yes"/>
      <point x="769" y="1099"/>
      <point x="786" y="1140"/>
      <point x="786" y="1187" type="curve" smooth="yes"/>
      <point x="786" y="1235"/>
      <point x="770" y="1275"/>
      <point x="737" y="1308" type="curve" smooth="yes"/>
      <point x="704" y="1341"/>
      <point x="663" y="1358"/>
      <point x="616" y="1358" type="curve" smooth="yes"/>
      <point x="568" y="1358"/>
      <point x="527" y="1341"/>
      <point x="494" y="1308" type="curve" smooth="yes"/>
      <point x="461" y="1275"/>
      <point x="444" y="1234"/>
      <point x="444" y="1185" type="curve" smooth="yes"/>
      <point x="444" y="1138"/>
      <point x="460" y="1098"/>
      <point x="493" y="1065" type="curve" smooth="yes"/>
      <point x="526" y="1032"/>
      <point x="566" y="1016"/>
    </contour>
  </outline>
</glyph>
<glyph name="twosuperior" format="1">
  <advance width="1233"/>
  <unicode hex="00B2"/>
  <outline>
    <contour>
      <point x="289" y="1261" type="line" name="hr00"/>
      <point x="380" y="1328"/>
      <point x="367" y="1317" name="dh01"/>
      <point x="431" y="1363" type="curve" smooth="yes"/>
      <point x="722" y="1571" name="dv03"/>
      <point x="831" y="1681"/>
      <point x="831" y="1746" type="curve" smooth="yes"/>
      <point x="831" y="1767"/>
      <point x="819" y="1793"/>
      <point x="795" y="1810" type="curve" smooth="yes" name="dv04"/>
      <point x="772" y="1826"/>
      <point x="737" y="1834" name="dh02"/>
      <point x="691" y="1834" type="curve" smooth="yes"/>
      <point x="651" y="1834"/>
      <point x="604" y="1828" name="dv02"/>
      <point x="555" y="1816" type="curve" smooth="yes" name="dv01"/>
      <point x="504" y="1804"/>
      <point x="451" y="1786"/>
      <point x="403" y="1763" type="curve" name="sh01"/>
      <point x="434" y="1925" type="line"/>
      <point x="485" y="1940"/>
      <point x="534" y="1952"/>
      <point x="583" y="1960" type="curve" smooth="yes"/>
      <point x="632" y="1968"/>
      <point x="680" y="1972"/>
      <point x="728" y="1972" type="curve" smooth="yes"/>
      <point x="820" y="1972"/>
      <point x="894" y="1957"/>
      <point x="950" y="1918" type="curve" smooth="yes"/>
      <point x="1005" y="1879"/>
      <point x="1028" y="1825"/>
      <point x="1028" y="1777" type="curve" smooth="yes"/>
      <point x="1028" y="1668"/>
      <point x="906" y="1541"/>
      <point x="618" y="1338" type="curve" smooth="yes"/>
      <point x="583" y="1313"/>
      <point x="607" y="1331"/>
      <point x="514" y="1265" type="curve"/>
      <point x="952" y="1265" type="line"/>
      <point x="924" y="1120" type="line"/>
      <point x="260" y="1120" type="line"/>
    </contour>
  </outline>
</glyph>
<glyph name="paragraph" format="1">
  <advance width="1233"/>
  <unicode hex="00B6"/>
  <outline>
    <contour>
      <point x="457" y="649" type="line" name="hr00"/>
      <point x="343" y="661"/>
      <point x="255" y="696"/>
      <point x="194" y="753" type="curve" smooth="yes"/>
      <point x="133" y="810" name="at01"/>
      <point x="102" y="882"/>
      <point x="102" y="986" type="curve" smooth="yes" name="av01"/>
      <point x="102" y="1123"/>
      <point x="156" y="1246" name="sv01"/>
      <point x="265" y="1346" type="curve" smooth="yes"/>
      <point x="373" y="1444" name="av02"/>
      <point x="509" y="1493"/>
      <point x="672" y="1493" type="curve" smooth="yes"/>
      <point x="1190" y="1493" type="line"/>
      <point x="862" y="-197" type="line"/>
      <point x="672" y="-197" type="line"/>
      <point x="973" y="1346" type="line"/>
      <point x="782" y="1346" type="line"/>
      <point x="483" y="-197" type="line"/>
      <point x="293" y="-197" type="line"/>
    </contour>
  </outline>
</glyph>
<glyph name="ordmasculine" format="1">
  <advance width="1233"/>
  <unicode hex="00BA"/>
  <outline>
    <contour>
      <point x="634" y="698" type="curve" smooth="yes" name="dv03"/>
      <point x="530" y="698"/>
      <point x="453" y="726" name="sh01"/>
      <point x="394" y="782" type="curve" smooth="yes"/>
      <point x="334" y="838" name="at01"/>
      <point x="307" y="914"/>
      <point x="307" y="1027" type="curve" smooth="yes" name="sh02"/>
      <point x="307" y="1164"/>
      <point x="347" y="1287"/>
      <point x="427" y="1380" type="curve" smooth="yes" name="dv04"/>
      <point x="506" y="1473"/>
      <point x="611" y="1520" name="ah02"/>
      <point x="740" y="1520" type="curve" smooth="yes"/>
      <point x="843" y="1520" name="sv01"/>
      <point x="923" y="1492"/>
      <point x="981" y="1436" type="curve" smooth="yes" name="sh03"/>
      <point x="1038" y="1380"/>
      <point x="1067" y="1307"/>
      <point x="1067" y="1191" type="curve" smooth="yes"/>
      <point x="1067" y="1058" name="dv02"/>
      <point x="1028" y="934" name="dv01"/>
      <point x="948" y="838" type="curve"/>
      <point x="865" y="741" name="ah01"/>
      <point x="761" y="698" name="sh04"/>
    </contour>
    <contour>
      <point x="649" y="862" type="curve" smooth="yes"/>
      <point x="709" y="862"/>
      <point x="760" y="898"/>
      <point x="796" y="957" type="curve" smooth="yes"/>
      <point x="836" y="1022"/>
      <point x="856" y="1108"/>
      <point x="856" y="1188" type="curve" smooth="yes"/>
      <point x="856" y="1239"/>
      <point x="849" y="1284"/>
      <point x="822" y="1315" type="curve" smooth="yes"/>
      <point x="799" y="1342"/>
      <point x="765" y="1356"/>
      <point x="728" y="1356" type="curve" smooth="yes"/>
      <point x="667" y="1356"/>
      <point x="616" y="1320"/>
      <point x="580" y="1261" type="curve" smooth="yes"/>
      <point x="537" y="1193"/>
      <point x="520" y="1105"/>
      <point x="520" y="1032" type="curve" smooth="yes"/>
      <point x="520" y="969"/>
      <point x="533" y="932"/>
      <point x="554" y="905" type="curve"/>
      <point x="577" y="878"/>
      <point x="609" y="862"/>
    </contour>
    <contour>
      <point x="254" y="598" type="line"/>
      <point x="942" y="598" type="line"/>
      <point x="909" y="428" type="line"/>
      <point x="221" y="428" type="line"/>
    </contour>
  </outline>
</glyph>
<glyph name="otilde" format="1">
  <advance width="1233"/>
  <unicode hex="00F5"/>
  <outline>
    <contour>
      <point x="880" y="1299" type="curve" smooth="yes" name="sv02"/>
      <point x="853" y="1299"/>
      <point x="835" y="1303"/>
      <point x="812" y="1312" type="curve" smooth="yes"/>
      <point x="789" y="1321"/>
      <point x="766" y="1335"/>
      <point x="739" y="1356" type="curve" smooth="yes"/>
      <point x="690" y="1393" type="line" name="sv01"/>
      <point x="686" y="1397" name="sh03"/>
      <point x="688" y="1394"/>
      <point x="685" y="1397" type="curve" smooth="yes" name="av01"/>
      <point x="662" y="1414" name="av02"/>
      <point x="639" y="1430"/>
      <point x="612" y="1430" type="curve" smooth="yes"/>
      <point x="589" y="1430" name="sh04"/>
      <point x="569" y="1419"/>
      <point x="552" y="1396" type="curve" smooth="yes"/>
      <point x="535" y="1373" name="av03"/>
      <point x="523" y="1342"/>
      <point x="516" y="1301" type="curve"/>
      <point x="377" y="1301" type="line"/>
      <point x="390" y="1388" name="dv01"/>
      <point x="419" y="1457"/>
      <point x="464" y="1508" type="curve" smooth="yes" name="sh01"/>
      <point x="509" y="1559"/>
      <point x="565" y="1585" name="dv04"/>
      <point x="625" y="1585" type="curve" smooth="yes"/>
      <point x="648" y="1585" name="sh05"/>
      <point x="673" y="1581"/>
      <point x="692" y="1573" type="curve" smooth="yes"/>
      <point x="711" y="1565" name="dv02"/>
      <point x="737" y="1547"/>
      <point x="768" y="1524" type="curve" smooth="yes" name="ah02"/>
      <point x="819" y="1485" type="line" smooth="yes"/>
      <point x="832" y="1474" name="dv03"/>
      <point x="844" y="1467"/>
      <point x="856" y="1462" type="curve" smooth="yes" name="sh02"/>
      <point x="868" y="1457"/>
      <point x="878" y="1454"/>
      <point x="890" y="1454" type="curve" smooth="yes" name="ah01"/>
      <point x="917" y="1454" name="sh06"/>
      <point x="937" y="1467"/>
      <point x="953" y="1488" type="curve" smooth="yes"/>
      <point x="970" y="1510"/>
      <point x="982" y="1542"/>
      <point x="989" y="1583" type="curve"/>
      <point x="1128" y="1583" type="line"/>
      <point x="1113" y="1490"/>
      <point x="1085" y="1419"/>
      <point x="1043" y="1371" type="curve" smooth="yes"/>
      <point x="1001" y="1323"/>
      <point x="947" y="1299"/>
    </contour>
    <contour>
      <point x="543" y="-29" type="curve" smooth="yes"/>
      <point x="391" y="-29"/>
      <point x="280" y="20"/>
      <point x="208" y="91" type="curve" smooth="yes"/>
      <point x="123" y="175"/>
      <point x="88" y="293"/>
      <point x="88" y="442" type="curve" smooth="yes"/>
      <point x="88" y="631"/>
      <point x="143" y="814"/>
      <point x="254" y="949" type="curve" smooth="yes"/>
      <point x="361" y="1078"/>
      <point x="509" y="1149"/>
      <point x="689" y="1149" type="curve" smooth="yes"/>
      <point x="822" y="1149"/>
      <point x="942" y="1110"/>
      <point x="1025" y="1030" type="curve"/>
      <point x="1109" y="947"/>
      <point x="1145" y="828"/>
      <point x="1145" y="676" type="curve" smooth="yes"/>
      <point x="1145" y="483"/>
      <point x="1088" y="302"/>
      <point x="980" y="171" type="curve" smooth="yes"/>
      <point x="867" y="34"/>
      <point x="715" y="-29"/>
    </contour>
    <contour>
      <point x="563" y="207" type="curve" smooth="yes"/>
      <point x="640" y="207"/>
      <point x="711" y="251"/>
      <point x="767" y="343" type="curve" smooth="yes"/>
      <point x="818" y="427"/>
      <point x="850" y="544"/>
      <point x="850" y="672" type="curve" smooth="yes"/>
      <point x="850" y="764"/>
      <point x="833" y="817"/>
      <point x="804" y="853" type="curve" smooth="yes"/>
      <point x="769" y="896"/>
      <point x="720" y="911"/>
      <point x="672" y="911" type="curve" smooth="yes"/>
      <point x="589" y="911"/>
      <point x="521" y="866"/>
      <point x="466" y="776" type="curve"/>
      <point x="410" y="679"/>
      <point x="383" y="556"/>
      <point x="383" y="448" type="curve" smooth="yes"/>
      <point x="383" y="377"/>
      <point x="394" y="312"/>
      <point x="431" y="267" type="curve" smooth="yes"/>
      <point x="459" y="232"/>
      <point x="503" y="207"/>
    </contour>
  </outline>
</glyph>
<glyph name="ydieresis" format="1">
  <advance width="1233"/>
  <unicode hex="00FF"/>
  <outline>
    <contour>
      <point x="484" y="1320" type="line" smooth="yes" name="sv01"/>
      <point x="464" y="1320"/>
      <point x="453" y="1333"/>
      <point x="457" y="1353" type="curve" smooth="yes" name="at03"/>
      <point x="493" y="1539" type="line" smooth="yes"/>
      <point x="496" y="1557"/>
      <point x="506" y="1566"/>
      <point x="525" y="1566" type="curve" smooth="yes"/>
      <point x="702" y="1566" type="line" smooth="yes"/>
      <point x="720" y="1566" name="sv02"/>
      <point x="729" y="1558"/>
      <point x="729" y="1542" type="curve" smooth="yes"/>
      <point x="729" y="1534" name="at04"/>
      <point x="728" y="1536"/>
      <point x="728" y="1533" type="curve"/>
      <point x="691" y="1347" type="line" smooth="yes"/>
      <point x="688" y="1329"/>
      <point x="677" y="1320" name="sv03"/>
      <point x="659" y="1320" type="curve" smooth="yes" name="sv04"/>
    </contour>
    <contour>
      <point x="879" y="1320" type="line" smooth="yes"/>
      <point x="859" y="1320"/>
      <point x="848" y="1333"/>
      <point x="852" y="1353" type="curve" smooth="yes"/>
      <point x="888" y="1539" type="line" smooth="yes" name="at01"/>
      <point x="891" y="1557"/>
      <point x="901" y="1566" name="iv01"/>
      <point x="920" y="1566" type="curve" smooth="yes" name="at02"/>
      <point x="1098" y="1566" type="line" smooth="yes" name="iv02"/>
      <point x="1116" y="1566"/>
      <point x="1125" y="1558"/>
      <point x="1125" y="1542" type="curve" smooth="yes" name="ab01"/>
      <point x="1125" y="1534"/>
      <point x="1124" y="1536"/>
      <point x="1124" y="1533" type="curve"/>
      <point x="1087" y="1347" type="line" smooth="yes"/>
      <point x="1084" y="1329"/>
      <point x="1073" y="1320"/>
      <point x="1055" y="1320" type="curve" smooth="yes"/>
    </contour>
    <contour>
      <point x="-20" y="-201" type="line"/>
      <point x="97" y="-201" type="line" smooth="yes"/>
      <point x="157" y="-201"/>
      <point x="203" y="-191"/>
      <point x="234" y="-171" type="curve" smooth="yes"/>
      <point x="266" y="-151"/>
      <point x="304" y="-105"/>
      <point x="344" y="-29" type="curve" smooth="yes"/>
      <point x="383" y="45" type="line"/>
      <point x="166" y="1120" type="line"/>
      <point x="463" y="1120" type="line"/>
      <point x="590" y="420" type="line"/>
      <point x="973" y="1120" type="line"/>
      <point x="1282" y="1120" type="line"/>
      <point x="576" y="-121" type="line" smooth="yes"/>
      <point x="501" y="-252"/>
      <point x="440" y="-333"/>
      <point x="383" y="-372" type="curve" smooth="yes"/>
      <point x="332" y="-407"/>
      <point x="259" y="-424"/>
      <point x="175" y="-424" type="curve" smooth="yes"/>
      <point x="-65" y="-424" type="line"/>
    </contour>
  </outline>
</glyph>
<glyph name="Aogonek" format="1">
  <advance width="1233"/>
  <unicode hex="0104"/>
  <outline>
    <contour>
      <point x="785" y="-182" type="curve" smooth="yes" name="hr00"/>
      <point x="785" y="-221" name="dv02"/>
      <point x="816" y="-254"/>
      <point x="885" y="-254" type="curve" smooth="yes"/>
      <point x="921" y="-254" name="dv01"/>
      <point x="978" y="-246"/>
      <point x="1041" y="-223" type="curve" name="ab01"/>
      <point x="1010" y="-379" type="line"/>
      <point x="945" y="-394" name="dv03"/>
      <point x="882" y="-401"/>
      <point x="831" y="-401" type="curve" smooth="yes" name="ab02"/>
      <point x="694" y="-401"/>
      <point x="611" y="-350" name="at01"/>
      <point x="611" y="-255" type="curve" smooth="yes"/>
      <point x="611" y="-183" name="ab03"/>
      <point x="659" y="-95"/>
      <point x="767" y="0" type="curve"/>
      <point x="762" y="0" type="line"/>
      <point x="748" y="369" type="line" name="dv04"/>
      <point x="348" y="369" type="line"/>
      <point x="186" y="0" type="line"/>
      <point x="-113" y="0" type="line"/>
      <point x="582" y="1493" type="line"/>
      <point x="942" y="1493" type="line"/>
      <point x="1055" y="0" type="line"/>
      <point x="908" y="0" type="line"/>
      <point x="858" y="-53"/>
      <point x="825" y="-92"/>
      <point x="809" y="-117" type="curve" smooth="yes"/>
      <point x="793" y="-142"/>
      <point x="785" y="-162"/>
    </contour>
    <contour>
      <point x="737" y="612" type="line"/>
      <point x="717" y="1219" type="line"/>
      <point x="453" y="612" type="line"/>
    </contour>
  </outline>
</glyph>
<glyph name="dcaron" format="1">
  <advance width="1233"/>
  <unicode hex="010F"/>
  <outline>
    <contour>
      <point x="382" y="-29" type="curve" smooth="yes" name="sv02"/>
      <point x="187" y="-29" name="dh01"/>
      <point x="66" y="122"/>
      <point x="66" y="393" type="curve" smooth="yes" name="dv02"/>
      <point x="66" y="564" name="iv01"/>
      <point x="115" y="744" name="at01"/>
      <point x="185" y="873" type="curve" smooth="yes"/>
      <point x="282" y="1054" name="ab01"/>
      <point x="423" y="1149"/>
      <point x="579" y="1149" type="curve" smooth="yes" name="sh01"/>
      <point x="733" y="1149"/>
      <point x="835" y="1054" name="at02"/>
      <point x="854" y="911" type="curve"/>
      <point x="979" y="1556" type="line" name="sv03"/>
      <point x="1272" y="1556" type="line"/>
      <point x="969" y="0" type="line" name="sv01"/>
      <point x="707" y="0" type="line" name="sh02"/>
      <point x="709" y="166" type="line" name="dv01"/>
      <point x="621" y="37" name="dh02"/>
      <point x="511" y="-29"/>
    </contour>
    <contour>
      <point x="1333" y="1556" type="line"/>
      <point x="1654" y="1556" type="line"/>
      <point x="1397" y="1180" type="line"/>
      <point x="1200" y="1180" type="line"/>
    </contour>
    <contour>
      <point x="513" y="211" type="curve" smooth="yes"/>
      <point x="681" y="211"/>
      <point x="799" y="445"/>
      <point x="799" y="667" type="curve" smooth="yes"/>
      <point x="799" y="831"/>
      <point x="734" y="909"/>
      <point x="639" y="909" type="curve" smooth="yes"/>
      <point x="471" y="909"/>
      <point x="362" y="663"/>
      <point x="362" y="443" type="curve" smooth="yes"/>
      <point x="362" y="282"/>
      <point x="421" y="211"/>
    </contour>
  </outline>
</glyph>
<glyph name="edotaccent" format="1">
  <advance width="1233"/>
  <unicode hex="0117"/>
  <outline>
    <contour>
      <point x="636" y="1349" type="line" smooth="yes" name="dv03"/>
      <point x="615" y="1349"/>
      <point x="606" y="1362"/>
      <point x="610" y="1382" type="curve" smooth="yes" name="dv04"/>
      <point x="647" y="1568" type="line" smooth="yes" name="sh01"/>
      <point x="650" y="1586"/>
      <point x="660" y="1595" name="sh02"/>
      <point x="679" y="1595" type="curve" smooth="yes"/>
      <point x="891" y="1595" type="line" smooth="yes" name="dv01"/>
      <point x="911" y="1595" name="sh03"/>
      <point x="922" y="1582"/>
      <point x="918" y="1562" type="curve" smooth="yes" name="dv07"/>
      <point x="882" y="1376" type="line" smooth="yes" name="sh04"/>
      <point x="879" y="1358" name="dv05"/>
      <point x="868" y="1349" name="sh06"/>
      <point x="850" y="1349" type="curve" smooth="yes" name="sh05"/>
    </contour>
    <contour>
      <point x="586" y="-29" type="curve" smooth="yes" name="dv02"/>
      <point x="249" y="-29" name="ih01"/>
      <point x="76" y="127"/>
      <point x="76" y="440" type="curve" smooth="yes"/>
      <point x="76" y="621" name="sh07"/>
      <point x="135" y="805" name="ah02"/>
      <point x="244" y="938" type="curve" smooth="yes" name="dv06"/>
      <point x="357" y="1075"/>
      <point x="513" y="1149" name="ah01"/>
      <point x="696" y="1149" type="curve" smooth="yes" name="sh08"/>
      <point x="972" y="1149"/>
      <point x="1155" y="975"/>
      <point x="1155" y="708" type="curve" smooth="yes"/>
      <point x="1155" y="652"/>
      <point x="1147" y="577"/>
      <point x="1128" y="465" type="curve"/>
      <point x="369" y="465" type="line"/>
      <point x="365" y="442"/>
      <point x="363" y="423"/>
      <point x="362" y="403" type="curve"/>
      <point x="362" y="270"/>
      <point x="451" y="203"/>
      <point x="630" y="203" type="curve" smooth="yes"/>
      <point x="771" y="203"/>
      <point x="919" y="244"/>
      <point x="1044" y="324" type="curve"/>
      <point x="993" y="55" type="line"/>
      <point x="865" y="-1"/>
      <point x="727" y="-29"/>
    </contour>
    <contour>
      <point x="876" y="684" type="line"/>
      <point x="881" y="702"/>
      <point x="883" y="720"/>
      <point x="883" y="739" type="curve" smooth="yes"/>
      <point x="883" y="851"/>
      <point x="812" y="920"/>
      <point x="689" y="920" type="curve" smooth="yes"/>
      <point x="560" y="920"/>
      <point x="463" y="841"/>
      <point x="410" y="684" type="curve"/>
    </contour>
  </outline>
</glyph>
<glyph name="Iogonek" format="1">
  <advance width="1233"/>
  <unicode hex="012E"/>
  <outline>
    <contour>
      <point x="858" y="1233" type="line" name="sv01"/>
      <point x="670" y="260" type="line" name="sv02"/>
      <point x="967" y="260" type="line" name="sv03"/>
      <point x="915" y="0" type="line" name="ab01"/>
      <point x="618" y="0" type="line"/>
      <point x="568" y="-53"/>
      <point x="535" y="-92" name="dh02"/>
      <point x="519" y="-117" type="curve" smooth="yes" name="dv02"/>
      <point x="503" y="-142"/>
      <point x="495" y="-162"/>
      <point x="495" y="-182" type="curve" smooth="yes" name="dv01"/>
      <point x="495" y="-221" name="dh01"/>
      <point x="526" y="-254" name="ih01"/>
      <point x="595" y="-254" type="curve" smooth="yes"/>
      <point x="631" y="-254" name="sv04"/>
      <point x="688" y="-246" name="sv05"/>
      <point x="751" y="-223" type="curve" name="sv06"/>
      <point x="720" y="-379" type="line" name="sv07"/>
      <point x="655" y="-394" name="sh01"/>
      <point x="592" y="-401"/>
      <point x="541" y="-401" type="curve" smooth="yes"/>
      <point x="404" y="-401"/>
      <point x="321" y="-350"/>
      <point x="321" y="-255" type="curve" smooth="yes"/>
      <point x="321" y="-183"/>
      <point x="369" y="-95"/>
      <point x="477" y="0" type="curve"/>
      <point x="27" y="0" type="line"/>
      <point x="78" y="260" type="line"/>
      <point x="375" y="260" type="line"/>
      <point x="563" y="1233" type="line"/>
      <point x="266" y="1233" type="line"/>
      <point x="317" y="1493" type="line"/>
      <point x="1206" y="1493" type="line"/>
      <point x="1155" y="1233" type="line"/>
    </contour>
  </outline>
</glyph>
<glyph name="iogonek" format="1">
  <advance width="1233"/>
  <unicode hex="012F"/>
  <outline>
    <contour>
      <point x="544" y="1323" type="line" smooth="yes" name="dv03"/>
      <point x="523" y="1323"/>
      <point x="513" y="1336"/>
      <point x="517" y="1356" type="curve" smooth="yes" name="dv04"/>
      <point x="573" y="1638" type="line" smooth="yes"/>
      <point x="576" y="1656"/>
      <point x="586" y="1665"/>
      <point x="605" y="1665" type="curve" smooth="yes"/>
      <point x="838" y="1665" type="line" smooth="yes" name="ab01"/>
      <point x="859" y="1665"/>
      <point x="869" y="1652" name="dh02"/>
      <point x="865" y="1632" type="curve" smooth="yes" name="dv02"/>
      <point x="809" y="1350" type="line" smooth="yes"/>
      <point x="806" y="1332"/>
      <point x="795" y="1323" name="dv01"/>
      <point x="777" y="1323" type="curve" smooth="yes" name="dh01"/>
    </contour>
    <contour>
      <point x="823" y="-8" type="line" name="ih01"/>
      <point x="779" y="-55"/>
      <point x="749" y="-91"/>
      <point x="733" y="-115" type="curve" smooth="yes"/>
      <point x="717" y="-140"/>
      <point x="709" y="-160" name="sv01"/>
      <point x="709" y="-180" type="curve" smooth="yes"/>
      <point x="709" y="-219" name="at01"/>
      <point x="740" y="-252"/>
      <point x="809" y="-252" type="curve" smooth="yes"/>
      <point x="845" y="-252"/>
      <point x="902" y="-244"/>
      <point x="965" y="-221" type="curve"/>
      <point x="934" y="-377" type="line" name="sv02"/>
      <point x="869" y="-392"/>
      <point x="806" y="-399"/>
      <point x="755" y="-399" type="curve" smooth="yes"/>
      <point x="618" y="-399"/>
      <point x="535" y="-348"/>
      <point x="535" y="-253" type="curve" smooth="yes"/>
      <point x="535" y="-182"/>
      <point x="580" y="-99"/>
      <point x="680" y="-8" type="curve"/>
      <point x="559" y="-4"/>
      <point x="479" y="14"/>
      <point x="427" y="49" type="curve" smooth="yes"/>
      <point x="364" y="90"/>
      <point x="342" y="152"/>
      <point x="342" y="229" type="curve" smooth="yes"/>
      <point x="342" y="252"/>
      <point x="344" y="269"/>
      <point x="347" y="292" type="curve" smooth="yes"/>
      <point x="350" y="308"/>
      <point x="354" y="339"/>
      <point x="361" y="371" type="curve" smooth="yes"/>
      <point x="481" y="895" type="line"/>
      <point x="245" y="895" type="line"/>
      <point x="288" y="1120" type="line"/>
      <point x="816" y="1120" type="line"/>
      <point x="650" y="357" type="line"/>
      <point x="642" y="325"/>
      <point x="647" y="333"/>
      <point x="644" y="321" type="curve" smooth="yes"/>
      <point x="641" y="310"/>
      <point x="641" y="303"/>
      <point x="641" y="295" type="curve" smooth="yes"/>
      <point x="641" y="272"/>
      <point x="649" y="251"/>
      <point x="672" y="236" type="curve" smooth="yes"/>
      <point x="693" y="223"/>
      <point x="729" y="217"/>
      <point x="781" y="217" type="curve" smooth="yes"/>
      <point x="1059" y="217" type="line"/>
      <point x="1014" y="-8" type="line"/>
    </contour>
  </outline>
</glyph>
<glyph name="Omacron" format="1">
  <advance width="1233"/>
  <unicode hex="014C"/>
  <outline>
    <contour>
      <point x="509" y="1850" type="line" name="hr00"/>
      <point x="1140" y="1850" type="line" name="dv04"/>
      <point x="1104" y="1662" type="line" name="dv03"/>
      <point x="473" y="1662" type="line"/>
    </contour>
    <contour>
      <point x="497" y="-29" type="curve" smooth="yes" name="dv01"/>
      <point x="214" y="-29" name="sh01"/>
      <point x="61" y="139"/>
      <point x="61" y="482" type="curve" smooth="yes" name="at01"/>
      <point x="61" y="728" name="sh02"/>
      <point x="139" y="1045"/>
      <point x="246" y="1229" type="curve"/>
      <point x="355" y="1421" name="dv02"/>
      <point x="515" y="1520"/>
      <point x="735" y="1520" type="curve" smooth="yes"/>
      <point x="1016" y="1520" name="ah02"/>
      <point x="1171" y="1354" name="sv01"/>
      <point x="1171" y="1011" type="curve" smooth="yes"/>
      <point x="1171" y="784"/>
      <point x="1103" y="463" name="sh03"/>
      <point x="989" y="264" type="curve" smooth="yes"/>
      <point x="880" y="72" name="ah01"/>
      <point x="718" y="-29" name="sh04"/>
    </contour>
    <contour>
      <point x="528" y="233" type="curve" smooth="yes"/>
      <point x="612" y="233"/>
      <point x="670" y="281"/>
      <point x="719" y="373" type="curve" smooth="yes"/>
      <point x="752" y="434"/>
      <point x="782" y="517"/>
      <point x="810" y="630" type="curve" smooth="yes"/>
      <point x="842" y="763"/>
      <point x="868" y="916"/>
      <point x="868" y="1024" type="curve" smooth="yes"/>
      <point x="868" y="1181"/>
      <point x="814" y="1260"/>
      <point x="705" y="1260" type="curve" smooth="yes"/>
      <point x="618" y="1260"/>
      <point x="562" y="1211"/>
      <point x="514" y="1119" type="curve"/>
      <point x="483" y="1062"/>
      <point x="453" y="981"/>
      <point x="422" y="861" type="curve" smooth="yes"/>
      <point x="382" y="702"/>
      <point x="365" y="537"/>
      <point x="365" y="458" type="curve" smooth="yes"/>
      <point x="365" y="315"/>
      <point x="417" y="233"/>
    </contour>
  </outline>
</glyph>
<glyph name="utilde" format="1">
  <advance width="1233"/>
  <unicode hex="0169"/>
  <outline>
    <contour>
      <point x="892" y="1270" type="curve" smooth="yes" name="dv01"/>
      <point x="839" y="1270"/>
      <point x="803" y="1286"/>
      <point x="749" y="1327" type="curve" smooth="yes"/>
      <point x="700" y="1364" type="line" name="sv01"/>
      <point x="695" y="1368" type="line" smooth="yes" name="sv02"/>
      <point x="667" y="1390"/>
      <point x="643" y="1401" name="at03"/>
      <point x="622" y="1401" type="curve" smooth="yes"/>
      <point x="577" y="1401"/>
      <point x="539" y="1352" name="dv02"/>
      <point x="526" y="1272" type="curve" name="at04"/>
      <point x="387" y="1272" type="line"/>
      <point x="411" y="1445"/>
      <point x="510" y="1556" name="sv04"/>
      <point x="638" y="1556" type="curve" smooth="yes" name="dh01"/>
      <point x="687" y="1556"/>
      <point x="716" y="1540" name="at01"/>
      <point x="778" y="1495" type="curve"/>
      <point x="829" y="1456" type="line" smooth="yes"/>
      <point x="856" y="1435" name="dh02"/>
      <point x="880" y="1425" name="sv03"/>
      <point x="901" y="1425" type="curve" smooth="yes"/>
      <point x="952" y="1425" name="at02"/>
      <point x="987" y="1474"/>
      <point x="999" y="1554" type="curve" name="ab01"/>
      <point x="1138" y="1554" type="line"/>
      <point x="1107" y="1367" name="sh01"/>
      <point x="1024" y="1270"/>
    </contour>
    <contour>
      <point x="368" y="-29" type="curve" smooth="yes"/>
      <point x="204" y="-29"/>
      <point x="106" y="67"/>
      <point x="106" y="244" type="curve" smooth="yes"/>
      <point x="106" y="283"/>
      <point x="111" y="327"/>
      <point x="123" y="391" type="curve" smooth="yes"/>
      <point x="266" y="1120" type="line"/>
      <point x="557" y="1120" type="line"/>
      <point x="426" y="436" type="line" smooth="yes"/>
      <point x="419" y="400"/>
      <point x="416" y="362"/>
      <point x="416" y="338" type="curve" smooth="yes"/>
      <point x="416" y="251"/>
      <point x="456" y="211"/>
      <point x="528" y="211" type="curve" smooth="yes"/>
      <point x="635" y="211"/>
      <point x="715" y="298"/>
      <point x="752" y="489" type="curve" smooth="yes"/>
      <point x="874" y="1120" type="line"/>
      <point x="1165" y="1120" type="line"/>
      <point x="948" y="0" type="line"/>
      <point x="684" y="0" type="line"/>
      <point x="688" y="166" type="line"/>
      <point x="628" y="45"/>
      <point x="513" y="-29"/>
    </contour>
  </outline>
</glyph>
<glyph name="uring" format="1">
  <advance width="1233"/>
  <unicode hex="016F"/>
  <outline>
    <contour>
      <point x="737" y="1254" type="curve" smooth="yes" name="dv03"/>
      <point x="579" y="1254" name="dh03"/>
      <point x="453" y="1382" name="dv02"/>
      <point x="453" y="1539" type="curve" smooth="yes" name="dh06"/>
      <point x="453" y="1696"/>
      <point x="579" y="1824" name="dv04"/>
      <point x="737" y="1824" type="curve" smooth="yes" name="dh05"/>
      <point x="894" y="1824" name="dv01"/>
      <point x="1022" y="1696" name="dh04"/>
      <point x="1022" y="1539" type="curve" smooth="yes"/>
      <point x="1022" y="1382" name="sv02"/>
      <point x="894" y="1254" name="dh01"/>
    </contour>
    <contour>
      <point x="737" y="1408" type="curve" smooth="yes"/>
      <point x="809" y="1408" name="at01"/>
      <point x="869" y="1467"/>
      <point x="869" y="1539" type="curve" smooth="yes"/>
      <point x="869" y="1611" name="dh02"/>
      <point x="809" y="1670" name="sv01"/>
      <point x="737" y="1670" type="curve" smooth="yes"/>
      <point x="665" y="1670" name="at02"/>
      <point x="606" y="1611"/>
      <point x="606" y="1539" type="curve" smooth="yes" name="ab01"/>
      <point x="606" y="1466"/>
      <point x="665" y="1408" name="ih01"/>
    </contour>
    <contour>
      <point x="368" y="-29" type="curve" smooth="yes"/>
      <point x="204" y="-29"/>
      <point x="106" y="67" name="sh01"/>
      <point x="106" y="244" type="curve" smooth="yes"/>
      <point x="106" y="283"/>
      <point x="111" y="327"/>
      <point x="123" y="391" type="curve" smooth="yes"/>
      <point x="266" y="1120" type="line"/>
      <point x="557" y="1120" type="line"/>
      <point x="426" y="436" type="line" smooth="yes"/>
      <point x="419" y="400"/>
      <point x="416" y="362"/>
      <point x="416" y="338" type="curve" smooth="yes"/>
      <point x="416" y="251"/>
      <point x="456" y="211"/>
      <point x="528" y="211" type="curve" smooth="yes"/>
      <point x="635" y="211"/>
      <point x="715" y="298"/>
      <point x="752" y="489" type="curve" smooth="yes"/>
      <point x="874" y="1120" type="line"/>
      <point x="1165" y="1120" type="line"/>
      <point x="948" y="0" type="line"/>
      <point x="684" y="0" type="line"/>
      <point x="688" y="166" type="line"/>
      <point x="628" y="45"/>
      <point x="513" y="-29"/>
    </contour>
  </outline>
</glyph>
<glyph name="Uhungarumlaut" format="1">
  <advance width="1233"/>
  <unicode hex="0170"/>
  <outline>
    <contour>
      <point x="687" y="1852" type="line" name="dv04"/>
      <point x="971" y="1852" type="line"/>
      <point x="634" y="1588" type="line" name="dv03"/>
      <point x="437" y="1588" type="line"/>
    </contour>
    <contour>
      <point x="1062" y="1852" type="line" name="sv01"/>
      <point x="1346" y="1852" type="line"/>
      <point x="1009" y="1588" type="line" name="sv02"/>
      <point x="812" y="1588" type="line"/>
    </contour>
    <contour>
      <point x="492" y="-29" type="curve" smooth="yes" name="dv01"/>
      <point x="209" y="-29" name="dh01"/>
      <point x="45" y="107"/>
      <point x="45" y="359" type="curve" smooth="yes" name="at01"/>
      <point x="45" y="411"/>
      <point x="52" y="471" name="sh01"/>
      <point x="68" y="551" type="curve" smooth="yes" name="sh02"/>
      <point x="252" y="1493" type="line" name="dh02"/>
      <point x="547" y="1493" type="line" name="dv02"/>
      <point x="348" y="477" type="line"/>
      <point x="348" y="475" name="at02"/>
      <point x="348" y="473"/>
      <point x="347" y="471" type="curve"/>
      <point x="342" y="440"/>
      <point x="340" y="418"/>
      <point x="340" y="399" type="curve" smooth="yes"/>
      <point x="340" y="294"/>
      <point x="402" y="231"/>
      <point x="522" y="231" type="curve" smooth="yes"/>
      <point x="655" y="231"/>
      <point x="745" y="309"/>
      <point x="778" y="477" type="curve" smooth="yes"/>
      <point x="977" y="1493" type="line"/>
      <point x="1272" y="1493" type="line"/>
      <point x="1087" y="551" type="line" smooth="yes"/>
      <point x="1042" y="322"/>
      <point x="997" y="208"/>
      <point x="909" y="123" type="curve"/>
      <point x="809" y="24"/>
      <point x="672" y="-29"/>
    </contour>
  </outline>
</glyph>
<glyph name="ohorn" format="1">
  <advance width="1233"/>
  <unicode hex="01A1"/>
  <outline>
    <contour>
      <point x="1294" y="1167" type="line" name="av01"/>
      <point x="1294" y="1094"/>
      <point x="1290" y="1033" name="sh02"/>
      <point x="1279" y="977" type="curve" smooth="yes" name="sh01"/>
      <point x="1252" y="848" name="dv01"/>
      <point x="1191" y="767" name="sh03"/>
      <point x="1102" y="744" type="curve" name="dv04"/>
      <point x="1105" y="719"/>
      <point x="1106" y="693"/>
      <point x="1106" y="665" type="curve" smooth="yes"/>
      <point x="1106" y="300"/>
      <point x="886" y="-29" name="dv02"/>
      <point x="494" y="-29" type="curve" smooth="yes" name="ah02"/>
      <point x="219" y="-29" name="dv03"/>
      <point x="49" y="134" name="sh04"/>
      <point x="49" y="454" type="curve" smooth="yes"/>
      <point x="49" y="818" name="ah01"/>
      <point x="269" y="1149" name="sh05"/>
      <point x="661" y="1149" type="curve" smooth="yes"/>
      <point x="856" y="1149"/>
      <point x="995" y="1070"/>
      <point x="1063" y="909" type="curve"/>
      <point x="1096" y="922"/>
      <point x="1126" y="955"/>
      <point x="1138" y="1011" type="curve" smooth="yes"/>
      <point x="1143" y="1035"/>
      <point x="1146" y="1066"/>
      <point x="1146" y="1090" type="curve" smooth="yes"/>
      <point x="1146" y="1113"/>
      <point x="1143" y="1138"/>
      <point x="1138" y="1167" type="curve"/>
    </contour>
    <contour>
      <point x="518" y="207" type="curve" smooth="yes"/>
      <point x="698" y="207"/>
      <point x="811" y="440"/>
      <point x="811" y="664" type="curve" smooth="yes"/>
      <point x="811" y="835"/>
      <point x="745" y="911"/>
      <point x="640" y="911" type="curve" smooth="yes"/>
      <point x="450" y="911"/>
      <point x="344" y="669"/>
      <point x="344" y="456" type="curve" smooth="yes"/>
      <point x="344" y="285"/>
      <point x="413" y="207"/>
    </contour>
  </outline>
</glyph>
<glyph name="gcaron" format="1">
  <advance width="1233"/>
  <unicode hex="01E7"/>
  <outline>
    <contour>
      <point x="414" y="1677" type="line" name="ih01"/>
      <point x="588" y="1677" type="line"/>
      <point x="741" y="1450" type="line"/>
      <point x="979" y="1677" type="line" name="av01"/>
      <point x="1169" y="1677" type="line"/>
      <point x="838" y="1301" type="line"/>
      <point x="596" y="1301" type="line"/>
    </contour>
    <contour>
      <point x="389" y="-424" type="curve" smooth="yes" name="ab01"/>
      <point x="252" y="-424"/>
      <point x="135" y="-404" name="ih02"/>
      <point x="18" y="-365" type="curve" name="sv01"/>
      <point x="72" y="-100" type="line"/>
      <point x="172" y="-160" name="ih03"/>
      <point x="284" y="-190" name="dv01"/>
      <point x="395" y="-190" type="curve" smooth="yes" name="dh01"/>
      <point x="571" y="-190"/>
      <point x="656" y="-113" name="dv04"/>
      <point x="688" y="51" type="curve" smooth="yes" name="iv01"/>
      <point x="715" y="184" type="line" name="at01"/>
      <point x="640" y="69"/>
      <point x="536" y="16"/>
      <point x="409" y="16" type="curve" smooth="yes"/>
      <point x="201" y="16" name="dv02"/>
      <point x="68" y="161" name="sh01"/>
      <point x="68" y="412" type="curve" smooth="yes" name="dv03"/>
      <point x="68" y="584" name="dh02"/>
      <point x="132" y="796"/>
      <point x="225" y="932" type="curve" smooth="yes"/>
      <point x="321" y="1071"/>
      <point x="459" y="1151"/>
      <point x="603" y="1151" type="curve" smooth="yes"/>
      <point x="742" y="1151"/>
      <point x="834" y="1075"/>
      <point x="862" y="938" type="curve"/>
      <point x="926" y="1120" type="line"/>
      <point x="1190" y="1120" type="line"/>
      <point x="987" y="84" type="line" smooth="yes"/>
      <point x="915" y="-285"/>
      <point x="749" y="-424"/>
    </contour>
    <contour>
      <point x="516" y="246" type="curve" smooth="yes"/>
      <point x="675" y="246"/>
      <point x="803" y="457"/>
      <point x="803" y="684" type="curve" smooth="yes"/>
      <point x="803" y="837"/>
      <point x="745" y="909"/>
      <point x="653" y="909" type="curve" smooth="yes"/>
      <point x="496" y="909"/>
      <point x="367" y="702"/>
      <point x="367" y="471" type="curve" smooth="yes"/>
      <point x="367" y="318"/>
      <point x="423" y="246"/>
    </contour>
  </outline>
</glyph>
<glyph name="uni0219" format="1">
  <advance width="1233"/>
  <unicode hex="0219"/>
  <outline>
    <contour>
      <point x="495" y="-29" type="curve" smooth="yes" name="sh03"/>
      <point x="362" y="-29"/>
      <point x="223" y="-6" name="iv01"/>
      <point x="90" y="41" type="curve" name="sh04"/>
      <point x="141" y="297" type="line" name="ah02"/>
      <point x="257" y="221"/>
      <point x="383" y="182"/>
      <point x="512" y="182" type="curve" smooth="yes"/>
      <point x="657" y="182" name="sh01"/>
      <point x="743" y="231" name="sh05"/>
      <point x="743" y="330" type="curve" smooth="yes"/>
      <point x="743" y="354" name="iv02"/>
      <point x="738" y="374" name="sv01"/>
      <point x="711" y="395" type="curve" smooth="yes" name="sh02"/>
      <point x="680" y="419"/>
      <point x="629" y="438"/>
      <point x="549" y="461" type="curve" smooth="yes"/>
      <point x="461" y="485" type="line" smooth="yes" name="sh06"/>
      <point x="304" y="528"/>
      <point x="225" y="623" name="sv02"/>
      <point x="225" y="769" type="curve" smooth="yes" name="ih01"/>
      <point x="225" y="997" name="ab01"/>
      <point x="417" y="1147"/>
      <point x="729" y="1147" type="curve" smooth="yes" name="ah01"/>
      <point x="846" y="1147" name="sh07"/>
      <point x="970" y="1126"/>
      <point x="1094" y="1085" type="curve"/>
      <point x="1044" y="831" type="line"/>
      <point x="941" y="904"/>
      <point x="819" y="938"/>
      <point x="708" y="938" type="curve" smooth="yes"/>
      <point x="573" y="938"/>
      <point x="498" y="889"/>
      <point x="498" y="810" type="curve" smooth="yes"/>
      <point x="498" y="779"/>
      <point x="510" y="755"/>
      <point x="535" y="737" type="curve"/>
      <point x="559" y="718"/>
      <point x="625" y="693"/>
      <point x="700" y="672" type="curve" smooth="yes"/>
      <point x="774" y="651" type="line" smooth="yes"/>
      <point x="939" y="604"/>
      <point x="1020" y="516"/>
      <point x="1020" y="359" type="curve" smooth="yes"/>
      <point x="1020" y="116"/>
      <point x="829" y="-29"/>
    </contour>
    <contour>
      <point x="284" y="-198" type="line"/>
      <point x="566" y="-198" type="line"/>
      <point x="330" y="-504" type="line"/>
      <point x="136" y="-504" type="line"/>
    </contour>
  </outline>
</glyph>
<glyph name="dotaccent" format="1">
  <advance width="1233"/>
  <unicode hex="02D9"/>
  <outline>
    <contour>
      <point x="627" y="1339" type="line" smooth="yes" name="dv01"/>
      <point x="609" y="1339"/>
      <point x="600" y="1347"/>
      <point x="600" y="1363" type="curve" smooth="yes"/>
      <point x="600" y="1367" name="dv02"/>
      <point x="600" y="1370"/>
      <point x="601" y="1372" type="curve" smooth="yes"/>
      <point x="638" y="1558" type="line" smooth="yes"/>
      <point x="641" y="1576" name="sv01"/>
      <point x="651" y="1585"/>
      <point x="670" y="1585" type="curve" smooth="yes"/>
      <point x="882" y="1585" type="line" smooth="yes"/>
      <point x="902" y="1585"/>
      <point x="913" y="1572"/>
      <point x="909" y="1552" type="curve" smooth="yes"/>
      <point x="873" y="1366" type="line" smooth="yes"/>
      <point x="870" y="1348"/>
      <point x="859" y="1339"/>
      <point x="841" y="1339" type="curve" smooth="yes"/>
    </contour>
  </outline>
</glyph>
<glyph name="uni0306" format="1">
  <advance width="0"/>
  <unicode hex="0306"/>
  <outline>
    <contour>
      <point x="-492" y="1309" type="curve" smooth="yes" name="dv01"/>
      <point x="-689" y="1309"/>
      <point x="-787" y="1397" name="dh01"/>
      <point x="-787" y="1573" type="curve" smooth="yes" name="sv01"/>
      <point x="-787" y="1606" type="line" name="dh02"/>
      <point x="-643" y="1606" type="line" name="dv02"/>
      <point x="-643" y="1593" type="line" smooth="yes" name="sv02"/>
      <point x="-643" y="1512"/>
      <point x="-580" y="1460"/>
      <point x="-479" y="1460" type="curve" smooth="yes"/>
      <point x="-371" y="1460"/>
      <point x="-289" y="1514"/>
      <point x="-256" y="1606" type="curve"/>
      <point x="-113" y="1606" type="line"/>
      <point x="-152" y="1415"/>
      <point x="-288" y="1309"/>
    </contour>
  </outline>
</glyph>
<glyph name="uni0310" format="1">
  <advance width="0"/>
  <unicode hex="0310"/>
  <outline>
    <contour>
      <point x="-77" y="1822" type="line" name="av01"/>
      <point x="-116" y="1631" name="dv01"/>
      <point x="-252" y="1525"/>
      <point x="-456" y="1525" type="curve" smooth="yes" name="av02"/>
      <point x="-653" y="1525"/>
      <point x="-751" y="1613" name="av03"/>
      <point x="-751" y="1789" type="curve" smooth="yes"/>
      <point x="-751" y="1822" type="line" name="dv02"/>
      <point x="-607" y="1822" type="line"/>
      <point x="-607" y="1809" type="line" smooth="yes" name="iv01"/>
      <point x="-607" y="1772"/>
      <point x="-595" y="1742"/>
      <point x="-570" y="1719" type="curve"/>
      <point x="-554" y="1801" type="line"/>
      <point x="-282" y="1801" type="line"/>
      <point x="-298" y="1718" type="line"/>
      <point x="-262" y="1743"/>
      <point x="-236" y="1777"/>
      <point x="-220" y="1822" type="curve"/>
    </contour>
  </outline>
</glyph>
<glyph name="uni0312" format="1">
  <advance width="0"/>
  <unicode hex="0312"/>
  <outline>
    <contour>
      <point x="-562" y="1209" type="line" name="dv02"/>
      <point x="-368" y="1209" type="line"/>
      <point x="-516" y="903" type="line" name="dv01"/>
      <point x="-798" y="903" type="line"/>
    </contour>
  </outline>
</glyph>
<glyph name="uni032F" format="1">
  <advance width="0"/>
  <unicode hex="032F"/>
  <outline>
    <contour>
      <point x="-1192" y="-489" type="line" name="sv01"/>
      <point x="-1147" y="-296" name="dv02"/>
      <point x="-1009" y="-192" name="dh02"/>
      <point x="-798" y="-192" type="curve" smooth="yes" name="sh01"/>
      <point x="-590" y="-192" name="dv01"/>
      <point x="-516" y="-294" name="dh01"/>
      <point x="-516" y="-425" type="curve" smooth="yes" name="sv02"/>
      <point x="-516" y="-445" name="sv03"/>
      <point x="-518" y="-466"/>
      <point x="-521" y="-489" type="curve"/>
      <point x="-662" y="-489" type="line"/>
      <point x="-662" y="-482" type="line" smooth="yes"/>
      <point x="-662" y="-397"/>
      <point x="-716" y="-345"/>
      <point x="-828" y="-345" type="curve" smooth="yes"/>
      <point x="-940" y="-345"/>
      <point x="-1016" y="-396"/>
      <point x="-1049" y="-489" type="curve"/>
    </contour>
  </outline>
</glyph>
<glyph name="Upsilontonos" format="1">
  <advance width="1233"/>
  <unicode hex="038E"/>
  <outline>
    <contour>
      <point x="427" y="534" type="line" smooth="yes" name="hr00"/>
      <point x="447" y="635" name="dh01"/>
      <point x="456" y="736"/>
      <point x="456" y="829" type="curve" smooth="yes" name="sv01"/>
      <point x="456" y="1020" name="sv02"/>
      <point x="418" y="1173" name="at01"/>
      <point x="358" y="1203" type="curve" smooth="yes" name="at02"/>
      <point x="310" y="1226" name="at03"/>
      <point x="260" y="1238" name="dh02"/>
      <point x="209" y="1238" type="curve" smooth="yes" name="at04"/>
      <point x="182" y="1238" name="at05"/>
      <point x="155" y="1235"/>
      <point x="127" y="1229" type="curve"/>
      <point x="178" y="1493" type="line" name="at07"/>
      <point x="203" y="1501" name="sv03"/>
      <point x="234" y="1504" name="iv01"/>
      <point x="269" y="1504" type="curve" smooth="yes"/>
      <point x="308" y="1504" name="ab01"/>
      <point x="354" y="1501"/>
      <point x="405" y="1490" type="curve" name="at06"/>
      <point x="581" y="1458" name="iv02"/>
      <point x="668" y="1314" name="at08"/>
      <point x="665" y="1057" type="curve" name="iv03"/>
      <point x="785" y="1308"/>
      <point x="928" y="1453"/>
      <point x="1093" y="1490" type="curve" smooth="yes"/>
      <point x="1118" y="1495"/>
      <point x="1141" y="1498"/>
      <point x="1160" y="1498" type="curve" smooth="yes"/>
      <point x="1201" y="1498"/>
      <point x="1235" y="1488"/>
      <point x="1264" y="1467" type="curve" smooth="yes"/>
      <point x="1310" y="1434"/>
      <point x="1333" y="1389"/>
      <point x="1333" y="1332" type="curve" smooth="yes"/>
      <point x="1333" y="1277"/>
      <point x="1310" y="1209"/>
      <point x="1265" y="1130" type="curve"/>
      <point x="1238" y="1085"/>
      <point x="1194" y="1063"/>
      <point x="1150" y="1063" type="curve" smooth="yes"/>
      <point x="1084" y="1063"/>
      <point x="1021" y="1111"/>
      <point x="1029" y="1203" type="curve"/>
      <point x="870" y="1022"/>
      <point x="774" y="803"/>
      <point x="722" y="534" type="curve" smooth="yes"/>
      <point x="618" y="0" type="line"/>
      <point x="323" y="0" type="line"/>
    </contour>
    <contour>
      <point x="-216" y="1502" type="line"/>
      <point x="105" y="1502" type="line"/>
      <point x="-337" y="1126" type="line"/>
      <point x="-534" y="1126" type="line"/>
    </contour>
  </outline>
</glyph>
<glyph name="Theta" format="1">
  <advance width="1233"/>
  <unicode hex="0398"/>
  <outline>
    <contour>
      <point x="-21" y="452" type="curve" smooth="yes" name="hr00"/>
      <point x="-21" y="521"/>
      <point x="-13" y="597"/>
      <point x="3" y="680" type="curve" smooth="yes"/>
      <point x="95" y="1154"/>
      <point x="366" y="1418"/>
      <point x="754" y="1418" type="curve" smooth="yes"/>
      <point x="1071" y="1418"/>
      <point x="1241" y="1244"/>
      <point x="1241" y="916" type="curve" smooth="yes"/>
      <point x="1241" y="845"/>
      <point x="1232" y="765"/>
      <point x="1215" y="675" type="curve" smooth="yes"/>
      <point x="1122" y="199"/>
      <point x="867" y="-24"/>
      <point x="479" y="-24" type="curve" smooth="yes"/>
      <point x="148" y="-24"/>
      <point x="-21" y="136"/>
    </contour>
    <contour>
      <point x="934" y="686" type="curve" smooth="yes"/>
      <point x="949" y="761"/>
      <point x="957" y="831"/>
      <point x="957" y="895" type="curve" smooth="yes"/>
      <point x="957" y="1087"/>
      <point x="876" y="1183"/>
      <point x="713" y="1183" type="curve" smooth="yes"/>
      <point x="596" y="1183"/>
      <point x="503" y="1138"/>
      <point x="434" y="1047" type="curve" smooth="yes"/>
      <point x="365" y="957"/>
      <point x="316" y="837"/>
      <point x="287" y="686" type="curve" smooth="yes"/>
      <point x="274" y="618"/>
      <point x="267" y="558"/>
      <point x="267" y="505" type="curve" smooth="yes"/>
      <point x="267" y="328"/>
      <point x="345" y="231"/>
      <point x="529" y="231" type="curve"/>
      <point x="769" y="233"/>
      <point x="875" y="389"/>
    </contour>
    <contour>
      <point x="421" y="809" type="line"/>
      <point x="848" y="809" type="line"/>
      <point x="803" y="579" type="line"/>
      <point x="376" y="579" type="line"/>
    </contour>
  </outline>
</glyph>
<glyph name="Upsilon" format="1">
  <advance width="1233"/>
  <unicode hex="03A5"/>
  <outline>
    <contour>
      <point x="432" y="534" type="line" smooth="yes" name="hr00"/>
      <point x="452" y="635" name="dh01"/>
      <point x="461" y="736"/>
      <point x="461" y="829" type="curve" smooth="yes" name="sv01"/>
      <point x="461" y="1020" name="sv02"/>
      <point x="423" y="1173" name="at01"/>
      <point x="363" y="1203" type="curve" smooth="yes" name="at02"/>
      <point x="315" y="1226" name="at03"/>
      <point x="265" y="1238" name="dh02"/>
      <point x="214" y="1238" type="curve" smooth="yes" name="at04"/>
      <point x="187" y="1238" name="at05"/>
      <point x="160" y="1235"/>
      <point x="132" y="1229" type="curve"/>
      <point x="183" y="1493" type="line"/>
      <point x="208" y="1501" name="sv03"/>
      <point x="239" y="1504" name="iv01"/>
      <point x="274" y="1504" type="curve" smooth="yes"/>
      <point x="313" y="1504" name="ab01"/>
      <point x="359" y="1501"/>
      <point x="410" y="1490" type="curve"/>
      <point x="586" y="1458"/>
      <point x="673" y="1314"/>
      <point x="670" y="1057" type="curve"/>
      <point x="790" y="1308"/>
      <point x="933" y="1453"/>
      <point x="1098" y="1490" type="curve" smooth="yes"/>
      <point x="1123" y="1495"/>
      <point x="1146" y="1498"/>
      <point x="1165" y="1498" type="curve" smooth="yes"/>
      <point x="1206" y="1498"/>
      <point x="1240" y="1488"/>
      <point x="1269" y="1467" type="curve" smooth="yes"/>
      <point x="1315" y="1434"/>
      <point x="1338" y="1389"/>
      <point x="1338" y="1332" type="curve" smooth="yes"/>
      <point x="1338" y="1277"/>
      <point x="1315" y="1209"/>
      <point x="1270" y="1130" type="curve"/>
      <point x="1243" y="1085"/>
      <point x="1199" y="1063"/>
      <point x="1155" y="1063" type="curve" smooth="yes"/>
      <point x="1089" y="1063"/>
      <point x="1026" y="1111"/>
      <point x="1034" y="1203" type="curve"/>
      <point x="875" y="1022"/>
      <point x="779" y="803"/>
      <point x="727" y="534" type="curve" smooth="yes"/>
      <point x="623" y="0" type="line"/>
      <point x="328" y="0" type="line"/>
    </contour>
  </outline>
</glyph>
<glyph name="xi" format="1">
  <advance width="1233"/>
  <unicode hex="03BE"/>
  <outline>
    <contour>
      <point x="613" y="-201" type="line" name="hr00"/>
      <point x="705" y="-201"/>
      <point x="742" y="-155" name="dh03"/>
      <point x="750" y="-104" type="curve" smooth="yes"/>
      <point x="751" y="-97" name="dh01"/>
      <point x="752" y="-90" name="ih02"/>
      <point x="752" y="-83" type="curve" smooth="yes" name="ih01"/>
      <point x="752" y="-34" name="ih03"/>
      <point x="725" y="-7"/>
      <point x="652" y="0" type="curve" name="at01"/>
      <point x="555" y="12"/>
      <point x="121" y="6" name="sv01"/>
      <point x="121" y="322" type="curve" smooth="yes" name="sh01"/>
      <point x="121" y="526" name="dv02"/>
      <point x="305" y="731" name="dv01"/>
      <point x="576" y="779" type="curve"/>
      <point x="387" y="806" name="dh02"/>
      <point x="306" y="901"/>
      <point x="306" y="1008" type="curve" smooth="yes" name="dh04"/>
      <point x="306" y="1133"/>
      <point x="414" y="1272" name="ab01"/>
      <point x="585" y="1331" type="curve"/>
      <point x="338" y="1331" type="line" name="sh02"/>
      <point x="382" y="1556" type="line"/>
      <point x="1258" y="1556" type="line"/>
      <point x="1214" y="1331" type="line"/>
      <point x="809" y="1331"/>
      <point x="610" y="1202"/>
      <point x="610" y="1082" type="curve" smooth="yes"/>
      <point x="610" y="980"/>
      <point x="749" y="888"/>
      <point x="1025" y="880" type="curve"/>
      <point x="982" y="657" type="line"/>
      <point x="646" y="652"/>
      <point x="453" y="570"/>
      <point x="425" y="410" type="curve" smooth="yes"/>
      <point x="423" y="399"/>
      <point x="422" y="388"/>
      <point x="422" y="378" type="curve" smooth="yes"/>
      <point x="422" y="249"/>
      <point x="585" y="233"/>
      <point x="696" y="225" type="curve"/>
      <point x="767" y="221"/>
      <point x="958" y="196"/>
      <point x="958" y="-20" type="curve" smooth="yes"/>
      <point x="958" y="-46"/>
      <point x="955" y="-74"/>
      <point x="949" y="-104" type="curve" smooth="yes"/>
      <point x="909" y="-301"/>
      <point x="758" y="-426"/>
      <point x="569" y="-426" type="curve"/>
    </contour>
  </outline>
</glyph>
<glyph name="chi" format="1">
  <advance width="1233"/>
  <unicode hex="03C7"/>
  <outline>
    <contour>
      <point x="435" y="348" type="line" name="hr00"/>
      <point x="330" y="752" type="line" smooth="yes"/>
      <point x="317" y="802"/>
      <point x="300" y="837"/>
      <point x="279" y="856" type="curve" smooth="yes"/>
      <point x="262" y="872" name="at01"/>
      <point x="238" y="885"/>
      <point x="222" y="885" type="curve" smooth="yes"/>
      <point x="143" y="885" type="line" name="iv01"/>
      <point x="188" y="1120" type="line" name="at02"/>
      <point x="305" y="1120" type="line" smooth="yes"/>
      <point x="440" y="1120"/>
      <point x="549" y="1045"/>
      <point x="610" y="808" type="curve" smooth="yes"/>
      <point x="648" y="660" type="line"/>
      <point x="962" y="1120" type="line"/>
      <point x="1259" y="1120" type="line" name="ab01"/>
      <point x="730" y="345" type="line"/>
      <point x="834" y="-58" type="line" smooth="yes"/>
      <point x="845" y="-101" name="iv02"/>
      <point x="860" y="-139" name="ab02"/>
      <point x="885" y="-162" type="curve" smooth="yes"/>
      <point x="902" y="-178"/>
      <point x="926" y="-191"/>
      <point x="942" y="-191" type="curve" smooth="yes"/>
      <point x="1022" y="-191" type="line"/>
      <point x="977" y="-426" type="line"/>
      <point x="859" y="-426" type="line" smooth="yes"/>
      <point x="725" y="-426"/>
      <point x="615" y="-354"/>
      <point x="554" y="-114" type="curve" smooth="yes"/>
      <point x="516" y="32" type="line"/>
      <point x="203" y="-426" type="line"/>
      <point x="-94" y="-426" type="line"/>
    </contour>
  </outline>
</glyph>
<glyph name="uni0401" format="1">
  <advance width="1233"/>
  <unicode hex="0401"/>
  <outline>
    <contour>
      <point x="504" y="1608" type="line" smooth="yes" name="dv01"/>
      <point x="483" y="1608"/>
      <point x="474" y="1621"/>
      <point x="478" y="1641" type="curve" smooth="yes" name="dv02"/>
      <point x="516" y="1827" type="line" smooth="yes"/>
      <point x="520" y="1845"/>
      <point x="531" y="1854"/>
      <point x="548" y="1854" type="curve" smooth="yes"/>
      <point x="723" y="1854" type="line" smooth="yes" name="sv01"/>
      <point x="744" y="1854"/>
      <point x="753" y="1841"/>
      <point x="749" y="1821" type="curve" smooth="yes" name="sv02"/>
      <point x="712" y="1635" type="line" smooth="yes"/>
      <point x="709" y="1617"/>
      <point x="698" y="1608"/>
      <point x="680" y="1608" type="curve" smooth="yes"/>
    </contour>
    <contour>
      <point x="900" y="1608" type="line" smooth="yes" name="at01"/>
      <point x="879" y="1608"/>
      <point x="870" y="1621" name="sv03"/>
      <point x="874" y="1641" type="curve" smooth="yes"/>
      <point x="911" y="1827" type="line" smooth="yes"/>
      <point x="914" y="1845" name="dv04"/>
      <point x="924" y="1854" name="dv03"/>
      <point x="943" y="1854" type="curve" smooth="yes"/>
      <point x="1118" y="1854" type="line" smooth="yes" name="sv04"/>
      <point x="1138" y="1854"/>
      <point x="1149" y="1841" name="ab01"/>
      <point x="1145" y="1821" type="curve" smooth="yes"/>
      <point x="1109" y="1635" type="line" smooth="yes"/>
      <point x="1106" y="1617"/>
      <point x="1095" y="1608"/>
      <point x="1077" y="1608" type="curve" smooth="yes"/>
    </contour>
    <contour>
      <point x="317" y="1493" type="line"/>
      <point x="1249" y="1493" type="line"/>
      <point x="1198" y="1233" type="line"/>
      <point x="563" y="1233" type="line"/>
      <point x="500" y="911" type="line"/>
      <point x="1075" y="911" type="line"/>
      <point x="1026" y="651" type="line"/>
      <point x="451" y="651" type="line"/>
      <point x="375" y="260" type="line"/>
      <point x="1010" y="260" type="line"/>
      <point x="958" y="0" type="line"/>
      <point x="29" y="0" type="line"/>
    </contour>
  </outline>
</glyph>
<glyph name="uni0406" format="1">
  <advance width="1233"/>
  <unicode hex="0406"/>
  <outline>
    <contour>
      <point x="78" y="260" type="line" name="sv01"/>
      <point x="375" y="260" type="line"/>
      <point x="563" y="1233" type="line" name="sv02"/>
      <point x="266" y="1233" type="line"/>
      <point x="317" y="1493" type="line" name="at01"/>
      <point x="1206" y="1493" type="line"/>
      <point x="1155" y="1233" type="line" name="sv03"/>
      <point x="858" y="1233" type="line" name="sv04"/>
      <point x="670" y="260" type="line" name="sv05"/>
      <point x="967" y="260" type="line" name="sv06"/>
      <point x="915" y="0" type="line" name="ab01"/>
      <point x="27" y="0" type="line"/>
    </contour>
  </outline>
</glyph>
<glyph name="uni0409" format="1">
  <advance width="1233"/>
  <unicode hex="0409"/>
  <outline>
    <contour>
      <point x="-101" y="250" type="line" name="sv01"/>
      <point x="-91" y="250" type="line" smooth="yes"/>
      <point x="51" y="250"/>
      <point x="105" y="319"/>
      <point x="150" y="471" type="curve" name="at01"/>
      <point x="174" y="557"/>
      <point x="209" y="710"/>
      <point x="278" y="1065" type="curve" smooth="yes"/>
      <point x="361" y="1493" type="line" name="dh02"/>
      <point x="977" y="1493" type="line"/>
      <point x="864" y="913" type="line" name="ab01"/>
      <point x="886" y="913" type="line" smooth="yes"/>
      <point x="1033" y="913" name="sv02"/>
      <point x="1190" y="774"/>
      <point x="1190" y="526" type="curve" smooth="yes"/>
      <point x="1190" y="498"/>
      <point x="1187" y="271" name="ab02"/>
      <point x="974" y="110" type="curve"/>
      <point x="886" y="46" name="sv03"/>
      <point x="780" y="0"/>
      <point x="709" y="0" type="curve" smooth="yes" name="dh01"/>
      <point x="447" y="0" type="line"/>
      <point x="687" y="1233" type="line"/>
      <point x="551" y="1233" type="line" name="sv04"/>
      <point x="516" y="1057" type="line" smooth="yes"/>
      <point x="431" y="634" name="sh01"/>
      <point x="379" y="277"/>
      <point x="210" y="113" type="curve"/>
      <point x="131" y="38"/>
      <point x="24" y="0"/>
      <point x="-112" y="0" type="curve" smooth="yes"/>
      <point x="-149" y="0" type="line"/>
    </contour>
    <contour>
      <point x="741" y="236" type="line" smooth="yes"/>
      <point x="787" y="236"/>
      <point x="899" y="295"/>
      <point x="929" y="416" type="curve" smooth="yes"/>
      <point x="937" y="451"/>
      <point x="945" y="515"/>
      <point x="945" y="542" type="curve" smooth="yes"/>
      <point x="945" y="619"/>
      <point x="874" y="678"/>
      <point x="827" y="678" type="curve" smooth="yes"/>
      <point x="819" y="678" type="line"/>
      <point x="733" y="236" type="line"/>
    </contour>
  </outline>
</glyph>
<glyph name="uni0417" format="1">
  <advance width="1233"/>
  <unicode hex="0417"/>
  <outline>
    <contour>
      <point x="442" y="-29" type="curve" smooth="yes" name="dv01"/>
      <point x="305" y="-29"/>
      <point x="153" y="-3"/>
      <point x="-11" y="45" type="curve" name="dv02"/>
      <point x="43" y="315" type="line" name="dh01"/>
      <point x="168" y="255" name="dv03"/>
      <point x="315" y="221"/>
      <point x="443" y="221" type="curve" smooth="yes"/>
      <point x="659" y="221" name="dv04"/>
      <point x="770" y="321" name="ih01"/>
      <point x="770" y="469" type="curve" smooth="yes" name="sv01"/>
      <point x="770" y="605"/>
      <point x="678" y="668"/>
      <point x="534" y="668" type="curve" smooth="yes" name="at01"/>
      <point x="376" y="668" type="line" name="sh01"/>
      <point x="428" y="928" type="line" name="ih02"/>
      <point x="585" y="928" type="line" smooth="yes" name="dh02"/>
      <point x="750" y="928"/>
      <point x="864" y="1011"/>
      <point x="864" y="1124" type="curve" smooth="yes" name="sh02"/>
      <point x="864" y="1217"/>
      <point x="785" y="1270"/>
      <point x="640" y="1270" type="curve" smooth="yes"/>
      <point x="532" y="1270"/>
      <point x="399" y="1241"/>
      <point x="251" y="1188" type="curve"/>
      <point x="305" y="1456" type="line"/>
      <point x="445" y="1499"/>
      <point x="576" y="1520"/>
      <point x="684" y="1520" type="curve" smooth="yes"/>
      <point x="965" y="1520"/>
      <point x="1140" y="1378"/>
      <point x="1140" y="1166" type="curve" smooth="yes"/>
      <point x="1140" y="979"/>
      <point x="1007" y="845"/>
      <point x="784" y="805" type="curve"/>
      <point x="972" y="754"/>
      <point x="1050" y="642"/>
      <point x="1050" y="469" type="curve" smooth="yes"/>
      <point x="1050" y="168"/>
      <point x="817" y="-29"/>
    </contour>
  </outline>
</glyph>
<glyph name="uni041B" format="1">
  <advance width="1233"/>
  <unicode hex="041B"/>
  <outline>
    <contour>
      <point x="-73" y="265" type="line" name="sv01"/>
      <point x="-63" y="265" type="line" smooth="yes"/>
      <point x="62" y="265"/>
      <point x="140" y="321"/>
      <point x="175" y="473" type="curve" smooth="yes" name="at01"/>
      <point x="242" y="758"/>
      <point x="263" y="863" name="ab01"/>
      <point x="303" y="1065" type="curve" smooth="yes"/>
      <point x="386" y="1493" type="line" name="sv02"/>
      <point x="1256" y="1493" type="line"/>
      <point x="966" y="0" type="line"/>
      <point x="671" y="0" type="line"/>
      <point x="911" y="1233" type="line" name="ab02"/>
      <point x="631" y="1233" type="line"/>
      <point x="596" y="1057" type="line" smooth="yes"/>
      <point x="511" y="634"/>
      <point x="459" y="277"/>
      <point x="290" y="113" type="curve"/>
      <point x="211" y="38"/>
      <point x="104" y="0"/>
      <point x="-32" y="0" type="curve" smooth="yes"/>
      <point x="-124" y="0" type="line"/>
    </contour>
  </outline>
</glyph>
<glyph name="uni0420" format="1">
  <advance width="1233"/>
  <unicode hex="0420"/>
  <outline>
    <contour>
      <point x="322" y="1493" type="line" name="at01"/>
      <point x="742" y="1493" type="line" smooth="yes"/>
      <point x="1057" y="1493" name="dh02"/>
      <point x="1225" y="1374"/>
      <point x="1225" y="1123" type="curve" smooth="yes" name="dv01"/>
      <point x="1225" y="978"/>
      <point x="1170" y="825" name="ab01"/>
      <point x="1094" y="731" type="curve" smooth="yes"/>
      <point x="990" y="603" name="dv02"/>
      <point x="822" y="559" name="dh01"/>
      <point x="599" y="559" type="curve" smooth="yes" name="sv01"/>
      <point x="435" y="559" type="line"/>
      <point x="326" y="0" type="line"/>
      <point x="31" y="0" type="line"/>
    </contour>
    <contour>
      <point x="627" y="807" type="line" smooth="yes" name="sh01"/>
      <point x="823" y="807"/>
      <point x="918" y="900"/>
      <point x="918" y="1069" type="curve" smooth="yes"/>
      <point x="918" y="1197"/>
      <point x="861" y="1245"/>
      <point x="689" y="1245" type="curve" smooth="yes"/>
      <point x="568" y="1245" type="line"/>
      <point x="484" y="807" type="line"/>
    </contour>
  </outline>
</glyph>
<glyph name="uni044D" format="1">
  <advance width="1233"/>
  <unicode hex="044D"/>
  <outline>
    <contour>
      <point x="418" y="-29" type="curve" smooth="yes" name="dv01"/>
      <point x="289" y="-29"/>
      <point x="182" y="0"/>
      <point x="95" y="57" type="curve" name="dv02"/>
      <point x="148" y="326" type="line" name="dv03"/>
      <point x="223" y="247"/>
      <point x="304" y="209"/>
      <point x="416" y="209" type="curve" smooth="yes" name="dh01"/>
      <point x="583" y="209" name="sv01"/>
      <point x="702" y="294"/>
      <point x="763" y="458" type="curve"/>
      <point x="286" y="458" type="line" name="at01"/>
      <point x="329" y="677" type="line" name="dh02"/>
      <point x="801" y="677" type="line"/>
      <point x="796" y="832"/>
      <point x="716" y="909"/>
      <point x="559" y="909" type="curve" smooth="yes" name="sh01"/>
      <point x="448" y="909"/>
      <point x="342" y="871"/>
      <point x="239" y="795" type="curve"/>
      <point x="291" y="1063" type="line"/>
      <point x="407" y="1119"/>
      <point x="522" y="1147"/>
      <point x="649" y="1147" type="curve" smooth="yes"/>
      <point x="993" y="1147"/>
      <point x="1103" y="939"/>
      <point x="1103" y="724" type="curve" smooth="yes"/>
      <point x="1103" y="669"/>
      <point x="1097" y="612"/>
      <point x="1086" y="560" type="curve"/>
      <point x="1014" y="189"/>
      <point x="767" y="-29"/>
    </contour>
  </outline>
</glyph>
<glyph name="uni0452" format="1">
  <advance width="1233"/>
  <unicode hex="0452"/>
  <outline>
    <contour>
      <point x="411" y="-199" type="line" name="hr00"/>
      <point x="643" y="-167"/>
      <point x="743" y="16" name="dh01"/>
      <point x="796" y="280" type="curve" smooth="yes" name="dv01"/>
      <point x="808" y="339"/>
      <point x="814" y="388" name="ab02"/>
      <point x="814" y="427" type="curve" smooth="yes"/>
      <point x="814" y="494" name="sv01"/>
      <point x="797" y="555"/>
      <point x="681" y="555" type="curve" smooth="yes" name="at02"/>
      <point x="534" y="555"/>
      <point x="461" y="460" name="at01"/>
      <point x="428" y="289" type="curve" smooth="yes"/>
      <point x="372" y="0" type="line" name="at03"/>
      <point x="81" y="0" type="line"/>
      <point x="255" y="895" type="line" name="sv02"/>
      <point x="84" y="895" type="line" name="sv03"/>
      <point x="128" y="1120" type="line" name="iv01"/>
      <point x="299" y="1120" type="line" name="dv02"/>
      <point x="383" y="1556" type="line" name="dh02"/>
      <point x="674" y="1556" type="line"/>
      <point x="590" y="1120" type="line" name="ab01"/>
      <point x="1027" y="1120" type="line"/>
      <point x="983" y="895" type="line" name="sh01"/>
      <point x="546" y="895" type="line"/>
      <point x="489" y="600" type="line"/>
      <point x="558" y="733"/>
      <point x="686" y="795"/>
      <point x="831" y="795" type="curve" smooth="yes"/>
      <point x="1034" y="795"/>
      <point x="1113" y="676"/>
      <point x="1113" y="506" type="curve" smooth="yes"/>
      <point x="1113" y="449"/>
      <point x="1105" y="371"/>
      <point x="1090" y="295" type="curve"/>
      <point x="1026" y="-60"/>
      <point x="853" y="-360"/>
      <point x="368" y="-424" type="curve"/>
    </contour>
  </outline>
</glyph>
<glyph name="uni0473" format="1">
  <advance width="1233"/>
  <unicode hex="0473"/>
  <outline>
    <contour>
      <point x="502" y="-29" type="curve" smooth="yes" name="dv01"/>
      <point x="341" y="-29"/>
      <point x="226" y="26" name="sh01"/>
      <point x="155" y="130" type="curve" smooth="yes"/>
      <point x="106" y="201" name="at01"/>
      <point x="82" y="292"/>
      <point x="82" y="402" type="curve" smooth="yes" name="sh02"/>
      <point x="82" y="606"/>
      <point x="165" y="840"/>
      <point x="321" y="988" type="curve" smooth="yes" name="sh03"/>
      <point x="430" y="1092" name="ah02"/>
      <point x="570" y="1147" name="sv01"/>
      <point x="731" y="1147" type="curve" smooth="yes"/>
      <point x="888" y="1147" name="dv02"/>
      <point x="1005" y="1095" name="dv03"/>
      <point x="1077" y="988" type="curve" smooth="yes" name="sh04"/>
      <point x="1128" y="912"/>
      <point x="1150" y="820" name="ah01"/>
      <point x="1150" y="715" type="curve" smooth="yes" name="sh05"/>
      <point x="1150" y="507"/>
      <point x="1063" y="274"/>
      <point x="911" y="130" type="curve" smooth="yes"/>
      <point x="798" y="23"/>
      <point x="659" y="-29"/>
    </contour>
    <contour>
      <point x="853" y="632" type="line"/>
      <point x="855" y="651"/>
      <point x="856" y="669"/>
      <point x="856" y="687" type="curve" smooth="yes"/>
      <point x="856" y="812"/>
      <point x="808" y="909"/>
      <point x="684" y="909" type="curve" smooth="yes"/>
      <point x="544" y="909"/>
      <point x="450" y="783"/>
      <point x="408" y="632" type="curve"/>
    </contour>
    <contour>
      <point x="548" y="209" type="curve" smooth="yes"/>
      <point x="688" y="209"/>
      <point x="769" y="330"/>
      <point x="809" y="438" type="curve"/>
      <point x="377" y="438" type="line"/>
      <point x="377" y="330"/>
      <point x="408" y="209"/>
    </contour>
  </outline>
</glyph>
<glyph name="uni0494" format="1">
  <advance width="1233"/>
  <unicode hex="0494"/>
  <outline>
    <contour>
      <point x="324" y="-199" type="line" name="sv01"/>
      <point x="460" y="-199" type="line" smooth="yes"/>
      <point x="596" y="-199"/>
      <point x="655" y="-127"/>
      <point x="687" y="43" type="curve" name="dh01"/>
      <point x="769" y="464" type="line" smooth="yes" name="dv01"/>
      <point x="777" y="507"/>
      <point x="782" y="539" name="ab01"/>
      <point x="782" y="570" type="curve" smooth="yes"/>
      <point x="782" y="654" name="at01"/>
      <point x="744" y="686"/>
      <point x="659" y="686" type="curve" smooth="yes" name="sv02"/>
      <point x="425" y="686" type="line"/>
      <point x="292" y="0" type="line"/>
      <point x="-3" y="0" type="line" name="dv02"/>
      <point x="287" y="1493" type="line"/>
      <point x="1217" y="1493" type="line"/>
      <point x="1167" y="1233" type="line" name="dh02"/>
      <point x="532" y="1233" type="line"/>
      <point x="477" y="952" type="line"/>
      <point x="786" y="952" type="line" smooth="yes" name="ab02"/>
      <point x="874" y="952"/>
      <point x="949" y="931"/>
      <point x="1002" y="899" type="curve" smooth="yes" name="sh01"/>
      <point x="1027" y="884"/>
      <point x="1046" y="867"/>
      <point x="1057" y="846" type="curve" smooth="yes"/>
      <point x="1081" y="804"/>
      <point x="1093" y="750"/>
      <point x="1093" y="684" type="curve" smooth="yes"/>
      <point x="1093" y="640"/>
      <point x="1088" y="588"/>
      <point x="1077" y="532" type="curve" smooth="yes"/>
      <point x="982" y="43" type="line"/>
      <point x="918" y="-293"/>
      <point x="781" y="-424"/>
      <point x="499" y="-424" type="curve" smooth="yes"/>
      <point x="281" y="-424" type="line"/>
    </contour>
  </outline>
</glyph>
<glyph name="uni04C2" format="1">
  <advance width="1233"/>
  <unicode hex="04C2"/>
  <outline>
    <contour>
      <point x="751" y="1270" type="curve" smooth="yes" name="sv01"/>
      <point x="554" y="1270"/>
      <point x="456" y="1358" name="dh01"/>
      <point x="456" y="1534" type="curve" smooth="yes"/>
      <point x="456" y="1567" type="line" name="dh02"/>
      <point x="600" y="1567" type="line" name="sv02"/>
      <point x="600" y="1554" type="line" smooth="yes" name="at03"/>
      <point x="600" y="1473"/>
      <point x="663" y="1421"/>
      <point x="764" y="1421" type="curve" smooth="yes"/>
      <point x="872" y="1421" name="at01"/>
      <point x="954" y="1475"/>
      <point x="987" y="1567" type="curve" name="ih01"/>
      <point x="1130" y="1567" type="line" name="sh01"/>
      <point x="1091" y="1376"/>
      <point x="955" y="1270" name="iv01"/>
    </contour>
    <contour>
      <point x="294" y="694" type="line" name="at02"/>
      <point x="127" y="1120" type="line" name="iv02"/>
      <point x="404" y="1120" type="line"/>
      <point x="539" y="777" type="line" name="ab01"/>
      <point x="606" y="1120" type="line"/>
      <point x="846" y="1120" type="line" name="iv03"/>
      <point x="779" y="777" type="line"/>
      <point x="1048" y="1120" type="line" name="ab02"/>
      <point x="1325" y="1120" type="line"/>
      <point x="992" y="694" type="line"/>
      <point x="1111" y="0" type="line" name="iv04"/>
      <point x="856" y="0" type="line" name="ab03"/>
      <point x="783" y="427" type="line"/>
      <point x="687" y="305" type="line"/>
      <point x="628" y="0" type="line"/>
      <point x="388" y="0" type="line"/>
      <point x="447" y="305" type="line"/>
      <point x="399" y="427" type="line"/>
      <point x="160" y="0" type="line"/>
      <point x="-95" y="0" type="line"/>
    </contour>
  </outline>
</glyph>
<glyph name="uni04C3" format="1">
  <advance width="1233"/>
  <unicode hex="04C3"/>
  <outline>
    <contour>
      <point x="309" y="-199" type="line" name="sv01"/>
      <point x="445" y="-199" type="line" smooth="yes"/>
      <point x="510" y="-199"/>
      <point x="559" y="-183"/>
      <point x="595" y="-144" type="curve" smooth="yes"/>
      <point x="632" y="-104" name="dh01"/>
      <point x="655" y="-44"/>
      <point x="672" y="43" type="curve" smooth="yes"/>
      <point x="754" y="464" type="line" smooth="yes"/>
      <point x="762" y="505"/>
      <point x="766" y="539" name="ab01"/>
      <point x="766" y="568" type="curve" smooth="yes"/>
      <point x="766" y="599" name="at01"/>
      <point x="762" y="622"/>
      <point x="753" y="637" type="curve" name="iv01"/>
      <point x="726" y="670" name="at02"/>
      <point x="690" y="686"/>
      <point x="644" y="686" type="curve" smooth="yes" name="ih01"/>
      <point x="557" y="686" type="line"/>
      <point x="375" y="506" type="line"/>
      <point x="277" y="0" type="line" name="dh02"/>
      <point x="-18" y="0" type="line"/>
      <point x="272" y="1493" type="line"/>
      <point x="567" y="1493" type="line" name="ab02"/>
      <point x="453" y="903" type="line"/>
      <point x="1029" y="1493" type="line"/>
      <point x="1363" y="1493" type="line" name="sh01"/>
      <point x="825" y="952" type="line"/>
      <point x="882" y="952"/>
      <point x="936" y="934"/>
      <point x="987" y="899" type="curve" smooth="yes"/>
      <point x="1015" y="880"/>
      <point x="1031" y="865"/>
      <point x="1042" y="846" type="curve" smooth="yes"/>
      <point x="1065" y="809"/>
      <point x="1078" y="750"/>
      <point x="1078" y="678" type="curve" smooth="yes"/>
      <point x="1078" y="635"/>
      <point x="1073" y="587"/>
      <point x="1062" y="532" type="curve" smooth="yes"/>
      <point x="967" y="43" type="line" smooth="yes"/>
      <point x="903" y="-288"/>
      <point x="768" y="-424"/>
      <point x="484" y="-424" type="curve" smooth="yes"/>
      <point x="266" y="-424" type="line"/>
    </contour>
  </outline>
</glyph>
<glyph name="uni04C4" format="1">
  <advance width="1233"/>
  <unicode hex="04C4"/>
  <outline>
    <contour>
      <point x="298" y="-199" type="line" name="sv01"/>
      <point x="411" y="-199" type="line" smooth="yes"/>
      <point x="537" y="-199"/>
      <point x="600" y="-144"/>
      <point x="637" y="43" type="curve" smooth="yes" name="dh01"/>
      <point x="664" y="180" type="line" smooth="yes"/>
      <point x="672" y="220"/>
      <point x="675" y="253" name="ab01"/>
      <point x="675" y="280" type="curve" smooth="yes"/>
      <point x="675" y="371" name="at01"/>
      <point x="638" y="405"/>
      <point x="561" y="405" type="curve" smooth="yes" name="iv01"/>
      <point x="441" y="405" type="line" name="at02"/>
      <point x="362" y="0" type="line"/>
      <point x="69" y="0" type="line" name="ih01"/>
      <point x="287" y="1120" type="line"/>
      <point x="580" y="1120" type="line" name="dh02"/>
      <point x="506" y="739" type="line"/>
      <point x="932" y="1120" type="line"/>
      <point x="1287" y="1120" type="line" name="ab02"/>
      <point x="712" y="645" type="line"/>
      <point x="724" y="645" type="line" smooth="yes"/>
      <point x="895" y="645" name="sh01"/>
      <point x="981" y="556"/>
      <point x="981" y="377" type="curve" smooth="yes"/>
      <point x="981" y="330"/>
      <point x="975" y="281"/>
      <point x="964" y="225" type="curve" smooth="yes"/>
      <point x="928" y="43" type="line" smooth="yes"/>
      <point x="861" y="-291"/>
      <point x="733" y="-424"/>
      <point x="450" y="-424" type="curve" smooth="yes"/>
      <point x="255" y="-424" type="line"/>
    </contour>
  </outline>
</glyph>
<glyph name="uni04D1" format="1">
  <advance width="1233"/>
  <unicode hex="04D1"/>
  <outline>
    <contour>
      <point x="736" y="1297" type="curve" smooth="yes" name="dv01"/>
      <point x="545" y="1297"/>
      <point x="446" y="1382" name="dh03"/>
      <point x="446" y="1561" type="curve" smooth="yes" name="sv01"/>
      <point x="446" y="1594" type="line" name="dh04"/>
      <point x="590" y="1594" type="line" name="dv02"/>
      <point x="590" y="1581" type="line" smooth="yes" name="sv02"/>
      <point x="590" y="1500"/>
      <point x="652" y="1448"/>
      <point x="756" y="1448" type="curve" smooth="yes" name="sv04"/>
      <point x="861" y="1448" name="dh01"/>
      <point x="944" y="1502"/>
      <point x="977" y="1594" type="curve" name="dv04"/>
      <point x="1120" y="1594" type="line"/>
      <point x="1081" y="1409" name="dh05"/>
      <point x="952" y="1297" name="sv05"/>
    </contour>
    <contour>
      <point x="381" y="-29" type="curve" smooth="yes" name="ih01"/>
      <point x="174" y="-29"/>
      <point x="47" y="90" name="at01"/>
      <point x="47" y="302" type="curve" smooth="yes" name="dh06"/>
      <point x="47" y="578"/>
      <point x="260" y="737" name="ab01"/>
      <point x="651" y="737" type="curve" smooth="yes"/>
      <point x="844" y="737" type="line" name="ih02"/>
      <point x="852" y="786" type="line" smooth="yes"/>
      <point x="853" y="794" name="sv03"/>
      <point x="854" y="800" name="dv03"/>
      <point x="854" y="811" type="curve" smooth="yes"/>
      <point x="854" y="891" name="dh02"/>
      <point x="785" y="932"/>
      <point x="661" y="932" type="curve" smooth="yes"/>
      <point x="544" y="932" name="sh01"/>
      <point x="411" y="896"/>
      <point x="248" y="819" type="curve"/>
      <point x="295" y="1069" type="line"/>
      <point x="463" y="1125"/>
      <point x="583" y="1147"/>
      <point x="709" y="1147" type="curve" smooth="yes"/>
      <point x="988" y="1147"/>
      <point x="1141" y="1045"/>
      <point x="1141" y="845" type="curve" smooth="yes"/>
      <point x="1141" y="792"/>
      <point x="1130" y="722"/>
      <point x="1114" y="639" type="curve" smooth="yes"/>
      <point x="991" y="0" type="line"/>
      <point x="729" y="0" type="line"/>
      <point x="725" y="125" type="line"/>
      <point x="636" y="21"/>
      <point x="517" y="-29"/>
    </contour>
    <contour>
      <point x="504" y="172" type="curve" smooth="yes"/>
      <point x="649" y="172"/>
      <point x="766" y="303"/>
      <point x="803" y="530" type="curve"/>
      <point x="690" y="530" type="line" smooth="yes"/>
      <point x="466" y="530"/>
      <point x="352" y="462"/>
      <point x="352" y="325" type="curve" smooth="yes"/>
      <point x="352" y="229"/>
      <point x="408" y="172"/>
    </contour>
  </outline>
</glyph>
<glyph name="uni04DF" format="1">
  <advance width="1233"/>
  <unicode hex="04DF"/>
  <outline>
    <contour>
      <point x="431" y="1347" type="line" smooth="yes" name="dv01"/>
      <point x="411" y="1347"/>
      <point x="400" y="1360"/>
      <point x="404" y="1380" type="curve" smooth="yes" name="dv02"/>
      <point x="440" y="1566" type="line" smooth="yes"/>
      <point x="443" y="1584"/>
      <point x="453" y="1593"/>
      <point x="472" y="1593" type="curve" smooth="yes"/>
      <point x="649" y="1593" type="line" smooth="yes" name="sv01"/>
      <point x="670" y="1593"/>
      <point x="679" y="1580"/>
      <point x="675" y="1560" type="curve" smooth="yes" name="sv02"/>
      <point x="638" y="1374" type="line" smooth="yes"/>
      <point x="635" y="1356"/>
      <point x="624" y="1347"/>
      <point x="606" y="1347" type="curve" smooth="yes"/>
    </contour>
    <contour>
      <point x="826" y="1347" type="line" smooth="yes" name="ab01"/>
      <point x="806" y="1347"/>
      <point x="795" y="1360" name="iv01"/>
      <point x="799" y="1380" type="curve" smooth="yes" name="sv03"/>
      <point x="835" y="1566" type="line" smooth="yes"/>
      <point x="838" y="1584" name="dh01"/>
      <point x="848" y="1593" name="dv03"/>
      <point x="867" y="1593" type="curve" smooth="yes"/>
      <point x="1045" y="1593" type="line" smooth="yes"/>
      <point x="1066" y="1593" name="dv04"/>
      <point x="1075" y="1580" name="sh01"/>
      <point x="1071" y="1560" type="curve" smooth="yes" name="sv04"/>
      <point x="1034" y="1374" type="line" smooth="yes" name="iv02"/>
      <point x="1031" y="1356"/>
      <point x="1020" y="1347" name="at01"/>
      <point x="1002" y="1347" type="curve" smooth="yes" name="sh02"/>
    </contour>
    <contour>
      <point x="387" y="-22" type="curve" smooth="yes"/>
      <point x="280" y="-22" name="ih01"/>
      <point x="183" y="-12" name="dh02"/>
      <point x="49" y="44" type="curve"/>
      <point x="95" y="280" type="line"/>
      <point x="216" y="215" name="sh03"/>
      <point x="296" y="201"/>
      <point x="464" y="201" type="curve" smooth="yes"/>
      <point x="611" y="201"/>
      <point x="715" y="212"/>
      <point x="737" y="325" type="curve" smooth="yes"/>
      <point x="739" y="335"/>
      <point x="740" y="344"/>
      <point x="740" y="352" type="curve" smooth="yes"/>
      <point x="740" y="435"/>
      <point x="625" y="462"/>
      <point x="533" y="462" type="curve" smooth="yes"/>
      <point x="370" y="462" type="line"/>
      <point x="413" y="681" type="line"/>
      <point x="550" y="681" type="line" smooth="yes"/>
      <point x="662" y="681"/>
      <point x="805" y="715"/>
      <point x="805" y="819" type="curve" smooth="yes"/>
      <point x="805" y="894"/>
      <point x="731" y="928"/>
      <point x="574" y="928" type="curve" smooth="yes"/>
      <point x="465" y="928"/>
      <point x="356" y="911"/>
      <point x="248" y="876" type="curve"/>
      <point x="291" y="1099" type="line"/>
      <point x="398" y="1128"/>
      <point x="529" y="1147"/>
      <point x="657" y="1147" type="curve" smooth="yes"/>
      <point x="957" y="1147"/>
      <point x="1098" y="1042"/>
      <point x="1098" y="894" type="curve" smooth="yes"/>
      <point x="1098" y="875"/>
      <point x="1096" y="855"/>
      <point x="1092" y="836" type="curve" smooth="yes"/>
      <point x="1060" y="672"/>
      <point x="963" y="608"/>
      <point x="856" y="573" type="curve"/>
      <point x="955" y="541"/>
      <point x="1028" y="460"/>
      <point x="1028" y="335" type="curve" smooth="yes"/>
      <point x="1028" y="87"/>
      <point x="736" y="-22"/>
    </contour>
  </outline>
</glyph>
<glyph name="uni04E8" format="1">
  <advance width="1233"/>
  <unicode hex="04E8"/>
  <outline>
    <contour>
      <point x="464" y="-29" type="curve" smooth="yes" name="dv01"/>
      <point x="195" y="-29" name="sh01"/>
      <point x="59" y="136"/>
      <point x="59" y="437" type="curve" smooth="yes" name="at01"/>
      <point x="59" y="522" name="sh02"/>
      <point x="70" y="633"/>
      <point x="91" y="746" type="curve" smooth="yes"/>
      <point x="184" y="1245" name="sh03"/>
      <point x="422" y="1520" name="ah02"/>
      <point x="770" y="1520" type="curve" smooth="yes" name="sv01"/>
      <point x="1039" y="1520"/>
      <point x="1174" y="1357" name="dv02"/>
      <point x="1174" y="1054" type="curve" smooth="yes" name="dv03"/>
      <point x="1174" y="969"/>
      <point x="1163" y="859" name="sh04"/>
      <point x="1142" y="744" type="curve" smooth="yes"/>
      <point x="1052" y="254" name="ah01"/>
      <point x="813" y="-29" name="sh05"/>
    </contour>
    <contour>
      <point x="860" y="911" type="line"/>
      <point x="864" y="955"/>
      <point x="867" y="996"/>
      <point x="867" y="1035" type="curve" smooth="yes"/>
      <point x="867" y="1166"/>
      <point x="833" y="1255"/>
      <point x="715" y="1255" type="curve" smooth="yes"/>
      <point x="564" y="1255"/>
      <point x="496" y="1112"/>
      <point x="437" y="911" type="curve"/>
    </contour>
    <contour>
      <point x="518" y="236" type="curve" smooth="yes"/>
      <point x="668" y="236"/>
      <point x="750" y="381"/>
      <point x="814" y="651" type="curve"/>
      <point x="383" y="651" type="line"/>
      <point x="372" y="576"/>
      <point x="366" y="513"/>
      <point x="366" y="457" type="curve" smooth="yes"/>
      <point x="366" y="312"/>
      <point x="407" y="236"/>
    </contour>
  </outline>
</glyph>
<glyph name="uni04EA" format="1">
  <advance width="1233"/>
  <unicode hex="04EA"/>
  <outline>
    <contour>
      <point x="487" y="1608" type="line" smooth="yes" name="dv03"/>
      <point x="466" y="1608"/>
      <point x="457" y="1621"/>
      <point x="461" y="1641" type="curve" smooth="yes" name="dv04"/>
      <point x="499" y="1827" type="line" smooth="yes"/>
      <point x="503" y="1845"/>
      <point x="514" y="1854"/>
      <point x="531" y="1854" type="curve" smooth="yes"/>
      <point x="706" y="1854" type="line" smooth="yes" name="sv01"/>
      <point x="727" y="1854" name="sh01"/>
      <point x="736" y="1841"/>
      <point x="732" y="1821" type="curve" smooth="yes" name="sv02"/>
      <point x="695" y="1635" type="line" smooth="yes"/>
      <point x="692" y="1617"/>
      <point x="681" y="1608"/>
      <point x="663" y="1608" type="curve" smooth="yes"/>
    </contour>
    <contour>
      <point x="883" y="1608" type="line" smooth="yes" name="dv01"/>
      <point x="862" y="1608" name="sh02"/>
      <point x="853" y="1621"/>
      <point x="857" y="1641" type="curve" smooth="yes" name="at01"/>
      <point x="894" y="1827" type="line" smooth="yes" name="sh03"/>
      <point x="897" y="1845"/>
      <point x="907" y="1854"/>
      <point x="926" y="1854" type="curve" smooth="yes" name="sh04"/>
      <point x="1101" y="1854" type="line" smooth="yes" name="ah02"/>
      <point x="1121" y="1854" name="sv03"/>
      <point x="1132" y="1841"/>
      <point x="1128" y="1821" type="curve" smooth="yes" name="dv02"/>
      <point x="1092" y="1635" type="line" smooth="yes" name="dv05"/>
      <point x="1089" y="1617"/>
      <point x="1078" y="1608" name="sh05"/>
      <point x="1060" y="1608" type="curve" smooth="yes"/>
    </contour>
    <contour>
      <point x="464" y="-29" type="curve" smooth="yes" name="ah01"/>
      <point x="195" y="-29" name="sh06"/>
      <point x="59" y="136"/>
      <point x="59" y="437" type="curve" smooth="yes"/>
      <point x="59" y="522"/>
      <point x="70" y="633"/>
      <point x="91" y="746" type="curve" smooth="yes"/>
      <point x="184" y="1245"/>
      <point x="422" y="1520"/>
      <point x="770" y="1520" type="curve" smooth="yes"/>
      <point x="1039" y="1520"/>
      <point x="1174" y="1357"/>
      <point x="1174" y="1054" type="curve" smooth="yes"/>
      <point x="1174" y="969"/>
      <point x="1163" y="859"/>
      <point x="1142" y="744" type="curve" smooth="yes"/>
      <point x="1052" y="254"/>
      <point x="813" y="-29"/>
    </contour>
    <contour>
      <point x="860" y="911" type="line"/>
      <point x="864" y="955"/>
      <point x="867" y="996"/>
      <point x="867" y="1035" type="curve" smooth="yes"/>
      <point x="867" y="1166"/>
      <point x="833" y="1255"/>
      <point x="715" y="1255" type="curve" smooth="yes"/>
      <point x="564" y="1255"/>
      <point x="496" y="1112"/>
      <point x="437" y="911" type="curve"/>
    </contour>
    <contour>
      <point x="518" y="236" type="curve" smooth="yes"/>
      <point x="668" y="236"/>
      <point x="750" y="381"/>
      <point x="814" y="651" type="curve"/>
      <point x="383" y="651" type="line"/>
      <point x="372" y="576"/>
      <point x="366" y="513"/>
      <point x="366" y="457" type="curve" smooth="yes"/>
      <point x="366" y="312"/>
      <point x="407" y="236"/>
    </contour>
  </outline>
</glyph>
<glyph name="uni04F8" format="1">
  <advance width="1233"/>
  <unicode hex="04F8"/>
  <outline>
    <contour>
      <point x="496" y="1608" type="line" smooth="yes" name="dv01"/>
      <point x="475" y="1608"/>
      <point x="466" y="1621"/>
      <point x="470" y="1641" type="curve" smooth="yes" name="dv02"/>
      <point x="508" y="1827" type="line" smooth="yes"/>
      <point x="512" y="1845"/>
      <point x="523" y="1854"/>
      <point x="540" y="1854" type="curve" smooth="yes"/>
      <point x="715" y="1854" type="line" smooth="yes" name="sv01"/>
      <point x="736" y="1854"/>
      <point x="745" y="1841"/>
      <point x="741" y="1821" type="curve" smooth="yes" name="sv02"/>
      <point x="704" y="1635" type="line" smooth="yes"/>
      <point x="701" y="1617"/>
      <point x="690" y="1608"/>
      <point x="672" y="1608" type="curve" smooth="yes"/>
    </contour>
    <contour>
      <point x="892" y="1608" type="line" smooth="yes" name="at01"/>
      <point x="871" y="1608"/>
      <point x="862" y="1621" name="dv04"/>
      <point x="866" y="1641" type="curve" smooth="yes"/>
      <point x="903" y="1827" type="line" smooth="yes" name="dh02"/>
      <point x="906" y="1845"/>
      <point x="916" y="1854" name="ab01"/>
      <point x="935" y="1854" type="curve" smooth="yes"/>
      <point x="1110" y="1854" type="line" smooth="yes" name="at02"/>
      <point x="1130" y="1854"/>
      <point x="1141" y="1841" name="ab02"/>
      <point x="1137" y="1821" type="curve" smooth="yes" name="sh01"/>
      <point x="1101" y="1635" type="line" smooth="yes" name="sv03"/>
      <point x="1098" y="1617"/>
      <point x="1087" y="1608" name="dh01"/>
      <point x="1069" y="1608" type="curve" smooth="yes"/>
    </contour>
    <contour>
      <point x="188" y="1493" type="line" name="dv03"/>
      <point x="443" y="1493" type="line"/>
      <point x="330" y="913" type="line"/>
      <point x="340" y="913" type="line" smooth="yes"/>
      <point x="692" y="913"/>
      <point x="801" y="773"/>
      <point x="801" y="580" type="curve" smooth="yes"/>
      <point x="801" y="539"/>
      <point x="796" y="498"/>
      <point x="787" y="451" type="curve" smooth="yes"/>
      <point x="727" y="146"/>
      <point x="519" y="0"/>
      <point x="163" y="0" type="curve" smooth="yes"/>
      <point x="-102" y="0" type="line"/>
    </contour>
    <contour>
      <point x="1086" y="1493" type="line"/>
      <point x="1341" y="1493" type="line"/>
      <point x="1051" y="0" type="line"/>
      <point x="796" y="0" type="line"/>
    </contour>
    <contour>
      <point x="220" y="236" type="line" smooth="yes"/>
      <point x="416" y="236"/>
      <point x="502" y="290"/>
      <point x="532" y="451" type="curve"/>
      <point x="539" y="483"/>
      <point x="541" y="512"/>
      <point x="541" y="535" type="curve" smooth="yes"/>
      <point x="541" y="578"/>
      <point x="529" y="614"/>
      <point x="501" y="638" type="curve" smooth="yes"/>
      <point x="470" y="665"/>
      <point x="415" y="678"/>
      <point x="306" y="678" type="curve" smooth="yes"/>
      <point x="285" y="678" type="line"/>
      <point x="199" y="236" type="line"/>
    </contour>
  </outline>
</glyph>
<glyph name="uni053A" format="1">
  <advance width="1233"/>
  <unicode hex="053A"/>
  <outline>
    <contour>
      <point x="398" y="-29" type="curve" smooth="yes" name="dv01"/>
      <point x="215" y="-29"/>
      <point x="99" y="17" name="dh01"/>
      <point x="34" y="109" type="curve" smooth="yes"/>
      <point x="-7" y="166"/>
      <point x="-27" y="242" name="sv01"/>
      <point x="-27" y="336" type="curve" smooth="yes"/>
      <point x="-27" y="389" name="at01"/>
      <point x="-20" y="451"/>
      <point x="-7" y="522" type="curve" smooth="yes"/>
      <point x="26" y="697" name="dv04"/>
      <point x="87" y="838" name="dv03"/>
      <point x="192" y="938" type="curve" smooth="yes"/>
      <point x="291" y="1033"/>
      <point x="419" y="1079"/>
      <point x="595" y="1079" type="curve" smooth="yes"/>
      <point x="826" y="1079" type="line" name="dv02"/>
      <point x="906" y="1493" type="line"/>
      <point x="1201" y="1493" type="line" name="sv02"/>
      <point x="1121" y="1079" type="line"/>
      <point x="1267" y="1079" type="line"/>
      <point x="1216" y="819" type="line"/>
      <point x="1070" y="819" type="line"/>
      <point x="1018" y="551" type="line" smooth="yes" name="dh02"/>
      <point x="978" y="344"/>
      <point x="911" y="201"/>
      <point x="812" y="109" type="curve" smooth="yes"/>
      <point x="711" y="14"/>
      <point x="577" y="-29"/>
    </contour>
    <contour>
      <point x="446" y="238" type="curve" smooth="yes"/>
      <point x="583" y="238"/>
      <point x="680" y="328"/>
      <point x="709" y="477" type="curve" smooth="yes"/>
      <point x="775" y="819" type="line"/>
      <point x="560" y="819" type="line" smooth="yes"/>
      <point x="492" y="819"/>
      <point x="434" y="795"/>
      <point x="389" y="752" type="curve" smooth="yes"/>
      <point x="344" y="709"/>
      <point x="313" y="649"/>
      <point x="298" y="573" type="curve" smooth="yes"/>
      <point x="279" y="477" type="line" smooth="yes"/>
      <point x="274" y="453"/>
      <point x="272" y="429"/>
      <point x="272" y="409" type="curve" smooth="yes"/>
      <point x="272" y="300"/>
      <point x="333" y="238"/>
    </contour>
  </outline>
</glyph>
<glyph name="uni053B" format="1">
  <advance width="1233"/>
  <unicode hex="053B"/>
  <outline>
    <contour>
      <point x="286" y="1493" type="line" name="at01"/>
      <point x="581" y="1493" type="line"/>
      <point x="503" y="1093" type="line" name="iv01"/>
      <point x="572" y="1125" name="at02"/>
      <point x="635" y="1141"/>
      <point x="738" y="1141" type="curve" smooth="yes" name="dh02"/>
      <point x="902" y="1141"/>
      <point x="1025" y="1099"/>
      <point x="1090" y="1004" type="curve" smooth="yes"/>
      <point x="1129" y="947"/>
      <point x="1148" y="871" name="dh01"/>
      <point x="1148" y="774" type="curve" smooth="yes" name="sv01"/>
      <point x="1148" y="706"/>
      <point x="1139" y="638" name="ab01"/>
      <point x="1124" y="561" type="curve" smooth="yes"/>
      <point x="1111" y="494" type="line"/>
      <point x="816" y="494" type="line" name="sh01"/>
      <point x="844" y="635" type="line" smooth="yes"/>
      <point x="849" y="659"/>
      <point x="851" y="683"/>
      <point x="851" y="703" type="curve" smooth="yes"/>
      <point x="851" y="814"/>
      <point x="790" y="874"/>
      <point x="675" y="874" type="curve" smooth="yes"/>
      <point x="539" y="874"/>
      <point x="446" y="789"/>
      <point x="418" y="646" type="curve" smooth="yes"/>
      <point x="290" y="0" type="line"/>
      <point x="-4" y="0" type="line"/>
    </contour>
  </outline>
</glyph>
<glyph name="uni054B" format="1">
  <advance width="1233"/>
  <unicode hex="054B"/>
  <outline>
    <contour>
      <point x="28" y="331" type="line" name="sv01"/>
      <point x="323" y="331" type="line"/>
      <point x="310" y="261" type="line" name="sv02"/>
      <point x="378" y="261"/>
      <point x="440" y="285"/>
      <point x="500" y="320" type="curve"/>
      <point x="529" y="389"/>
      <point x="551" y="454"/>
      <point x="551" y="507" type="curve" smooth="yes"/>
      <point x="551" y="535"/>
      <point x="545" y="560"/>
      <point x="529" y="580" type="curve"/>
      <point x="498" y="615" name="at01"/>
      <point x="467" y="618"/>
      <point x="419" y="621" type="curve" smooth="yes"/>
      <point x="357" y="624" name="dh02"/>
      <point x="243" y="624"/>
      <point x="168" y="680" type="curve" smooth="yes"/>
      <point x="111" y="724" name="sv03"/>
      <point x="96" y="786" name="sv04"/>
      <point x="96" y="839" type="curve" smooth="yes" name="ab01"/>
      <point x="96" y="876"/>
      <point x="102" y="923" name="iv01"/>
      <point x="113" y="970" type="curve" smooth="yes"/>
      <point x="132" y="1058"/>
      <point x="159" y="1130" name="dh01"/>
      <point x="210" y="1214" type="curve" smooth="yes"/>
      <point x="258" y="1291" name="sv05"/>
      <point x="325" y="1367"/>
      <point x="422" y="1427" type="curve" smooth="yes"/>
      <point x="510" y="1480"/>
      <point x="617" y="1518"/>
      <point x="769" y="1518" type="curve" smooth="yes"/>
      <point x="899" y="1518"/>
      <point x="1000" y="1489"/>
      <point x="1073" y="1431" type="curve" smooth="yes"/>
      <point x="1145" y="1374"/>
      <point x="1183" y="1294"/>
      <point x="1198" y="1205" type="curve" name="sh01"/>
      <point x="1205" y="1170"/>
      <point x="1206" y="1134"/>
      <point x="1206" y="1098" type="curve" smooth="yes"/>
      <point x="1206" y="1018"/>
      <point x="1196" y="948"/>
      <point x="1184" y="891" type="curve" smooth="yes"/>
      <point x="1157" y="762"/>
      <point x="1109" y="648"/>
      <point x="1034" y="541" type="curve" smooth="yes"/>
      <point x="959" y="434"/>
      <point x="852" y="328"/>
      <point x="723" y="261" type="curve"/>
      <point x="1002" y="261" type="line"/>
      <point x="951" y="0" type="line"/>
      <point x="-35" y="0" type="line"/>
    </contour>
    <contour>
      <point x="745" y="557" type="curve"/>
      <point x="782" y="610"/>
      <point x="816" y="683"/>
      <point x="835" y="728" type="curve" smooth="yes"/>
      <point x="859" y="788"/>
      <point x="873" y="840"/>
      <point x="882" y="885" type="curve" smooth="yes"/>
      <point x="893" y="940"/>
      <point x="900" y="994"/>
      <point x="900" y="1043" type="curve" smooth="yes"/>
      <point x="900" y="1079"/>
      <point x="896" y="1112"/>
      <point x="888" y="1141" type="curve" smooth="yes"/>
      <point x="869" y="1206"/>
      <point x="820" y="1255"/>
      <point x="716" y="1255" type="curve" smooth="yes"/>
      <point x="620" y="1255"/>
      <point x="548" y="1215"/>
      <point x="497" y="1159" type="curve" smooth="yes"/>
      <point x="448" y="1104"/>
      <point x="419" y="1034"/>
      <point x="407" y="974" type="curve"/>
      <point x="405" y="959"/>
      <point x="404" y="946"/>
      <point x="404" y="935" type="curve" smooth="yes"/>
      <point x="404" y="902"/>
      <point x="417" y="879"/>
      <point x="443" y="867" type="curve" smooth="yes"/>
      <point x="463" y="858"/>
      <point x="480" y="858"/>
      <point x="503" y="857" type="curve" smooth="yes"/>
      <point x="570" y="854"/>
      <point x="649" y="841"/>
      <point x="703" y="787" type="curve" smooth="yes"/>
      <point x="738" y="752"/>
      <point x="759" y="704"/>
      <point x="759" y="643" type="curve" smooth="yes"/>
      <point x="759" y="630"/>
      <point x="758" y="613"/>
      <point x="754" y="594" type="curve" smooth="yes"/>
      <point x="752" y="580"/>
      <point x="749" y="568"/>
    </contour>
  </outline>
</glyph>
<glyph name="uni054F" format="1">
  <advance width="1233"/>
  <unicode hex="054F"/>
  <outline>
    <contour>
      <point x="482" y="-29" type="curve" smooth="yes" name="dv01"/>
      <point x="315" y="-29"/>
      <point x="196" y="19" name="dh01"/>
      <point x="120" y="103" type="curve" smooth="yes" name="sh01"/>
      <point x="64" y="165" name="sv01"/>
      <point x="36" y="245" name="dh02"/>
      <point x="36" y="343" type="curve" smooth="yes"/>
      <point x="36" y="375" name="dv02"/>
      <point x="39" y="410"/>
      <point x="46" y="447" type="curve" name="dh03"/>
      <point x="353" y="447" type="line"/>
      <point x="347" y="417"/>
      <point x="344" y="390"/>
      <point x="344" y="367" type="curve" smooth="yes"/>
      <point x="344" y="312" name="ih01"/>
      <point x="359" y="279"/>
      <point x="384" y="256" type="curve" smooth="yes"/>
      <point x="421" y="221"/>
      <point x="475" y="215" name="at01"/>
      <point x="522" y="215" type="curve" smooth="yes"/>
      <point x="605" y="215" name="sh02"/>
      <point x="659" y="237" name="sh03"/>
      <point x="700" y="281" type="curve" smooth="yes"/>
      <point x="743" y="326" name="ih02"/>
      <point x="764" y="387"/>
      <point x="765" y="447" type="curve" name="sv02"/>
      <point x="765" y="505"/>
      <point x="747" y="541"/>
      <point x="675" y="581" type="curve" smooth="yes" name="sh04"/>
      <point x="646" y="598"/>
      <point x="615" y="612"/>
      <point x="576" y="628" type="curve" smooth="yes"/>
      <point x="485" y="665"/>
      <point x="419" y="693" name="dh04"/>
      <point x="354" y="737" type="curve" smooth="yes"/>
      <point x="281" y="788"/>
      <point x="234" y="847"/>
      <point x="215" y="938" type="curve" smooth="yes"/>
      <point x="210" y="961" name="sh05"/>
      <point x="208" y="985"/>
      <point x="208" y="1008" type="curve" smooth="yes"/>
      <point x="208" y="1077"/>
      <point x="226" y="1142"/>
      <point x="245" y="1190" type="curve" smooth="yes"/>
      <point x="270" y="1254"/>
      <point x="307" y="1314"/>
      <point x="367" y="1374" type="curve" smooth="yes"/>
      <point x="420" y="1426"/>
      <point x="492" y="1474"/>
      <point x="597" y="1501" type="curve" smooth="yes"/>
      <point x="645" y="1513"/>
      <point x="694" y="1520"/>
      <point x="762" y="1520" type="curve" smooth="yes"/>
      <point x="935" y="1520"/>
      <point x="1050" y="1474"/>
      <point x="1117" y="1401" type="curve" smooth="yes"/>
      <point x="1166" y="1346"/>
      <point x="1188" y="1279"/>
      <point x="1188" y="1203" type="curve" smooth="yes"/>
      <point x="1188" y="1176"/>
      <point x="1185" y="1148"/>
      <point x="1180" y="1120" type="curve"/>
      <point x="880" y="1120" type="line"/>
      <point x="883" y="1133"/>
      <point x="884" y="1145"/>
      <point x="884" y="1158" type="curve" smooth="yes"/>
      <point x="884" y="1205"/>
      <point x="866" y="1232"/>
      <point x="839" y="1249" type="curve" smooth="yes"/>
      <point x="804" y="1272"/>
      <point x="754" y="1275"/>
      <point x="719" y="1275" type="curve" smooth="yes"/>
      <point x="668" y="1275"/>
      <point x="626" y="1266"/>
      <point x="589" y="1242" type="curve" smooth="yes"/>
      <point x="552" y="1218"/>
      <point x="522" y="1180"/>
      <point x="510" y="1120" type="curve" smooth="yes"/>
      <point x="508" y="1110"/>
      <point x="507" y="1101"/>
      <point x="507" y="1092" type="curve" smooth="yes"/>
      <point x="507" y="1047"/>
      <point x="528" y="1008"/>
      <point x="588" y="969" type="curve" smooth="yes"/>
      <point x="621" y="948"/>
      <point x="662" y="929"/>
      <point x="689" y="918" type="curve" smooth="yes"/>
      <point x="748" y="894"/>
      <point x="855" y="849"/>
      <point x="920" y="806" type="curve" smooth="yes"/>
      <point x="991" y="759"/>
      <point x="1049" y="690"/>
      <point x="1068" y="595" type="curve" smooth="yes"/>
      <point x="1072" y="574"/>
      <point x="1074" y="551"/>
      <point x="1074" y="527" type="curve" smooth="yes"/>
      <point x="1074" y="438"/>
      <point x="1047" y="330"/>
      <point x="996" y="243" type="curve" smooth="yes"/>
      <point x="933" y="135"/>
      <point x="832" y="50"/>
      <point x="699" y="5" type="curve" smooth="yes"/>
      <point x="633" y="-18"/>
      <point x="561" y="-29"/>
    </contour>
  </outline>
</glyph>
<glyph name="uni0553" format="1">
  <advance width="1233"/>
  <unicode hex="0553"/>
  <outline>
    <contour>
      <point x="368" y="138" type="line" name="sv04"/>
      <point x="188" y="146"/>
      <point x="88" y="210" name="sh01"/>
      <point x="40" y="319" type="curve" smooth="yes"/>
      <point x="16" y="374"/>
      <point x="6" y="440" name="sv06"/>
      <point x="6" y="509" type="curve" smooth="yes" name="at01"/>
      <point x="6" y="578"/>
      <point x="16" y="673" name="sv07"/>
      <point x="33" y="765" type="curve" smooth="yes"/>
      <point x="66" y="944" name="sh02"/>
      <point x="126" y="1099"/>
      <point x="214" y="1202" type="curve" smooth="yes"/>
      <point x="309" y="1314" name="sv03"/>
      <point x="435" y="1364" name="ab01"/>
      <point x="608" y="1371" type="curve"/>
      <point x="632" y="1493" type="line" name="sv05"/>
      <point x="887" y="1493" type="line"/>
      <point x="863" y="1371" type="line"/>
      <point x="1043" y="1364" name="sh03"/>
      <point x="1144" y="1306" name="sh04"/>
      <point x="1195" y="1202" type="curve" smooth="yes" name="sv01"/>
      <point x="1222" y="1146" name="sv02"/>
      <point x="1232" y="1081"/>
      <point x="1232" y="1013" type="curve" smooth="yes"/>
      <point x="1232" y="945" name="ah02"/>
      <point x="1222" y="856" name="sh05"/>
      <point x="1205" y="765" type="curve" smooth="yes" name="sv08"/>
      <point x="1170" y="578" name="ah01"/>
      <point x="1110" y="425" name="sh06"/>
      <point x="1021" y="317" type="curve" smooth="yes"/>
      <point x="934" y="212"/>
      <point x="814" y="145"/>
      <point x="623" y="137" type="curve"/>
      <point x="596" y="0" type="line"/>
      <point x="341" y="0" type="line"/>
    </contour>
    <contour>
      <point x="564" y="1143" type="line"/>
      <point x="465" y="1139"/>
      <point x="409" y="1112"/>
      <point x="370" y="1052" type="curve" smooth="yes"/>
      <point x="329" y="988"/>
      <point x="312" y="898"/>
      <point x="285" y="765" type="curve" smooth="yes"/>
      <point x="266" y="668"/>
      <point x="252" y="595"/>
      <point x="252" y="530" type="curve" smooth="yes"/>
      <point x="252" y="507"/>
      <point x="254" y="486"/>
      <point x="258" y="468" type="curve" smooth="yes"/>
      <point x="273" y="403"/>
      <point x="317" y="370"/>
      <point x="413" y="366" type="curve"/>
    </contour>
    <contour>
      <point x="668" y="366" type="line"/>
      <point x="772" y="370"/>
      <point x="828" y="409"/>
      <point x="864" y="469" type="curve" smooth="yes"/>
      <point x="903" y="534"/>
      <point x="925" y="636"/>
      <point x="950" y="765" type="curve" smooth="yes"/>
      <point x="969" y="864"/>
      <point x="983" y="941"/>
      <point x="983" y="998" type="curve" smooth="yes"/>
      <point x="983" y="1018"/>
      <point x="981" y="1036"/>
      <point x="977" y="1052" type="curve" smooth="yes"/>
      <point x="961" y="1113"/>
      <point x="915" y="1139"/>
      <point x="819" y="1143" type="curve"/>
    </contour>
  </outline>
</glyph>
<glyph name="uni0554" format="1">
  <advance width="1233"/>
  <unicode hex="0554"/>
  <outline>
    <contour>
      <point x="79" y="154" type="line" name="dv01"/>
      <point x="-66" y="154" type="line"/>
      <point x="-16" y="414" type="line" name="sv01"/>
      <point x="129" y="414" type="line" name="dv02"/>
      <point x="254" y="1057" type="line" smooth="yes"/>
      <point x="281" y="1198"/>
      <point x="343" y="1309" name="at01"/>
      <point x="435" y="1388" type="curve" smooth="yes"/>
      <point x="531" y="1471" name="dh02"/>
      <point x="661" y="1518"/>
      <point x="832" y="1518" type="curve" smooth="yes"/>
      <point x="1005" y="1518" name="dv03"/>
      <point x="1118" y="1468" name="iv01"/>
      <point x="1183" y="1385" type="curve" smooth="yes" name="sv02"/>
      <point x="1230" y="1325" name="sv03"/>
      <point x="1250" y="1251" name="sv04"/>
      <point x="1250" y="1168" type="curve" smooth="yes"/>
      <point x="1250" y="1131" name="ab01"/>
      <point x="1246" y="1094"/>
      <point x="1239" y="1055" type="curve" smooth="yes" name="dv04"/>
      <point x="1215" y="926"/>
      <point x="1154" y="809"/>
      <point x="1054" y="724" type="curve" smooth="yes" name="dh01"/>
      <point x="950" y="636"/>
      <point x="815" y="591"/>
      <point x="666" y="591" type="curve" smooth="yes" name="sv05"/>
      <point x="602" y="591"/>
      <point x="540" y="599"/>
      <point x="468" y="640" type="curve"/>
      <point x="424" y="414" type="line"/>
      <point x="1093" y="414" type="line"/>
      <point x="1043" y="154" type="line"/>
      <point x="374" y="154" type="line" name="sh01"/>
      <point x="344" y="0" type="line"/>
      <point x="49" y="0" type="line"/>
    </contour>
    <contour>
      <point x="708" y="846" type="curve" smooth="yes"/>
      <point x="783" y="846"/>
      <point x="833" y="866"/>
      <point x="869" y="902" type="curve" smooth="yes"/>
      <point x="905" y="938"/>
      <point x="926" y="991"/>
      <point x="938" y="1055" type="curve" smooth="yes"/>
      <point x="943" y="1082"/>
      <point x="946" y="1104"/>
      <point x="946" y="1127" type="curve" smooth="yes"/>
      <point x="946" y="1159"/>
      <point x="940" y="1185"/>
      <point x="927" y="1206" type="curve" smooth="yes"/>
      <point x="916" y="1225"/>
      <point x="899" y="1239"/>
      <point x="876" y="1248" type="curve" smooth="yes"/>
      <point x="853" y="1258"/>
      <point x="822" y="1263"/>
      <point x="783" y="1263" type="curve" smooth="yes"/>
      <point x="704" y="1263"/>
      <point x="654" y="1242"/>
      <point x="618" y="1206" type="curve" smooth="yes"/>
      <point x="582" y="1170"/>
      <point x="562" y="1118"/>
      <point x="550" y="1057" type="curve" smooth="yes"/>
      <point x="545" y="1030"/>
      <point x="542" y="1007"/>
      <point x="542" y="987" type="curve" smooth="yes"/>
      <point x="542" y="954"/>
      <point x="549" y="927"/>
      <point x="563" y="905" type="curve" smooth="yes"/>
      <point x="586" y="868"/>
      <point x="631" y="846"/>
    </contour>
  </outline>
</glyph>
<glyph name="uni0561" format="1">
  <advance width="1233"/>
  <unicode hex="0561"/>
  <outline>
    <contour>
      <point x="201" y="-27" type="curve" smooth="yes" name="ab03"/>
      <point x="108" y="-27"/>
      <point x="46" y="6"/>
      <point x="23" y="73" type="curve" smooth="yes"/>
      <point x="14" y="97" name="at01"/>
      <point x="10" y="132"/>
      <point x="10" y="177" type="curve" smooth="yes"/>
      <point x="10" y="254"/>
      <point x="21" y="356"/>
      <point x="48" y="489" type="curve" name="sv01"/>
      <point x="171" y="1120" type="line"/>
      <point x="411" y="1120" type="line"/>
      <point x="271" y="401" type="line" smooth="yes" name="at02"/>
      <point x="260" y="342"/>
      <point x="254" y="301"/>
      <point x="254" y="269" type="curve" smooth="yes"/>
      <point x="254" y="256"/>
      <point x="255" y="244" name="sv02"/>
      <point x="258" y="233" type="curve" smooth="yes"/>
      <point x="267" y="201"/>
      <point x="285" y="192" name="at03"/>
      <point x="318" y="192" type="curve" smooth="yes"/>
      <point x="353" y="192" name="ab01"/>
      <point x="376" y="202"/>
      <point x="397" y="235" type="curve" smooth="yes" name="iv01"/>
      <point x="418" y="268" name="ab04"/>
      <point x="433" y="318" name="ab02"/>
      <point x="449" y="401" type="curve" smooth="yes" name="iv02"/>
      <point x="589" y="1120" type="line"/>
      <point x="826" y="1120" type="line"/>
      <point x="686" y="401" type="line"/>
      <point x="675" y="348"/>
      <point x="670" y="305"/>
      <point x="670" y="272" type="curve" smooth="yes"/>
      <point x="670" y="257"/>
      <point x="671" y="246"/>
      <point x="674" y="235" type="curve" smooth="yes"/>
      <point x="682" y="206"/>
      <point x="698" y="192"/>
      <point x="737" y="192" type="curve" smooth="yes"/>
      <point x="769" y="192"/>
      <point x="793" y="201"/>
      <point x="813" y="233" type="curve" smooth="yes"/>
      <point x="833" y="265"/>
      <point x="848" y="317"/>
      <point x="864" y="401" type="curve" smooth="yes"/>
      <point x="1004" y="1120" type="line"/>
      <point x="1244" y="1120" type="line"/>
      <point x="1026" y="0" type="line"/>
      <point x="813" y="0" type="line"/>
      <point x="836" y="116" type="line"/>
      <point x="789" y="32"/>
      <point x="698" y="-27"/>
      <point x="608" y="-27" type="curve" smooth="yes"/>
      <point x="560" y="-27"/>
      <point x="521" y="-11"/>
      <point x="490" y="14" type="curve" smooth="yes"/>
      <point x="462" y="37"/>
      <point x="440" y="69"/>
      <point x="440" y="112" type="curve"/>
      <point x="373" y="9"/>
      <point x="298" y="-27"/>
    </contour>
  </outline>
</glyph>
<glyph name="uni0564" format="1">
  <advance width="1233"/>
  <unicode hex="0564"/>
  <outline>
    <contour>
      <point x="763" y="682" type="line" smooth="yes" name="hr00"/>
      <point x="771" y="723" name="dh02"/>
      <point x="775" y="757" name="sv01"/>
      <point x="775" y="785" type="curve" smooth="yes"/>
      <point x="775" y="870" name="ab02"/>
      <point x="738" y="909"/>
      <point x="666" y="909" type="curve" smooth="yes" name="at01"/>
      <point x="551" y="909" name="dh01"/>
      <point x="471" y="812" name="iv01"/>
      <point x="438" y="641" type="curve" smooth="yes" name="at02"/>
      <point x="313" y="0" type="line" name="sh01"/>
      <point x="22" y="0" type="line"/>
      <point x="240" y="1120" type="line" name="sv02"/>
      <point x="502" y="1120" type="line" name="sh02"/>
      <point x="498" y="952" type="line" name="ab03"/>
      <point x="566" y="1079"/>
      <point x="681" y="1147" name="ab01"/>
      <point x="826" y="1147" type="curve" smooth="yes"/>
      <point x="993" y="1147"/>
      <point x="1080" y="1059"/>
      <point x="1080" y="880" type="curve" smooth="yes"/>
      <point x="1080" y="833"/>
      <point x="1074" y="784"/>
      <point x="1063" y="727" type="curve" smooth="yes"/>
      <point x="965" y="225" type="line"/>
      <point x="1093" y="225" type="line"/>
      <point x="1049" y="0" type="line"/>
      <point x="921" y="0" type="line"/>
      <point x="839" y="-426" type="line"/>
      <point x="548" y="-426" type="line"/>
    </contour>
  </outline>
</glyph>
<glyph name="uni0568" format="1">
  <advance width="1233"/>
  <unicode hex="0568"/>
  <outline>
    <contour>
      <point x="266" y="1120" type="line" name="at01"/>
      <point x="528" y="1120" type="line" name="dh01"/>
      <point x="524" y="952" type="line" name="iv01"/>
      <point x="592" y="1079" name="at02"/>
      <point x="707" y="1147" name="sh01"/>
      <point x="852" y="1147" type="curve" smooth="yes"/>
      <point x="1019" y="1147" name="ab01"/>
      <point x="1106" y="1059"/>
      <point x="1106" y="880" type="curve" smooth="yes"/>
      <point x="1106" y="833" name="dh02"/>
      <point x="1100" y="784" name="sv01"/>
      <point x="1089" y="727" type="curve" smooth="yes"/>
      <point x="947" y="0" type="line" name="sv02"/>
      <point x="656" y="0" type="line"/>
      <point x="789" y="682" type="line" smooth="yes" name="ab02"/>
      <point x="797" y="723"/>
      <point x="801" y="757"/>
      <point x="801" y="785" type="curve" smooth="yes"/>
      <point x="801" y="870"/>
      <point x="764" y="909"/>
      <point x="692" y="909" type="curve" smooth="yes"/>
      <point x="577" y="909"/>
      <point x="497" y="812"/>
      <point x="464" y="641" type="curve" smooth="yes"/>
      <point x="300" y="-201" type="line"/>
      <point x="944" y="-201" type="line"/>
      <point x="901" y="-426" type="line"/>
      <point x="-33" y="-426" type="line"/>
    </contour>
  </outline>
</glyph>
<glyph name="uni056A" format="1">
  <advance width="1233"/>
  <unicode hex="056A"/>
  <outline>
    <contour>
      <point x="406" y="-29" type="curve" smooth="yes" name="dv01"/>
      <point x="286" y="-29"/>
      <point x="200" y="2"/>
      <point x="136" y="55" type="curve" smooth="yes" name="dh01"/>
      <point x="72" y="108"/>
      <point x="35" y="181"/>
      <point x="18" y="269" type="curve" smooth="yes" name="at02"/>
      <point x="11" y="308"/>
      <point x="7" y="347" name="at01"/>
      <point x="7" y="390" type="curve" smooth="yes"/>
      <point x="7" y="443" name="at03"/>
      <point x="13" y="498"/>
      <point x="24" y="557" type="curve" smooth="yes" name="sv01"/>
      <point x="53" y="709"/>
      <point x="114" y="848"/>
      <point x="217" y="953" type="curve" smooth="yes"/>
      <point x="321" y="1061"/>
      <point x="455" y="1120"/>
      <point x="630" y="1120" type="curve" smooth="yes" name="dv02"/>
      <point x="835" y="1120" type="line"/>
      <point x="920" y="1556" type="line"/>
      <point x="1212" y="1556" type="line" name="sv02"/>
      <point x="1127" y="1120" type="line" name="sv03"/>
      <point x="1236" y="1120" type="line"/>
      <point x="1192" y="895" type="line"/>
      <point x="1083" y="895" type="line" name="dh02"/>
      <point x="1017" y="557" type="line" smooth="yes"/>
      <point x="996" y="449"/>
      <point x="960" y="350"/>
      <point x="912" y="269" type="curve" smooth="yes"/>
      <point x="860" y="181"/>
      <point x="790" y="106"/>
      <point x="710" y="55" type="curve" smooth="yes"/>
      <point x="626" y="2"/>
      <point x="526" y="-29"/>
    </contour>
    <contour>
      <point x="452" y="211" type="curve" smooth="yes"/>
      <point x="528" y="211"/>
      <point x="587" y="245"/>
      <point x="632" y="309" type="curve" smooth="yes"/>
      <point x="675" y="369"/>
      <point x="705" y="454"/>
      <point x="725" y="557" type="curve" smooth="yes"/>
      <point x="791" y="895" type="line"/>
      <point x="586" y="895" type="line" smooth="yes"/>
      <point x="510" y="895"/>
      <point x="453" y="864"/>
      <point x="410" y="805" type="curve" smooth="yes"/>
      <point x="367" y="746"/>
      <point x="337" y="663"/>
      <point x="317" y="558" type="curve" smooth="yes"/>
      <point x="306" y="499"/>
      <point x="300" y="447"/>
      <point x="300" y="402" type="curve" smooth="yes"/>
      <point x="300" y="366"/>
      <point x="304" y="333"/>
      <point x="313" y="306" type="curve" smooth="yes"/>
      <point x="333" y="245"/>
      <point x="377" y="211"/>
    </contour>
  </outline>
</glyph>
<glyph name="uni0572" format="1">
  <advance width="1233"/>
  <unicode hex="0572"/>
  <outline>
    <contour>
      <point x="773" y="682" type="line" smooth="yes" name="hr00"/>
      <point x="781" y="723" name="dh02"/>
      <point x="785" y="757" name="sv01"/>
      <point x="785" y="785" type="curve" smooth="yes"/>
      <point x="785" y="870" name="ab01"/>
      <point x="748" y="909"/>
      <point x="676" y="909" type="curve" smooth="yes" name="at01"/>
      <point x="561" y="909" name="dh01"/>
      <point x="481" y="812" name="iv01"/>
      <point x="448" y="641" type="curve" smooth="yes" name="at02"/>
      <point x="323" y="0" type="line" name="sh01"/>
      <point x="32" y="0" type="line"/>
      <point x="250" y="1120" type="line" name="sv02"/>
      <point x="512" y="1120" type="line"/>
      <point x="508" y="952" type="line" name="ab02"/>
      <point x="576" y="1079"/>
      <point x="691" y="1147"/>
      <point x="836" y="1147" type="curve" smooth="yes"/>
      <point x="1003" y="1147"/>
      <point x="1090" y="1059"/>
      <point x="1090" y="880" type="curve" smooth="yes"/>
      <point x="1090" y="833"/>
      <point x="1084" y="784"/>
      <point x="1073" y="727" type="curve" smooth="yes"/>
      <point x="892" y="-201" type="line"/>
      <point x="1020" y="-201" type="line"/>
      <point x="977" y="-426" type="line"/>
      <point x="558" y="-426" type="line"/>
    </contour>
  </outline>
</glyph>
<glyph name="uni0576" format="1">
  <advance width="1233"/>
  <unicode hex="0576"/>
  <outline>
    <contour>
      <point x="395" y="-27" type="curve" smooth="yes" name="ab01"/>
      <point x="228" y="-27" name="dh01"/>
      <point x="141" y="61"/>
      <point x="141" y="240" type="curve" smooth="yes" name="sv01"/>
      <point x="141" y="287"/>
      <point x="147" y="336" name="at02"/>
      <point x="158" y="393" type="curve" smooth="yes"/>
      <point x="341" y="1331" type="line"/>
      <point x="213" y="1331" type="line" name="dh02"/>
      <point x="256" y="1556" type="line" name="sv02"/>
      <point x="675" y="1556" type="line"/>
      <point x="458" y="438" type="line" smooth="yes" name="at01"/>
      <point x="450" y="397"/>
      <point x="446" y="362" name="ab02"/>
      <point x="446" y="335" type="curve" smooth="yes"/>
      <point x="446" y="250" name="sh01"/>
      <point x="483" y="211"/>
      <point x="555" y="211" type="curve" smooth="yes"/>
      <point x="670" y="211"/>
      <point x="750" y="308"/>
      <point x="783" y="479" type="curve" smooth="yes"/>
      <point x="908" y="1120" type="line"/>
      <point x="1199" y="1120" type="line"/>
      <point x="981" y="0" type="line"/>
      <point x="719" y="0" type="line"/>
      <point x="723" y="168" type="line"/>
      <point x="655" y="41"/>
      <point x="540" y="-27"/>
    </contour>
  </outline>
</glyph>
<glyph name="uni057C" format="1">
  <advance width="1233"/>
  <unicode hex="057C"/>
  <outline>
    <contour>
      <point x="253" y="1120" type="line" name="at01"/>
      <point x="515" y="1120" type="line"/>
      <point x="511" y="952" type="line" name="iv01"/>
      <point x="539" y="1009"/>
      <point x="589" y="1060" name="at02"/>
      <point x="640" y="1092" type="curve" smooth="yes"/>
      <point x="696" y="1127" name="dh02"/>
      <point x="762" y="1147"/>
      <point x="838" y="1147" type="curve" smooth="yes"/>
      <point x="959" y="1147" name="ih01"/>
      <point x="1038" y="1098"/>
      <point x="1081" y="1019" type="curve" smooth="yes" name="ab01"/>
      <point x="1108" y="971"/>
      <point x="1121" y="912"/>
      <point x="1121" y="841" type="curve" smooth="yes"/>
      <point x="1121" y="802"/>
      <point x="1117" y="766" name="dh01"/>
      <point x="1110" y="727" type="curve" smooth="yes"/>
      <point x="1091" y="628" name="sv01"/>
      <point x="1052" y="528"/>
      <point x="997" y="440" type="curve" smooth="yes"/>
      <point x="945" y="355" name="ab02"/>
      <point x="884" y="282"/>
      <point x="820" y="225" type="curve"/>
      <point x="1078" y="225" type="line" name="sh01"/>
      <point x="1034" y="0" type="line"/>
      <point x="519" y="0" type="line"/>
      <point x="553" y="175" type="line"/>
      <point x="628" y="244"/>
      <point x="675" y="305"/>
      <point x="715" y="380" type="curve" smooth="yes"/>
      <point x="756" y="456"/>
      <point x="783" y="537"/>
      <point x="800" y="625" type="curve" smooth="yes"/>
      <point x="807" y="662"/>
      <point x="812" y="697"/>
      <point x="812" y="738" type="curve" smooth="yes"/>
      <point x="812" y="770"/>
      <point x="809" y="799"/>
      <point x="800" y="824" type="curve" smooth="yes"/>
      <point x="781" y="879"/>
      <point x="740" y="909"/>
      <point x="676" y="909" type="curve" smooth="yes"/>
      <point x="612" y="909"/>
      <point x="565" y="878"/>
      <point x="528" y="830" type="curve" smooth="yes"/>
      <point x="491" y="782"/>
      <point x="465" y="720"/>
      <point x="451" y="645" type="curve" smooth="yes"/>
      <point x="326" y="0" type="line"/>
      <point x="35" y="0" type="line"/>
    </contour>
  </outline>
</glyph>
<glyph name="uni057D" format="1">
  <advance width="1233"/>
  <unicode hex="057D"/>
  <outline>
    <contour>
      <point x="374" y="-29" type="curve" smooth="yes" name="sv02"/>
      <point x="210" y="-29" name="dh01"/>
      <point x="112" y="67"/>
      <point x="112" y="244" type="curve" smooth="yes" name="at01"/>
      <point x="112" y="283"/>
      <point x="117" y="327"/>
      <point x="129" y="391" type="curve" smooth="yes" name="dh02"/>
      <point x="272" y="1120" type="line" name="sv01"/>
      <point x="563" y="1120" type="line"/>
      <point x="432" y="436" type="line" smooth="yes" name="at02"/>
      <point x="425" y="400"/>
      <point x="422" y="362" name="ab01"/>
      <point x="422" y="338" type="curve" smooth="yes"/>
      <point x="422" y="251" name="sh01"/>
      <point x="462" y="211"/>
      <point x="534" y="211" type="curve" smooth="yes"/>
      <point x="641" y="211"/>
      <point x="721" y="298"/>
      <point x="758" y="489" type="curve" smooth="yes"/>
      <point x="880" y="1120" type="line"/>
      <point x="1171" y="1120" type="line"/>
      <point x="954" y="0" type="line"/>
      <point x="690" y="0" type="line"/>
      <point x="694" y="166" type="line"/>
      <point x="634" y="45"/>
      <point x="519" y="-29"/>
    </contour>
  </outline>
</glyph>
<glyph name="uni0586" format="1">
  <advance width="1233"/>
  <unicode hex="0586"/>
  <outline>
    <contour>
      <point x="352" y="-3" type="line" name="hr00"/>
      <point x="264" y="4"/>
      <point x="182" y="30"/>
      <point x="110" y="73" type="curve" smooth="yes" name="iv01"/>
      <point x="38" y="116"/>
      <point x="-23" y="173"/>
      <point x="-60" y="242" type="curve" name="dv01"/>
      <point x="162" y="434" type="line"/>
      <point x="190" y="362" name="sh01"/>
      <point x="222" y="317" name="sh02"/>
      <point x="262" y="285" type="curve" smooth="yes"/>
      <point x="299" y="254" name="at01"/>
      <point x="338" y="239"/>
      <point x="397" y="230" type="curve" name="dv02"/>
      <point x="522" y="869" type="line"/>
      <point x="397" y="869" name="sh03"/>
      <point x="309" y="904"/>
      <point x="254" y="964" type="curve" smooth="yes"/>
      <point x="214" y="1008"/>
      <point x="193" y="1068" name="ab01"/>
      <point x="193" y="1136" type="curve" smooth="yes"/>
      <point x="193" y="1163" name="sv01"/>
      <point x="196" y="1186" name="sh05"/>
      <point x="201" y="1213" type="curve" smooth="yes" name="sh04"/>
      <point x="222" y="1318" name="sv02"/>
      <point x="273" y="1400" name="ih01"/>
      <point x="354" y="1461" type="curve" smooth="yes"/>
      <point x="435" y="1521" name="sh06"/>
      <point x="545" y="1556" name="ah02"/>
      <point x="686" y="1556" type="curve" smooth="yes"/>
      <point x="895" y="1556" type="line" name="sv03"/>
      <point x="809" y="1114" type="line" name="ah01"/>
      <point x="977" y="1105" name="sh07"/>
      <point x="1077" y="1053"/>
      <point x="1129" y="961" type="curve" smooth="yes"/>
      <point x="1160" y="908"/>
      <point x="1173" y="843"/>
      <point x="1173" y="767" type="curve" smooth="yes"/>
      <point x="1173" y="707"/>
      <point x="1164" y="640"/>
      <point x="1152" y="577" type="curve" smooth="yes"/>
      <point x="1121" y="416"/>
      <point x="1067" y="274"/>
      <point x="976" y="171" type="curve" smooth="yes"/>
      <point x="887" y="70"/>
      <point x="764" y="6"/>
      <point x="592" y="-3" type="curve"/>
      <point x="510" y="-426" type="line"/>
      <point x="270" y="-426" type="line"/>
    </contour>
    <contour>
      <point x="610" y="1325" type="line"/>
      <point x="509" y="1325"/>
      <point x="458" y="1299"/>
      <point x="443" y="1219" type="curve" smooth="yes"/>
      <point x="441" y="1208"/>
      <point x="440" y="1198"/>
      <point x="440" y="1190" type="curve" smooth="yes"/>
      <point x="440" y="1134"/>
      <point x="483" y="1118"/>
      <point x="570" y="1118" type="curve"/>
    </contour>
    <contour>
      <point x="637" y="229" type="line"/>
      <point x="725" y="244"/>
      <point x="777" y="285"/>
      <point x="818" y="344" type="curve" smooth="yes"/>
      <point x="859" y="403"/>
      <point x="887" y="475"/>
      <point x="906" y="574" type="curve" smooth="yes"/>
      <point x="914" y="616"/>
      <point x="918" y="654"/>
      <point x="918" y="689" type="curve" smooth="yes"/>
      <point x="918" y="722"/>
      <point x="914" y="752"/>
      <point x="903" y="777" type="curve" smooth="yes"/>
      <point x="882" y="825"/>
      <point x="837" y="856"/>
      <point x="761" y="864" type="curve"/>
    </contour>
  </outline>
</glyph>
<glyph name="uni0587" format="1">
  <advance width="1233"/>
  <unicode hex="0587"/>
  <outline>
    <contour>
      <point x="305" y="-29" type="curve" smooth="yes" name="sv02"/>
      <point x="138" y="-29" name="dh01"/>
      <point x="51" y="58"/>
      <point x="51" y="237" type="curve" smooth="yes" name="at01"/>
      <point x="51" y="284"/>
      <point x="57" y="334"/>
      <point x="68" y="391" type="curve" smooth="yes" name="dh02"/>
      <point x="294" y="1556" type="line" name="sv01"/>
      <point x="587" y="1556" type="line"/>
      <point x="369" y="436" type="line" smooth="yes" name="at02"/>
      <point x="361" y="396"/>
      <point x="357" y="362" name="sv03"/>
      <point x="357" y="333" type="curve" smooth="yes" name="sv04"/>
      <point x="357" y="252" name="ab01"/>
      <point x="393" y="211"/>
      <point x="466" y="211" type="curve" smooth="yes" name="iv01"/>
      <point x="578" y="211"/>
      <point x="657" y="302"/>
      <point x="692" y="477" type="curve"/>
      <point x="817" y="1120" type="line"/>
      <point x="1110" y="1120" type="line"/>
      <point x="936" y="225" type="line"/>
      <point x="1176" y="225" type="line"/>
      <point x="1132" y="0" type="line"/>
      <point x="599" y="0" type="line"/>
      <point x="631" y="166" type="line"/>
      <point x="567" y="43"/>
      <point x="456" y="-29"/>
    </contour>
  </outline>
</glyph>
<glyph name="uni10E1" format="1">
  <advance width="1233"/>
  <unicode hex="10E1"/>
  <outline>
    <contour>
      <point x="527" y="0" type="curve" smooth="yes" name="ab01"/>
      <point x="248" y="0" name="sh01"/>
      <point x="95" y="123"/>
      <point x="95" y="368" type="curve" smooth="yes" name="at01"/>
      <point x="95" y="417"/>
      <point x="101" y="468" name="sh03"/>
      <point x="112" y="525" type="curve" smooth="yes" name="sh02"/>
      <point x="304" y="1517" type="line" name="sv01"/>
      <point x="599" y="1517" type="line" name="sh04"/>
      <point x="407" y="525" type="line" smooth="yes" name="ah02"/>
      <point x="399" y="485"/>
      <point x="394" y="452"/>
      <point x="394" y="415" type="curve" smooth="yes"/>
      <point x="394" y="313"/>
      <point x="432" y="214"/>
      <point x="573" y="214" type="curve" smooth="yes"/>
      <point x="718" y="214"/>
      <point x="815" y="315"/>
      <point x="858" y="530" type="curve"/>
      <point x="861" y="550"/>
      <point x="863" y="569" name="sh05"/>
      <point x="863" y="586" type="curve" smooth="yes" name="sh06"/>
      <point x="863" y="675"/>
      <point x="806" y="716" name="ah01"/>
      <point x="777" y="734" type="curve" smooth="yes" name="sh07"/>
      <point x="722" y="770"/>
      <point x="698" y="796"/>
      <point x="682" y="833" type="curve" smooth="yes"/>
      <point x="673" y="853"/>
      <point x="669" y="875"/>
      <point x="669" y="898" type="curve" smooth="yes"/>
      <point x="669" y="913"/>
      <point x="671" y="927"/>
      <point x="674" y="942" type="curve" smooth="yes"/>
      <point x="695" y="1046"/>
      <point x="785" y="1150"/>
      <point x="1003" y="1262" type="curve"/>
      <point x="1049" y="1136" type="line"/>
      <point x="985" y="1113"/>
      <point x="950" y="1087"/>
      <point x="927" y="1056" type="curve" smooth="yes"/>
      <point x="904" y="1025"/>
      <point x="895" y="993"/>
      <point x="890" y="962" type="curve" smooth="yes"/>
      <point x="886" y="943"/>
      <point x="907" y="929"/>
      <point x="932" y="913" type="curve" smooth="yes"/>
      <point x="981" y="882"/>
      <point x="1025" y="859"/>
      <point x="1034" y="854" type="curve" smooth="yes"/>
      <point x="1133" y="798"/>
      <point x="1161" y="704"/>
      <point x="1161" y="621" type="curve" smooth="yes"/>
      <point x="1161" y="594"/>
      <point x="1158" y="560"/>
      <point x="1153" y="525" type="curve" smooth="yes"/>
      <point x="1105" y="197"/>
      <point x="879" y="0"/>
    </contour>
  </outline>
</glyph>
<glyph name="uni10EA" format="1">
  <advance width="1233"/>
  <unicode hex="10EA"/>
  <outline>
    <contour>
      <point x="486" y="-401" type="curve" smooth="yes" name="dv01"/>
      <point x="81" y="-401" name="dh01"/>
      <point x="3" y="-191"/>
      <point x="3" y="52" type="curve" smooth="yes"/>
      <point x="3" y="136"/>
      <point x="11" y="215" name="av01"/>
      <point x="30" y="307" type="curve" smooth="yes"/>
      <point x="48" y="399" type="line" smooth="yes"/>
      <point x="68" y="502"/>
      <point x="102" y="610"/>
      <point x="161" y="731" type="curve" smooth="yes" name="dh02"/>
      <point x="217" y="848" name="dv02"/>
      <point x="292" y="972"/>
      <point x="396" y="1104" type="curve" name="sh01"/>
      <point x="604" y="983" type="line" name="ih01"/>
      <point x="527" y="891" name="dv03"/>
      <point x="478" y="810"/>
      <point x="438" y="722" type="curve" smooth="yes"/>
      <point x="397" y="633" name="dv04"/>
      <point x="371" y="553"/>
      <point x="352" y="456" type="curve" smooth="yes" name="sh02"/>
      <point x="323" y="307" type="line" smooth="yes"/>
      <point x="306" y="220" name="dh03"/>
      <point x="298" y="147" name="sh03"/>
      <point x="298" y="80" type="curve" smooth="yes"/>
      <point x="298" y="-120"/>
      <point x="371" y="-191"/>
      <point x="525" y="-191" type="curve" smooth="yes" name="dh04"/>
      <point x="605" y="-191"/>
      <point x="673" y="-173" name="ih02"/>
      <point x="728" y="-113" type="curve" smooth="yes" name="sh04"/>
      <point x="773" y="-64" name="sh05"/>
      <point x="814" y="21"/>
      <point x="831" y="136" type="curve" smooth="yes"/>
      <point x="835" y="161"/>
      <point x="838" y="193" name="sh06"/>
      <point x="838" y="212" type="curve" smooth="yes"/>
      <point x="838" y="268"/>
      <point x="809" y="304"/>
      <point x="749" y="304" type="curve" smooth="yes"/>
      <point x="517" y="304" type="line"/>
      <point x="557" y="510" type="line"/>
      <point x="782" y="510" type="line" smooth="yes"/>
      <point x="845" y="510"/>
      <point x="887" y="552"/>
      <point x="904" y="644" type="curve" smooth="yes"/>
      <point x="906" y="654"/>
      <point x="907" y="663"/>
      <point x="907" y="672" type="curve" smooth="yes"/>
      <point x="907" y="734"/>
      <point x="846" y="753"/>
      <point x="817" y="766" type="curve"/>
      <point x="729" y="801"/>
      <point x="686" y="855"/>
      <point x="686" y="961" type="curve" smooth="yes"/>
      <point x="686" y="989"/>
      <point x="689" y="1017"/>
      <point x="694" y="1048" type="curve"/>
      <point x="983" y="1048" type="line"/>
      <point x="979" y="1027"/>
      <point x="977" y="1007"/>
      <point x="977" y="988" type="curve" smooth="yes"/>
      <point x="977" y="956"/>
      <point x="982" y="908"/>
      <point x="1036" y="884" type="curve" smooth="yes"/>
      <point x="1091" y="860"/>
      <point x="1191" y="814"/>
      <point x="1191" y="693" type="curve" smooth="yes"/>
      <point x="1191" y="681"/>
      <point x="1190" y="665"/>
      <point x="1187" y="649" type="curve" smooth="yes"/>
      <point x="1171" y="561"/>
      <point x="1101" y="477"/>
      <point x="988" y="409" type="curve"/>
      <point x="1092" y="324"/>
      <point x="1115" y="233"/>
      <point x="1115" y="172" type="curve" smooth="yes"/>
      <point x="1115" y="153"/>
      <point x="1113" y="129"/>
      <point x="1110" y="105" type="curve" smooth="yes"/>
      <point x="1089" y="-53"/>
      <point x="1010" y="-187"/>
      <point x="910" y="-271" type="curve" smooth="yes"/>
      <point x="806" y="-359"/>
      <point x="671" y="-401"/>
    </contour>
  </outline>
</glyph>
<glyph name="uni10F4" format="1">
  <advance width="1233"/>
  <unicode hex="10F4"/>
  <outline>
    <contour>
      <point x="415" y="-402" type="curve" smooth="yes" name="dv01"/>
      <point x="115" y="-402" name="dh01"/>
      <point x="-32" y="-295" name="sh01"/>
      <point x="-32" y="-68" type="curve" smooth="yes"/>
      <point x="-32" y="-29" name="dh02"/>
      <point x="-28" y="12" name="dv02"/>
      <point x="-19" y="57" type="curve"/>
      <point x="276" y="58" type="line"/>
      <point x="270" y="30"/>
      <point x="267" y="4"/>
      <point x="267" y="-20" type="curve" smooth="yes"/>
      <point x="267" y="-111" name="dv05"/>
      <point x="310" y="-192"/>
      <point x="451" y="-192" type="curve" smooth="yes"/>
      <point x="516" y="-192" name="dv06"/>
      <point x="579" y="-176"/>
      <point x="626" y="-141" type="curve" smooth="yes" name="iv01"/>
      <point x="671" y="-109"/>
      <point x="702" y="-63" name="sv01"/>
      <point x="718" y="16" type="curve" smooth="yes" name="dv07"/>
      <point x="729" y="69" type="line" smooth="yes"/>
      <point x="732" y="84"/>
      <point x="733" y="98" name="ih01"/>
      <point x="733" y="110" type="curve" smooth="yes"/>
      <point x="733" y="139" name="dv04"/>
      <point x="727" y="178"/>
      <point x="692" y="210" type="curve" smooth="yes" name="dv03"/>
      <point x="657" y="241"/>
      <point x="603" y="257" name="sh02"/>
      <point x="530" y="257" type="curve" smooth="yes" name="dv08"/>
      <point x="314" y="257" type="line"/>
      <point x="358" y="482" type="line"/>
      <point x="571" y="482" type="line" name="iv02"/>
      <point x="635" y="487"/>
      <point x="697" y="520"/>
      <point x="750" y="575" type="curve" smooth="yes"/>
      <point x="802" y="628"/>
      <point x="844" y="702"/>
      <point x="871" y="802" type="curve"/>
      <point x="818" y="793" type="line"/>
      <point x="783" y="786"/>
      <point x="747" y="781"/>
      <point x="695" y="776" type="curve"/>
      <point x="674" y="773"/>
      <point x="655" y="772"/>
      <point x="638" y="772" type="curve" smooth="yes"/>
      <point x="629" y="772" type="line" smooth="yes"/>
      <point x="454" y="772"/>
      <point x="342" y="809"/>
      <point x="271" y="873" type="curve"/>
      <point x="199" y="940"/>
      <point x="188" y="1019"/>
      <point x="188" y="1073" type="curve" smooth="yes"/>
      <point x="188" y="1100"/>
      <point x="191" y="1130"/>
      <point x="197" y="1161" type="curve" smooth="yes"/>
      <point x="249" y="1430"/>
      <point x="465" y="1551"/>
      <point x="845" y="1551" type="curve" smooth="yes"/>
      <point x="851" y="1551" type="line"/>
      <point x="809" y="1343" type="line"/>
      <point x="602" y="1343"/>
      <point x="486" y="1277"/>
      <point x="461" y="1145" type="curve"/>
      <point x="458" y="1134"/>
      <point x="457" y="1123"/>
      <point x="457" y="1112" type="curve" smooth="yes"/>
      <point x="457" y="1027"/>
      <point x="536" y="985"/>
      <point x="665" y="985" type="curve" smooth="yes"/>
      <point x="825" y="985"/>
      <point x="999" y="1050"/>
      <point x="1243" y="1203" type="curve"/>
      <point x="1175" y="853" type="line" smooth="yes"/>
      <point x="1130" y="620"/>
      <point x="1016" y="469"/>
      <point x="816" y="378" type="curve"/>
      <point x="979" y="325"/>
      <point x="1030" y="238"/>
      <point x="1030" y="139" type="curve" smooth="yes"/>
      <point x="1030" y="119"/>
      <point x="1028" y="94"/>
      <point x="1024" y="73" type="curve" smooth="yes"/>
      <point x="1013" y="20" type="line" smooth="yes"/>
      <point x="954" y="-259"/>
      <point x="760" y="-402"/>
    </contour>
  </outline>
</glyph>
<glyph name="uni10F7" format="1">
  <advance width="1233"/>
  <unicode hex="10F7"/>
  <outline>
    <contour>
      <point x="414" y="-403" type="curve" smooth="yes" name="dv01"/>
      <point x="67" y="-403" name="dh01"/>
      <point x="-36" y="-255"/>
      <point x="-36" y="-74" type="curve" smooth="yes"/>
      <point x="-36" y="-38"/>
      <point x="-32" y="-2" name="dh03"/>
      <point x="-25" y="38" type="curve" smooth="yes" name="dv03"/>
      <point x="40" y="389"/>
      <point x="297" y="489"/>
      <point x="418" y="533" type="curve" smooth="yes"/>
      <point x="622" y="606"/>
      <point x="698" y="633"/>
      <point x="722" y="715" type="curve" smooth="yes" name="dv04"/>
      <point x="727" y="732" name="dh04"/>
      <point x="729" y="750"/>
      <point x="729" y="771" type="curve" smooth="yes"/>
      <point x="729" y="827"/>
      <point x="713" y="854" name="dh02"/>
      <point x="657" y="854" type="curve" smooth="yes" name="dv02"/>
      <point x="628" y="854"/>
      <point x="582" y="847" name="ih01"/>
      <point x="547" y="828" type="curve" smooth="yes" name="ih02"/>
      <point x="511" y="809"/>
      <point x="484" y="781" name="sh01"/>
      <point x="476" y="744" type="curve" name="sh02"/>
      <point x="471" y="687" type="line"/>
      <point x="249" y="654" type="line"/>
      <point x="248" y="726" type="line" name="sh03"/>
      <point x="291" y="954"/>
      <point x="448" y="1066"/>
      <point x="704" y="1066" type="curve" smooth="yes"/>
      <point x="964" y="1066"/>
      <point x="1025" y="948"/>
      <point x="1025" y="815" type="curve" smooth="yes"/>
      <point x="1025" y="776"/>
      <point x="1021" y="731"/>
      <point x="1014" y="702" type="curve"/>
      <point x="983" y="554"/>
      <point x="846" y="436"/>
      <point x="602" y="347" type="curve"/>
      <point x="405" y="300"/>
      <point x="301" y="199"/>
      <point x="272" y="46" type="curve" smooth="yes"/>
      <point x="267" y="19"/>
      <point x="264" y="-3"/>
      <point x="264" y="-27" type="curve" smooth="yes"/>
      <point x="264" y="-137"/>
      <point x="331" y="-192"/>
      <point x="464" y="-192" type="curve" smooth="yes"/>
      <point x="639" y="-192"/>
      <point x="726" y="-102"/>
      <point x="761" y="50" type="curve" smooth="yes"/>
      <point x="768" y="78"/>
      <point x="771" y="102"/>
      <point x="771" y="125" type="curve" smooth="yes"/>
      <point x="771" y="158"/>
      <point x="763" y="186"/>
      <point x="734" y="214" type="curve"/>
      <point x="979" y="363" type="line"/>
      <point x="1036" y="283"/>
      <point x="1061" y="198"/>
      <point x="1061" y="122" type="curve" smooth="yes"/>
      <point x="1061" y="101"/>
      <point x="1059" y="69"/>
      <point x="1055" y="38" type="curve" smooth="yes"/>
      <point x="1018" y="-235"/>
      <point x="786" y="-403"/>
    </contour>
  </outline>
</glyph>
<glyph name="uni10FC" format="1">
  <advance width="1233"/>
  <unicode hex="10FC"/>
  <outline>
    <contour>
      <point x="349" y="930" type="curve" smooth="yes" name="sh01"/>
      <point x="349" y="957" name="sh02"/>
      <point x="353" y="994"/>
      <point x="361" y="1034" type="curve" smooth="yes"/>
      <point x="423" y="1357" type="line" smooth="yes" name="dv04"/>
      <point x="448" y="1488" name="dv03"/>
      <point x="530" y="1553"/>
      <point x="670" y="1553" type="curve" smooth="yes"/>
      <point x="928" y="1553" type="line" name="ih01"/>
      <point x="905" y="1434" type="line" name="dv06"/>
      <point x="625" y="1436" type="line" name="sh03"/>
      <point x="599" y="1436" name="sh04"/>
      <point x="582" y="1416" name="dv01"/>
      <point x="574" y="1377" type="curve" smooth="yes"/>
      <point x="553" y="1269" type="line" name="dv02"/>
      <point x="643" y="1319" type="line" name="sh05"/>
      <point x="774" y="1319" name="ah02"/>
      <point x="839" y="1256" name="dv05"/>
      <point x="839" y="1131" type="curve" smooth="yes" name="sh07"/>
      <point x="839" y="1104" name="sh06"/>
      <point x="836" y="1070"/>
      <point x="829" y="1034" type="curve" smooth="yes" name="ah01"/>
      <point x="789" y="827"/>
      <point x="658" y="736"/>
      <point x="541" y="736" type="curve" smooth="yes"/>
      <point x="439" y="736"/>
      <point x="349" y="805"/>
    </contour>
    <contour>
      <point x="557" y="852" type="curve" smooth="yes"/>
      <point x="614" y="852"/>
      <point x="658" y="913"/>
      <point x="681" y="1034" type="curve" smooth="yes"/>
      <point x="686" y="1061"/>
      <point x="688" y="1084"/>
      <point x="688" y="1101" type="curve" smooth="yes"/>
      <point x="688" y="1161"/>
      <point x="664" y="1190"/>
      <point x="623" y="1190" type="curve" smooth="yes"/>
      <point x="567" y="1190"/>
      <point x="526" y="1137"/>
      <point x="506" y="1028" type="curve" smooth="yes"/>
      <point x="500" y="994"/>
      <point x="497" y="965"/>
      <point x="497" y="942" type="curve" smooth="yes"/>
      <point x="497" y="882"/>
      <point x="517" y="852"/>
    </contour>
  </outline>
</glyph>
<glyph name="uni2075" format="1">
  <advance width="1233"/>
  <unicode hex="2075"/>
  <outline>
    <contour>
      <point x="507" y="1103" type="curve" smooth="yes" name="dv01"/>
      <point x="416" y="1103"/>
      <point x="317" y="1115"/>
      <point x="237" y="1138" type="curve" name="dv02"/>
      <point x="273" y="1287" type="line" name="dh01"/>
      <point x="341" y="1258" name="dv05"/>
      <point x="423" y="1241"/>
      <point x="508" y="1241" type="curve" smooth="yes"/>
      <point x="672" y="1241" name="dv04"/>
      <point x="775" y="1304" name="dv03"/>
      <point x="775" y="1403" type="curve" smooth="yes"/>
      <point x="775" y="1484" name="iv01"/>
      <point x="707" y="1531" name="dv06"/>
      <point x="584" y="1531" type="curve" smooth="yes" name="dh02"/>
      <point x="515" y="1531"/>
      <point x="435" y="1516"/>
      <point x="359" y="1488" type="curve" name="sh01"/>
      <point x="474" y="1953" type="line"/>
      <point x="1050" y="1953" type="line"/>
      <point x="1013" y="1808" type="line"/>
      <point x="608" y="1808" type="line"/>
      <point x="570" y="1654" type="line"/>
      <point x="601" y="1663"/>
      <point x="634" y="1668"/>
      <point x="677" y="1668" type="curve" smooth="yes"/>
      <point x="859" y="1668"/>
      <point x="979" y="1576"/>
      <point x="979" y="1421" type="curve" smooth="yes"/>
      <point x="979" y="1232"/>
      <point x="799" y="1103"/>
    </contour>
  </outline>
</glyph>
<glyph name="uni208E" format="1">
  <advance width="1233"/>
  <unicode hex="208E"/>
  <outline>
    <contour>
      <point x="383" y="-151" type="line" name="av02"/>
      <point x="579" y="82" name="dh01"/>
      <point x="677" y="307" name="av01"/>
      <point x="677" y="525" type="curve" smooth="yes"/>
      <point x="677" y="633" name="dh02"/>
      <point x="654" y="745" name="av03"/>
      <point x="606" y="870" type="curve"/>
      <point x="748" y="870" type="line"/>
      <point x="816" y="742"/>
      <point x="850" y="618"/>
      <point x="850" y="499" type="curve" smooth="yes"/>
      <point x="850" y="282"/>
      <point x="742" y="66"/>
      <point x="525" y="-151" type="curve"/>
    </contour>
  </outline>
</glyph>
<glyph name="uni20A0" format="1">
  <advance width="1233"/>
  <unicode hex="20A0"/>
  <outline>
    <contour>
      <point x="674" y="416" type="line" name="iv01"/>
      <point x="593" y="360" name="dv01"/>
      <point x="508" y="332" name="dh01"/>
      <point x="419" y="332" type="curve" smooth="yes" name="sh01"/>
      <point x="196" y="332" name="at01"/>
      <point x="66" y="503"/>
      <point x="66" y="770" type="curve" smooth="yes" name="iv02"/>
      <point x="66" y="817" name="sv01"/>
      <point x="69" y="868" name="sh02"/>
      <point x="76" y="913" type="curve" name="dh02"/>
      <point x="121" y="1261" name="dv02"/>
      <point x="316" y="1494"/>
      <point x="577" y="1494" type="curve" smooth="yes" name="at02"/>
      <point x="668" y="1494"/>
      <point x="741" y="1467" name="sv02"/>
      <point x="809" y="1411" type="curve"/>
      <point x="777" y="1179" type="line"/>
      <point x="717" y="1247" name="dv04"/>
      <point x="649" y="1285" name="dv03"/>
      <point x="572" y="1285" type="curve" smooth="yes"/>
      <point x="424" y="1285" name="sv03"/>
      <point x="313" y="1145"/>
      <point x="284" y="913" type="curve" smooth="yes" name="ab01"/>
      <point x="280" y="881"/>
      <point x="277" y="843"/>
      <point x="277" y="808" type="curve" smooth="yes"/>
      <point x="277" y="640"/>
      <point x="344" y="542"/>
      <point x="469" y="542" type="curve" smooth="yes"/>
      <point x="545" y="542"/>
      <point x="624" y="577"/>
      <point x="705" y="647" type="curve"/>
      <point x="770" y="1120" type="line"/>
      <point x="1312" y="1120" type="line"/>
      <point x="1283" y="902" type="line"/>
      <point x="941" y="902" type="line"/>
      <point x="912" y="693" type="line"/>
      <point x="1234" y="693" type="line"/>
      <point x="1204" y="475" type="line"/>
      <point x="883" y="475" type="line"/>
      <point x="848" y="218" type="line"/>
      <point x="1202" y="218" type="line"/>
      <point x="1173" y="0" type="line"/>
      <point x="617" y="0" type="line"/>
    </contour>
  </outline>
</glyph>
<glyph name="lira" format="1">
  <advance width="1233"/>
  <unicode hex="20A4"/>
  <outline>
    <contour>
      <point x="20" y="266" type="line" name="sv01"/>
      <point x="223" y="266" type="line"/>
      <point x="255" y="450" type="line" name="dv01"/>
      <point x="68" y="450" type="line"/>
      <point x="109" y="689" type="line"/>
      <point x="299" y="689" type="line" name="dv02"/>
      <point x="314" y="776" type="line" name="dv03"/>
      <point x="121" y="776" type="line"/>
      <point x="161" y="1015" type="line"/>
      <point x="354" y="1015" type="line" name="dv04"/>
      <point x="418" y="1360" name="at01"/>
      <point x="587" y="1520"/>
      <point x="919" y="1520" type="curve" smooth="yes" name="iv01"/>
      <point x="1030" y="1520" name="sv02"/>
      <point x="1136" y="1502" name="sv03"/>
      <point x="1237" y="1466" type="curve"/>
      <point x="1187" y="1180" type="line" name="sv04"/>
      <point x="1115" y="1229"/>
      <point x="1030" y="1257" name="sv05"/>
      <point x="942" y="1257" type="curve" smooth="yes"/>
      <point x="794" y="1257" name="sv06"/>
      <point x="716" y="1178"/>
      <point x="684" y="1015" type="curve" name="sv07"/>
      <point x="1002" y="1015" type="line" name="sv08"/>
      <point x="962" y="776" type="line" name="ab01"/>
      <point x="643" y="776" type="line"/>
      <point x="629" y="689" type="line"/>
      <point x="950" y="689" type="line"/>
      <point x="909" y="450" type="line"/>
      <point x="584" y="450" type="line"/>
      <point x="551" y="266" type="line"/>
      <point x="1039" y="266" type="line"/>
      <point x="993" y="0" type="line"/>
      <point x="-27" y="0" type="line"/>
    </contour>
  </outline>
</glyph>
<glyph name="peseta" format="1">
  <advance width="1233"/>
  <unicode hex="20A7"/>
  <outline>
    <contour>
      <point x="1049" y="-29" type="curve" smooth="yes" name="dv01"/>
      <point x="1015" y="-29" name="ab01"/>
      <point x="980" y="-23"/>
      <point x="943" y="-11" type="curve" smooth="yes" name="ab02"/>
      <point x="930" y="-6"/>
      <point x="917" y="-2"/>
      <point x="902" y="5" type="curve"/>
      <point x="901" y="0" type="line" name="sh01"/>
      <point x="763" y="0" type="line" smooth="yes"/>
      <point x="663" y="0"/>
      <point x="610" y="91" name="dv03"/>
      <point x="610" y="266" type="curve" smooth="yes"/>
      <point x="610" y="301" name="ab03"/>
      <point x="612" y="345"/>
      <point x="616" y="389" type="curve" smooth="yes" name="at01"/>
      <point x="658" y="864" type="line"/>
      <point x="637" y="864" type="line" name="dh02"/>
      <point x="613" y="734"/>
      <point x="561" y="612"/>
      <point x="482" y="557" type="curve" smooth="yes" name="sh02"/>
      <point x="444" y="531" name="at02"/>
      <point x="397" y="518"/>
      <point x="340" y="518" type="curve" smooth="yes" name="ih01"/>
      <point x="223" y="518" type="line" name="at03"/>
      <point x="177" y="0" type="line"/>
      <point x="0" y="0" type="line" name="sh03"/>
      <point x="134" y="1493" type="line" name="sv01"/>
      <point x="428" y="1493" type="line" smooth="yes" name="dh04"/>
      <point x="573" y="1493"/>
      <point x="649" y="1343"/>
      <point x="657" y="1120" type="curve" name="dh06"/>
      <point x="682" y="1120" type="line"/>
      <point x="710" y="1438" type="line" name="dv04"/>
      <point x="876" y="1438" type="line" name="dh01"/>
      <point x="848" y="1120" type="line" name="sv02"/>
      <point x="1016" y="1120" type="line"/>
      <point x="1015" y="1110" type="line"/>
      <point x="1050" y="1135" name="dv02"/>
      <point x="1092" y="1147" name="dh05"/>
      <point x="1143" y="1147" type="curve" smooth="yes"/>
      <point x="1211" y="1147"/>
      <point x="1279" y="1126" name="dh03"/>
      <point x="1348" y="1085" type="curve" name="sh04"/>
      <point x="1324" y="807" type="line"/>
      <point x="1259" y="875"/>
      <point x="1197" y="909"/>
      <point x="1136" y="909" type="curve" smooth="yes"/>
      <point x="1073" y="909"/>
      <point x="1036" y="872" name="ih02"/>
      <point x="1036" y="804" type="curve" smooth="yes"/>
      <point x="1036" y="761"/>
      <point x="1052" y="744"/>
      <point x="1108" y="717" type="curve"/>
      <point x="1138" y="705" type="line"/>
      <point x="1277" y="641"/>
      <point x="1318" y="552" name="sh05"/>
      <point x="1318" y="383" type="curve" smooth="yes"/>
      <point x="1318" y="126"/>
      <point x="1220" y="-29"/>
    </contour>
    <contour>
      <point x="347" y="797" type="line" smooth="yes"/>
      <point x="430" y="797"/>
      <point x="475" y="889"/>
      <point x="475" y="1037" type="curve" smooth="yes"/>
      <point x="475" y="1155"/>
      <point x="444" y="1214"/>
      <point x="383" y="1214" type="curve" smooth="yes"/>
      <point x="286" y="1214" type="line"/>
      <point x="249" y="797" type="line"/>
    </contour>
    <contour>
      <point x="1054" y="209" type="curve" smooth="yes"/>
      <point x="1124" y="209"/>
      <point x="1159" y="245"/>
      <point x="1159" y="316" type="curve" smooth="yes"/>
      <point x="1159" y="364"/>
      <point x="1143" y="385"/>
      <point x="1084" y="412" type="curve"/>
      <point x="1054" y="424" type="line"/>
      <point x="935" y="477"/>
      <point x="890" y="573"/>
      <point x="890" y="758" type="curve" smooth="yes"/>
      <point x="890" y="795"/>
      <point x="892" y="831"/>
      <point x="896" y="864" type="curve"/>
      <point x="824" y="864" type="line"/>
      <point x="782" y="390" type="line"/>
      <point x="779" y="369"/>
      <point x="779" y="355"/>
      <point x="779" y="342" type="curve" smooth="yes"/>
      <point x="779" y="281"/>
      <point x="796" y="256"/>
      <point x="840" y="256" type="curve" smooth="yes"/>
      <point x="849" y="256" type="line"/>
      <point x="855" y="324" type="line"/>
      <point x="876" y="297"/>
      <point x="899" y="274"/>
      <point x="923" y="256" type="curve"/>
      <point x="925" y="256" type="line"/>
      <point x="925" y="255" type="line"/>
      <point x="931" y="250"/>
      <point x="940" y="244"/>
      <point x="951" y="238" type="curve" smooth="yes"/>
      <point x="986" y="219"/>
      <point x="1017" y="209"/>
    </contour>
  </outline>
</glyph>
<glyph name="uni20B5" format="1">
  <advance width="1233"/>
  <unicode hex="20B5"/>
  <outline>
    <contour>
      <point x="585" y="-27" type="line" name="hr00"/>
      <point x="351" y="-11" name="dh01"/>
      <point x="38" y="120"/>
      <point x="38" y="505" type="curve" smooth="yes"/>
      <point x="38" y="554" name="at01"/>
      <point x="43" y="612"/>
      <point x="55" y="673" type="curve" smooth="yes"/>
      <point x="151" y="1158"/>
      <point x="556" y="1353"/>
      <point x="856" y="1369" type="curve" name="iv01"/>
      <point x="892" y="1556" type="line"/>
      <point x="1054" y="1556" type="line" name="iv02"/>
      <point x="1017" y="1365" type="line" name="iv03"/>
      <point x="1056" y="1360"/>
      <point x="1092" y="1354"/>
      <point x="1127" y="1343" type="curve" smooth="yes"/>
      <point x="1193" y="1324" name="av01"/>
      <point x="1254" y="1297"/>
      <point x="1309" y="1260" type="curve" name="iv04"/>
      <point x="1249" y="951" type="line"/>
      <point x="1161" y="1055" name="dh02"/>
      <point x="1060" y="1096"/>
      <point x="967" y="1105" type="curve"/>
      <point x="798" y="236" type="line"/>
      <point x="895" y="245"/>
      <point x="1008" y="286"/>
      <point x="1141" y="391" type="curve"/>
      <point x="1081" y="82" type="line"/>
      <point x="1009" y="45"/>
      <point x="937" y="18"/>
      <point x="866" y="-1" type="curve" smooth="yes"/>
      <point x="823" y="-12"/>
      <point x="787" y="-18"/>
      <point x="748" y="-23" type="curve"/>
      <point x="694" y="-301" type="line"/>
      <point x="532" y="-301" type="line"/>
    </contour>
    <contour>
      <point x="803" y="1095" type="line"/>
      <point x="764" y="1086"/>
      <point x="725" y="1069"/>
      <point x="686" y="1046" type="curve" smooth="yes"/>
      <point x="530" y="951"/>
      <point x="431" y="751"/>
      <point x="431" y="575" type="curve" smooth="yes"/>
      <point x="431" y="466"/>
      <point x="469" y="359"/>
      <point x="545" y="294" type="curve" smooth="yes"/>
      <point x="571" y="272"/>
      <point x="602" y="256"/>
      <point x="638" y="246" type="curve"/>
    </contour>
  </outline>
</glyph>
<glyph name="twothirds" format="1">
  <advance width="1233"/>
  <unicode hex="2154"/>
  <outline>
    <contour>
      <point x="31" y="965" type="line" name="hr00"/>
      <point x="143" y="1047"/>
      <point x="109" y="1022" name="dh01"/>
      <point x="173" y="1067" type="curve" smooth="yes" name="dv03"/>
      <point x="442" y="1260"/>
      <point x="573" y="1378"/>
      <point x="573" y="1454" type="curve" smooth="yes" name="dv04"/>
      <point x="573" y="1501" name="dh02"/>
      <point x="524" y="1538"/>
      <point x="429" y="1538" type="curve" smooth="yes"/>
      <point x="353" y="1538" name="dv10"/>
      <point x="248" y="1514" name="dv09"/>
      <point x="145" y="1467" type="curve"/>
      <point x="176" y="1629" type="line"/>
      <point x="277" y="1660"/>
      <point x="376" y="1676"/>
      <point x="464" y="1676" type="curve" smooth="yes"/>
      <point x="661" y="1676" name="dv01"/>
      <point x="770" y="1594"/>
      <point x="770" y="1488" type="curve" smooth="yes"/>
      <point x="770" y="1373" name="dv02"/>
      <point x="642" y="1236" name="dh03"/>
      <point x="360" y="1042" type="curve" name="dv05"/>
      <point x="256" y="969" type="line"/>
      <point x="694" y="969" type="line"/>
      <point x="666" y="824" type="line" name="dv06"/>
      <point x="2" y="824" type="line" name="sh01"/>
    </contour>
    <contour>
      <point x="47" y="618" type="line" name="dv07"/>
      <point x="1106" y="879" type="line" name="sh02"/>
      <point x="1143" y="762" type="line"/>
      <point x="84" y="500" type="line" name="dv08"/>
    </contour>
    <contour>
      <point x="703" y="-285" type="curve" smooth="yes" name="sh03"/>
      <point x="603" y="-285" name="ih01"/>
      <point x="506" y="-271" name="dh04"/>
      <point x="413" y="-244" type="curve"/>
      <point x="444" y="-90" type="line"/>
      <point x="523" y="-125" name="sh04"/>
      <point x="634" y="-145"/>
      <point x="717" y="-145" type="curve" smooth="yes"/>
      <point x="860" y="-145"/>
      <point x="938" y="-87"/>
      <point x="938" y="-3" type="curve" smooth="yes"/>
      <point x="938" y="72"/>
      <point x="876" y="104"/>
      <point x="776" y="104" type="curve" smooth="yes"/>
      <point x="665" y="104" type="line"/>
      <point x="694" y="250" type="line"/>
      <point x="803" y="250" type="line" smooth="yes"/>
      <point x="920" y="250"/>
      <point x="985" y="289"/>
      <point x="985" y="352" type="curve" smooth="yes"/>
      <point x="985" y="412"/>
      <point x="928" y="442"/>
      <point x="836" y="442" type="curve" smooth="yes"/>
      <point x="771" y="442"/>
      <point x="677" y="426"/>
      <point x="569" y="395" type="curve"/>
      <point x="598" y="547" type="line"/>
      <point x="695" y="570"/>
      <point x="792" y="582"/>
      <point x="873" y="582" type="curve" smooth="yes"/>
      <point x="1068" y="582"/>
      <point x="1177" y="515"/>
      <point x="1177" y="386" type="curve" smooth="yes"/>
      <point x="1177" y="274"/>
      <point x="1092" y="194"/>
      <point x="944" y="178" type="curve"/>
      <point x="1052" y="165"/>
      <point x="1126" y="104"/>
      <point x="1126" y="-13" type="curve" smooth="yes"/>
      <point x="1126" y="-179"/>
      <point x="975" y="-285"/>
    </contour>
  </outline>
</glyph>
<glyph name="uni2158" format="1">
  <advance width="1233"/>
  <unicode hex="2158"/>
  <outline>
    <contour>
      <point x="431" y="1004" type="line" name="sv01"/>
      <point x="42" y="1004" type="line"/>
      <point x="73" y="1166" type="line"/>
      <point x="540" y="1659" type="line" name="av01"/>
      <point x="745" y="1659" type="line"/>
      <point x="644" y="1147" type="line" name="at01"/>
      <point x="753" y="1147" type="line"/>
      <point x="726" y="1004" type="line" name="sv02"/>
      <point x="618" y="1004" type="line" name="sv03"/>
      <point x="583" y="824" type="line" name="sv04"/>
      <point x="395" y="824" type="line" name="sv05"/>
    </contour>
    <contour>
      <point x="458" y="1147" type="line" name="at02"/>
      <point x="522" y="1477" type="line"/>
      <point x="208" y="1147" type="line"/>
    </contour>
    <contour>
      <point x="47" y="618" type="line"/>
      <point x="1106" y="879" type="line"/>
      <point x="1143" y="762" type="line"/>
      <point x="84" y="500" type="line"/>
    </contour>
    <contour>
      <point x="644" y="-285" type="curve" smooth="yes" name="dv01"/>
      <point x="553" y="-285"/>
      <point x="454" y="-273"/>
      <point x="374" y="-250" type="curve" name="dv02"/>
      <point x="410" y="-101" type="line" name="dh01"/>
      <point x="478" y="-130" name="dv03"/>
      <point x="560" y="-147"/>
      <point x="645" y="-147" type="curve" smooth="yes"/>
      <point x="809" y="-147" name="dv06"/>
      <point x="912" y="-84" name="dv05"/>
      <point x="912" y="15" type="curve" smooth="yes"/>
      <point x="912" y="96" name="iv01"/>
      <point x="844" y="143" name="dv04"/>
      <point x="721" y="143" type="curve" smooth="yes" name="dh02"/>
      <point x="652" y="143"/>
      <point x="572" y="128"/>
      <point x="496" y="100" type="curve" name="sh01"/>
      <point x="611" y="565" type="line"/>
      <point x="1187" y="565" type="line"/>
      <point x="1150" y="420" type="line"/>
      <point x="745" y="420" type="line"/>
      <point x="707" y="266" type="line"/>
      <point x="738" y="275"/>
      <point x="771" y="280"/>
      <point x="814" y="280" type="curve" smooth="yes"/>
      <point x="996" y="280"/>
      <point x="1116" y="188"/>
      <point x="1116" y="33" type="curve" smooth="yes"/>
      <point x="1116" y="-156"/>
      <point x="936" y="-285"/>
    </contour>
  </outline>
</glyph>
<glyph name="uni2159" format="1">
  <advance width="1233"/>
  <unicode hex="2159"/>
  <outline>
    <contour>
      <point x="57" y="969" type="line" name="sv01"/>
      <point x="293" y="969" type="line"/>
      <point x="399" y="1512" type="line"/>
      <point x="170" y="1469" type="line"/>
      <point x="199" y="1618" type="line"/>
      <point x="428" y="1659" type="line" name="sh02"/>
      <point x="625" y="1659" type="line" name="sh04"/>
      <point x="490" y="969" type="line"/>
      <point x="717" y="969" type="line" name="dv08"/>
      <point x="688" y="824" type="line" name="dv07"/>
      <point x="31" y="824" type="line"/>
    </contour>
    <contour>
      <point x="47" y="618" type="line"/>
      <point x="1106" y="879" type="line"/>
      <point x="1143" y="762" type="line" name="sh06"/>
      <point x="84" y="500" type="line"/>
    </contour>
    <contour>
      <point x="733" y="-285" type="curve" smooth="yes" name="dv01"/>
      <point x="534" y="-285" name="sh01"/>
      <point x="426" y="-192"/>
      <point x="426" y="3" type="curve" smooth="yes" name="dv06"/>
      <point x="426" y="147"/>
      <point x="486" y="319"/>
      <point x="589" y="430" type="curve" smooth="yes" name="dv05"/>
      <point x="683" y="531" name="ih01"/>
      <point x="813" y="582" name="dv04"/>
      <point x="980" y="582" type="curve" smooth="yes" name="sh05"/>
      <point x="1053" y="582"/>
      <point x="1111" y="572" name="dv02"/>
      <point x="1187" y="548" type="curve" name="ah02"/>
      <point x="1151" y="399" type="line" name="dv03"/>
      <point x="1095" y="431" name="sh03"/>
      <point x="1026" y="449"/>
      <point x="958" y="449" type="curve" smooth="yes" name="ah01"/>
      <point x="813" y="449" name="sh07"/>
      <point x="707" y="368"/>
      <point x="663" y="211" type="curve"/>
      <point x="719" y="256"/>
      <point x="791" y="284"/>
      <point x="879" y="284" type="curve" smooth="yes"/>
      <point x="1034" y="284"/>
      <point x="1133" y="196"/>
      <point x="1133" y="46" type="curve" smooth="yes"/>
      <point x="1133" y="-144"/>
      <point x="976" y="-285"/>
    </contour>
    <contour>
      <point x="746" y="-151" type="curve" smooth="yes"/>
      <point x="853" y="-151"/>
      <point x="928" y="-59"/>
      <point x="928" y="37" type="curve" smooth="yes"/>
      <point x="928" y="113"/>
      <point x="881" y="151"/>
      <point x="812" y="151" type="curve" smooth="yes"/>
      <point x="705" y="151"/>
      <point x="630" y="60"/>
      <point x="630" y="-36" type="curve" smooth="yes"/>
      <point x="630" y="-112"/>
      <point x="675" y="-151"/>
    </contour>
  </outline>
</glyph>
<glyph name="uni21BA" format="1">
  <advance width="1233"/>
  <unicode hex="21BA"/>
  <outline>
    <contour>
      <point x="593" y="-39" type="curve" smooth="yes" name="dv01"/>
      <point x="445" y="-39"/>
      <point x="315" y="18" name="dh01"/>
      <point x="214" y="118" type="curve" smooth="yes"/>
      <point x="109" y="222"/>
      <point x="55" y="353" name="dh02"/>
      <point x="55" y="502" type="curve" smooth="yes"/>
      <point x="55" y="646" name="dv02"/>
      <point x="105" y="769"/>
      <point x="214" y="882" type="curve" name="dh05"/>
      <point x="385" y="733" type="line"/>
      <point x="324" y="673"/>
      <point x="294" y="594" name="dh04"/>
      <point x="294" y="513" type="curve" smooth="yes" name="dh03"/>
      <point x="294" y="425"/>
      <point x="328" y="349"/>
      <point x="384" y="293" type="curve" smooth="yes" name="dv04"/>
      <point x="436" y="240" name="dv03"/>
      <point x="508" y="203" name="ih01"/>
      <point x="601" y="203" type="curve" smooth="yes" name="dh06"/>
      <point x="684" y="203"/>
      <point x="756" y="233"/>
      <point x="816" y="293" type="curve" smooth="yes"/>
      <point x="881" y="358" name="sh01"/>
      <point x="906" y="434"/>
      <point x="906" y="519" type="curve" smooth="yes"/>
      <point x="906" y="570"/>
      <point x="898" y="615"/>
      <point x="883" y="632" type="curve"/>
      <point x="835" y="704" type="line"/>
      <point x="835" y="517" type="line"/>
      <point x="648" y="517" type="line"/>
      <point x="648" y="929" type="line"/>
      <point x="766" y="1047" type="line"/>
      <point x="1178" y="1047" type="line"/>
      <point x="1178" y="860" type="line"/>
      <point x="991" y="860" type="line" smooth="yes"/>
      <point x="1040" y="860"/>
      <point x="1131" y="654"/>
      <point x="1131" y="488" type="curve" smooth="yes"/>
      <point x="1131" y="357"/>
      <point x="1076" y="222"/>
      <point x="972" y="118" type="curve" smooth="yes"/>
      <point x="876" y="22"/>
      <point x="746" y="-39"/>
    </contour>
  </outline>
</glyph>
<glyph name="uni223B" format="1">
  <advance width="1233"/>
  <unicode hex="223B"/>
  <outline>
    <contour>
      <point x="451" y="1277" type="line" name="dh01"/>
      <point x="784" y="1277" type="line" name="dh02"/>
      <point x="784" y="912" type="line" name="dv01"/>
      <point x="451" y="912" type="line"/>
    </contour>
    <contour>
      <point x="850" y="468" type="curve" smooth="yes" name="dv02"/>
      <point x="778" y="468"/>
      <point x="726" y="484"/>
      <point x="645" y="519" type="curve" smooth="yes" name="dv04"/>
      <point x="612" y="533" type="line" smooth="yes" name="iv01"/>
      <point x="522" y="570"/>
      <point x="468" y="591" name="dv05"/>
      <point x="385" y="591" type="curve" smooth="yes"/>
      <point x="280" y="591"/>
      <point x="192" y="558"/>
      <point x="88" y="470" type="curve" name="dv03"/>
      <point x="88" y="699" type="line"/>
      <point x="192" y="779"/>
      <point x="287" y="814"/>
      <point x="390" y="814" type="curve" smooth="yes" name="sh01"/>
      <point x="463" y="814" name="sh02"/>
      <point x="533" y="796" name="ab01"/>
      <point x="621" y="759" type="curve"/>
      <point x="622" y="759" type="line"/>
      <point x="652" y="745" type="line" smooth="yes"/>
      <point x="725" y="710"/>
      <point x="797" y="691"/>
      <point x="865" y="691" type="curve" smooth="yes"/>
      <point x="958" y="691"/>
      <point x="1045" y="728"/>
      <point x="1145" y="816" type="curve"/>
      <point x="1145" y="582" type="line"/>
      <point x="1053" y="509"/>
      <point x="959" y="468"/>
    </contour>
    <contour>
      <point x="450" y="365" type="line"/>
      <point x="783" y="365" type="line"/>
      <point x="783" y="0" type="line"/>
      <point x="450" y="0" type="line"/>
    </contour>
  </outline>
</glyph>
<glyph name="uni2244" format="1">
  <advance width="1233"/>
  <unicode hex="2244"/>
  <outline>
    <contour>
      <point x="194" y="112" type="line" name="hr00"/>
      <point x="297" y="295" type="line" name="sv01"/>
      <point x="88" y="295" type="line"/>
      <point x="88" y="530" type="line"/>
      <point x="426" y="530" type="line" name="dv02"/>
      <point x="559" y="760" type="line"/>
      <point x="515" y="783" name="dv03"/>
      <point x="450" y="796"/>
      <point x="382" y="796" type="curve" smooth="yes" name="iv01"/>
      <point x="326" y="796"/>
      <point x="281" y="787" name="dv04"/>
      <point x="240" y="770" type="curve" smooth="yes"/>
      <point x="194" y="751"/>
      <point x="127" y="712"/>
      <point x="88" y="673" type="curve" name="av01"/>
      <point x="88" y="899" type="line"/>
      <point x="200" y="995" name="iv02"/>
      <point x="314" y="1018" name="dv06"/>
      <point x="402" y="1018" type="curve" smooth="yes" name="iv03"/>
      <point x="471" y="1018"/>
      <point x="521" y="1002"/>
      <point x="614" y="968" type="curve" smooth="yes" name="dv05"/>
      <point x="627" y="963" type="line"/>
      <point x="665" y="945" type="line" name="sv02"/>
      <point x="866" y="1305" type="line"/>
      <point x="1010" y="1222" type="line"/>
      <point x="827" y="898" type="line" name="dv01"/>
      <point x="842" y="895" name="av02"/>
      <point x="855" y="893"/>
      <point x="872" y="893" type="curve" smooth="yes"/>
      <point x="958" y="893"/>
      <point x="1067" y="945"/>
      <point x="1145" y="1020" type="curve"/>
      <point x="1145" y="788" type="line"/>
      <point x="1102" y="749"/>
      <point x="1053" y="723"/>
      <point x="985" y="698" type="curve" smooth="yes"/>
      <point x="936" y="679"/>
      <point x="901" y="671"/>
      <point x="856" y="671" type="curve" smooth="yes"/>
      <point x="809" y="671"/>
      <point x="765" y="679"/>
      <point x="712" y="698" type="curve"/>
      <point x="618" y="530" type="line"/>
      <point x="1146" y="530" type="line"/>
      <point x="1146" y="295" type="line"/>
      <point x="484" y="295" type="line"/>
      <point x="334" y="32" type="line"/>
    </contour>
  </outline>
</glyph>
<glyph name="uni224E" format="1">
  <advance width="1233"/>
  <unicode hex="224E"/>
  <outline>
    <contour>
      <point x="88" y="987" type="line" name="sv01"/>
      <point x="305" y="987" type="line"/>
      <point x="310" y="1044"/>
      <point x="351" y="1151" name="dv04"/>
      <point x="461" y="1213" type="curve"/>
      <point x="515" y="1242"/>
      <point x="585" y="1264" name="dv06"/>
      <point x="624" y="1264" type="curve" smooth="yes" name="sh01"/>
      <point x="694" y="1264" name="ah02"/>
      <point x="831" y="1201"/>
      <point x="893" y="1088" type="curve" smooth="yes" name="dv03"/>
      <point x="906" y="1064"/>
      <point x="921" y="1024" name="sh03"/>
      <point x="928" y="987" type="curve" name="sh02"/>
      <point x="1145" y="987" type="line" name="dv01"/>
      <point x="1145" y="752" type="line"/>
      <point x="803" y="752" type="line" name="dv05"/>
      <point x="803" y="822" name="sh04"/>
      <point x="764" y="926"/>
      <point x="708" y="979" type="curve" smooth="yes" name="sh05"/>
      <point x="681" y="1004"/>
      <point x="653" y="1014" name="dv02"/>
      <point x="617" y="1013" type="curve" smooth="yes"/>
      <point x="541" y="1010" name="sh06"/>
      <point x="491" y="961" name="sh07"/>
      <point x="456" y="868" type="curve" smooth="yes" name="sv02"/>
      <point x="441" y="828"/>
      <point x="432" y="787"/>
      <point x="431" y="752" type="curve"/>
      <point x="88" y="752" type="line" name="ah01"/>
    </contour>
    <contour>
      <point x="615" y="20" type="curve" smooth="yes" name="sh08"/>
      <point x="546" y="20"/>
      <point x="409" y="72"/>
      <point x="340" y="196" type="curve" smooth="yes"/>
      <point x="319" y="233"/>
      <point x="305" y="274"/>
      <point x="305" y="297" type="curve"/>
      <point x="88" y="297" type="line"/>
      <point x="88" y="532" type="line"/>
      <point x="431" y="532" type="line"/>
      <point x="434" y="460"/>
      <point x="467" y="357"/>
      <point x="526" y="306" type="curve" smooth="yes"/>
      <point x="549" y="287"/>
      <point x="578" y="271"/>
      <point x="617" y="271" type="curve"/>
      <point x="685" y="270"/>
      <point x="741" y="316"/>
      <point x="778" y="416" type="curve"/>
      <point x="793" y="453"/>
      <point x="802" y="493"/>
      <point x="803" y="532" type="curve"/>
      <point x="1145" y="532" type="line"/>
      <point x="1145" y="297" type="line"/>
      <point x="928" y="297" type="line"/>
      <point x="909" y="205"/>
      <point x="869" y="128"/>
      <point x="772" y="71" type="curve" smooth="yes"/>
      <point x="719" y="40"/>
      <point x="658" y="20"/>
    </contour>
  </outline>
</glyph>
<glyph name="uni227F" format="1">
  <advance width="1233"/>
  <unicode hex="227F"/>
  <outline>
    <contour>
      <point x="88" y="485" type="line" name="hr00"/>
      <point x="269" y="670"/>
      <point x="471" y="786"/>
      <point x="696" y="835" type="curve" name="av01"/>
      <point x="473" y="885"/>
      <point x="270" y="1002"/>
      <point x="88" y="1185" type="curve"/>
      <point x="88" y="1523" type="line" name="dv01"/>
      <point x="358" y="1178"/>
      <point x="710" y="993"/>
      <point x="1145" y="968" type="curve" name="dv03"/>
      <point x="1145" y="702" type="line" name="iv01"/>
      <point x="718" y="667"/>
      <point x="366" y="482" name="dv04"/>
      <point x="88" y="147" type="curve"/>
    </contour>
    <contour>
      <point x="850" y="-206" type="curve" smooth="yes"/>
      <point x="778" y="-206"/>
      <point x="726" y="-190" name="dv02"/>
      <point x="645" y="-155" type="curve" smooth="yes"/>
      <point x="612" y="-141" type="line" smooth="yes"/>
      <point x="522" y="-104"/>
      <point x="468" y="-83"/>
      <point x="385" y="-83" type="curve" smooth="yes"/>
      <point x="280" y="-83"/>
      <point x="192" y="-116"/>
      <point x="88" y="-204" type="curve"/>
      <point x="88" y="25" type="line"/>
      <point x="192" y="105"/>
      <point x="287" y="140"/>
      <point x="390" y="140" type="curve" smooth="yes"/>
      <point x="463" y="140"/>
      <point x="533" y="122"/>
      <point x="621" y="85" type="curve"/>
      <point x="622" y="85" type="line"/>
      <point x="652" y="71" type="line" smooth="yes"/>
      <point x="725" y="36"/>
      <point x="797" y="17"/>
      <point x="865" y="17" type="curve" smooth="yes"/>
      <point x="958" y="17"/>
      <point x="1045" y="54"/>
      <point x="1145" y="142" type="curve"/>
      <point x="1145" y="-92" type="line"/>
      <point x="1053" y="-165"/>
      <point x="959" y="-206"/>
    </contour>
  </outline>
</glyph>
<glyph name="uni2289" format="1">
  <advance width="1233"/>
  <unicode hex="2289"/>
  <outline>
    <contour>
      <point x="168" y="-160" type="line" name="hr00"/>
      <point x="214" y="-40" type="line" name="dv01"/>
      <point x="88" y="-40" type="line"/>
      <point x="88" y="198" type="line"/>
      <point x="307" y="198" type="line" name="dv02"/>
      <point x="352" y="315" type="line" name="dv05"/>
      <point x="88" y="315" type="line"/>
      <point x="88" y="540" type="line"/>
      <point x="438" y="540" type="line" name="dv06"/>
      <point x="654" y="1096" type="line" name="dv03"/>
      <point x="88" y="1096" type="line"/>
      <point x="88" y="1321" type="line"/>
      <point x="658" y="1321" type="line" smooth="yes" name="dv04"/>
      <point x="686" y="1321" name="sv01"/>
      <point x="713" y="1319" name="at01"/>
      <point x="739" y="1315" type="curve"/>
      <point x="808" y="1494" type="line"/>
      <point x="987" y="1425" type="line"/>
      <point x="918" y="1247" type="line" name="dh02"/>
      <point x="948" y="1229" name="sv02"/>
      <point x="977" y="1206"/>
      <point x="1004" y="1179" type="curve" smooth="yes" name="sv03"/>
      <point x="1100" y="1082" name="sh01"/>
      <point x="1145" y="947" name="sv04"/>
      <point x="1145" y="816" type="curve" smooth="yes"/>
      <point x="1145" y="541" name="av01"/>
      <point x="944" y="315" name="sv05"/>
      <point x="657" y="315" type="curve" smooth="yes" name="dh01"/>
      <point x="561" y="315" type="line"/>
      <point x="516" y="198" type="line" name="iv01"/>
      <point x="1145" y="198" type="line" name="iv02"/>
      <point x="1145" y="-40" type="line"/>
      <point x="424" y="-40" type="line" name="sh02"/>
      <point x="349" y="-236" type="line"/>
    </contour>
    <contour>
      <point x="658" y="540" type="line" smooth="yes"/>
      <point x="803" y="540"/>
      <point x="920" y="649"/>
      <point x="920" y="821" type="curve" smooth="yes"/>
      <point x="920" y="901"/>
      <point x="895" y="968"/>
      <point x="844" y="1019" type="curve" smooth="yes"/>
      <point x="834" y="1028" type="line"/>
      <point x="647" y="540" type="line"/>
    </contour>
  </outline>
</glyph>
